<?xml version="1.0" encoding="utf-8"?>
<!-- Generator: Adobe Illustrator 27.0.0, SVG Export Plug-In . SVG Version: 6.00 Build 0)  -->
<svg version="1.1" id="Capa_1" xmlns="http://www.w3.org/2000/svg" xmlns:xlink="http://www.w3.org/1999/xlink" x="0px" y="0px"
	 viewBox="0 0 1000 1000" style="enable-background:new 0 0 1000 1000;" xml:space="preserve">
<style type="text/css">
	.st0{fill:#D3D7DA;stroke:#FFFFFF;stroke-width:0.5;stroke-linecap:round;stroke-linejoin:round;}
</style>
<g id="features">
	<path id="ARE" class="st0" d="M607.1,332.7l-1.1,0.2l-1.9,0.8h-1l-0.8-0.4l-2.2-2l-0.3-0.1l-1-0.3l-0.4-0.2l-1.2-1l-1.5-0.9
		l-0.3-0.3l-0.4-0.2l-0.6-0.1h-2.1h-0.2L592,328l-0.1-0.2l-0.1-0.1l-0.2-0.2l-0.1-0.1h-0.2l-0.1,0.1h-0.1l-0.1,0.1l-0.2-0.1
		l-0.1-0.1l-0.1-0.2h-0.1l-0.1-0.2v-0.7V326l-0.2-0.4h-0.1h-0.2l-0.3,0.1h-0.1l-0.1,0.3h-0.1h-1.8l-1-0.5l-0.8-1l-0.9-0.6l-1.1,0.4
		l-0.6,0.2l-0.7-0.2l-2.8-1.5l-0.3-0.3l-0.8-1.2l-0.3-0.4l-0.4-0.2l-1-0.6h-0.4l-0.4-0.2l-3.5-2.5l-2.7-2.8l-1-0.6l-0.6-0.3
		l-0.5-0.5l-0.1-0.1l-0.2-0.5l-0.4-0.4l-0.2-0.2l-0.2-0.1l-0.3-0.1l-0.3-0.2l-1.3-0.9l-1.2-1.5l-0.1-0.2l-0.5-1.7l-0.1-0.2l-0.1-0.1
		l-0.2-0.2h-0.1l-0.4-0.6l-1.1-2.3l-0.3-0.9l-0.1-1l-0.2-2.2l-0.1-0.5l-0.3-0.4l-0.7-1.2l-0.2-0.4v-0.4l0.1-0.5l0.6-1.6l0.1-0.5
		l0.1-0.5l-0.2-1.5l0.1-0.5l0.1-0.5l0.4-1.5l0.1-0.4v-0.6l-0.2-1.4l0.1-0.5l0.1-0.4l0.7-1.2l0.1-0.5l-0.1-0.5l-0.2-0.5l-0.6-0.8
		l-0.2-0.6l-0.1-0.6v-0.6l0.2-0.5l0.6-0.8l0.2-0.4v-0.2l0.1-0.8l0.3-0.7v-0.4v-0.3V277h0.1l-0.1-0.2v-0.2v-0.2l0.1-0.2l0.2-0.2h0.1
		l0.6-0.2h0.4h0.4h1.5l0.4-0.1l0.4-0.1l0.4-0.2l0.4-0.2l0.7-0.6l0.6-0.7l1.1-1.6l0.5-0.6l0.3-0.4l0.1-0.2l0.3-0.3l0.3-0.2h0.1
		l0.2-0.4l0.2-0.2l0.1-0.1l0.2-0.1l0.3-0.1h0.1l0.1-0.2l0.4-0.7l0.9-1.1l0.1-0.3h0.1l0.6-2.1l0.2-0.3l0.8-0.7l0.3-0.3l1.3-2.4
		l1.2-1.8l0.8-1.5l1-1.3l0.4-0.8l1.1-1.5l1.2-2.2l0.2-0.5l0.1-1.4l0.1-0.4l0.4-1.2v-0.4v-1.4l0.2-0.9v-0.4l-0.1-0.4l-0.5-1.1
		l-0.2-0.4l-0.2-1.1l1.7-0.1h0.3l1.3-0.6h0.1h0.1h0.1l0.5,0.2h0.2l1.4-0.3l1.1,0.2l1.9,0.7l1.6-0.9l0.4-0.3l0.2-0.3l0.8-0.7l1.1-0.7
		l0.5-0.3l0.3-0.1l0.7,0.1l1.2,0.3l0.6,0.1h0.2l1.7-0.3l0.4-0.2l0.4-0.2l2.6-1.1h0.6h0.3l0.3,0.1l0.2,0.1l0.5,0.4l0.1,0.1l0.2,0.1
		h0.5h0.9l4,1.1l0.7,0.5l0.2,0.3v0.2l0.2,0.5l0.3,0.5l0.5,0.6l1.2,1.2l0.9,0.8l0.3,0.4l0.1,0.4l0.1,1.1l0.2,0.5l0.8,1.6l0.2,0.4
		l2.4,2.5l1.1,0.9h0.2l0.1,0.7l0.1,0.4l0.1,0.6v1v0.2l-0.2,0.6l-0.1,0.4l-0.2,0.1l-0.5-0.1l-0.9,0.3l-0.4,0.2l-0.1,0.5l0.1,0.2
		l0.9,1.3l0.1,1.2l-0.3,0.8l-0.6,0.8l-0.2,1.1l0.1,1v0.7l-0.2,0.2l-0.4,1l-0.2,0.1l-0.3,0.3l-0.2,0.1l-0.2,0.5l-0.1,1.1l-0.2,0.5
		l-0.3,0.3l-0.8,0.5l-0.4,0.3l-0.2,0.7l0.5,0.7l0.2,0.1l0.6,0.5l0.5,0.7l0.2,1l-0.2,1.1l-1.3,3.8l-0.2,0.3l-0.5,0.2l-1,0.2l-0.4,0.2
		l-0.3,0.3l-0.6,0.6l-0.2,0.5l0.3,0.5l0.7,0.7l0.2,0.8v1.1v1.1l-0.2,0.9l-0.5,0.8l-0.1,0.5l0.2,0.5l1.4,1.9l0.2,0.7l-0.1,0.7l-1.3,2
		l-0.5,1l-0.2,0.3v0.1V294l-0.4,1.1l-0.1,1.1l0.3,3l0.3,1.7l0.3,2.5l0.2,0.5l0.6,0.9l0.1,0.4l-0.1,0.5l-0.3,0.9l-0.1,0.6l0.3,1.1
		v0.6l-0.2,0.3l-0.8,0.7h-0.2l-0.5,0.1h-0.3l-2.9-0.5l-0.7,0.4l-0.1,0.1l-0.2,0.2v0.2l0.4,0.2v0.2l-0.1,0.3v0.2l-0.1,0.5l-0.2,1.1
		v0.5l0.3,1.1l0.1,0.6l-0.2,0.2l-0.4,0.2l-0.4,0.5l-0.6,0.8l-0.3,0.9l-0.4,1.1l-0.2,1.1l-0.1,1l0.2,1.1l-0.1,0.3l-0.2,0.5l-0.1,1.8
		v0.6l0.1,1l0.4,0.8l1.1,1.6l0.2,0.4l0.1,0.5l0.1,1.1l0.2,1.4v0.3l-0.1,0.3L607.1,332.7L607.1,332.7z"/>
	<path id="ARA" class="st0" d="M398.9,121.6l0.1-0.1l0.4-0.2h0.3l0.4,0.1h0.4l0.5-0.1l0.4-0.2l0.2-0.3v-0.5l-0.4-0.6l-0.7-0.6
		l-0.5-0.6l0.1-0.9l0.1-0.2l-0.1-0.2l-0.1-0.1l-0.1-0.2l-0.1-0.1l-0.2-0.2l-0.1-0.1v-0.1v-0.1l0.1-0.1l-0.2-0.3l-0.1-0.2l-0.2-0.1
		h-0.4l-0.2-0.1l-0.5-0.3l-0.2-0.2l-0.1-0.2l-0.4-1.2l-0.1-0.4l0.2-0.5l1-2.1l0.3-0.8v-0.3l0.1-0.4l0.2-0.2l0.2-0.1l0.4,0.6l0.3,0.1
		l0.1-0.4l0.2-0.7l0.8-1.8l0.4-0.2h0.3l0.4,0.2l0.4-0.1l0.2-0.2l0.8-1.3l0.2-0.6l0.1-0.2l0.4-0.2l0.7-0.3l1-0.5l1-0.4l1.1-0.4l1-0.5
		l2.6-1.1l2.6-1.2l2.6-1.2l2.6-1.1l0.2-0.1L420,97l0.4-0.1l0.2-0.1l0.8-0.3l1-0.6l0.5-0.7l0.4-1.5l0.7-2.2l0.7-2.3l0.5,0.5l0.2,0.1
		l0.1,0.1l0.6,0.2l0.1,0.1l0.1,0.1l0.4,0.6l0.1,0.1h0.1l0.3,0.1l0.1,0.1h0.5l0.2,0.1h0.1l0.2,0.1l0.1,0.2l0.6,0.7l0.9,0.9l0.1,0.1
		l0.1,0.4l0.1,0.2l0.1,0.1h0.1l0.2,0.1h0.2h0.1l0.1,0.1l0.1,0.2l0.1,0.3l0.1,0.1v0.1l0.7,0.7l0.4,0.6l0.2,0.2l0.3,0.2l1.7,0.7
		l0.1,0.1l0.8,0.8l0.7,1.1l0.5,0.4l0.6,0.4l0.8,0.4l0.8,0.2l1.3-0.1l0.7-0.4l1.1-1.5l0.1-0.1h0.4l0.1-0.2l0.2-0.3v-0.7L443,97
		l0.1-0.3l0.2-0.2l0.1-0.3v-0.7v-0.9l0.2-2.3l0.1-2l-0.1-1.3l-0.1-0.7l-0.7-1.5v-0.3l-0.5-1.3l-0.1-0.2v-0.7l0.1-0.6l0.5-2.3
		l0.1-0.1l0.1-0.2l0.1-0.1h0.1l0.2-0.1h0.2l0.2,0.1l1,0.5l0.5-0.1l0.6,0.5l0.4,0.2h0.2l0.3-0.1h0.1l0.1,0.1h0.1l3,1.8l0.6,0.6
		l0.1,0.2l0.1,0.2V85v0.3l-0.1,0.8v0.4l0.1,1.1l-0.2,0.5v0.2l0.2,0.4v0.2V89l-0.4,0.3v0.1l-0.2,0.5l-0.1,0.1v0.2l-0.1,1.6v0.1
		l0.1,0.1l0.1,0.1h0.1l0.1,0.1v0.4l0.1,0.1v0.1h0.1l0.1,0.1V93v0.2l-0.2,0.2v0.2v0.3l0.4,0.5l0.2,0.3l0.2,0.3l0.1,0.1h0.1h0.2h0.1
		L452,95l0.1-0.1l0.1-0.1h0.1l0.1-0.1h0.1l0.2,0.1l0.2,0.1l0.2,0.1l0.8,0.8l0.2,0.3h0.1l1,0.5l0.4,0.4l0.1,0.8l-0.1,0.9l0.2,0.5
		l0.7,1.2l2.1,2.8l0.4,0.8l0.2,0.4l0.1,0.1l0.2,0.1l0.7,0.4l0.2,0.1l0.2-0.1h0.2l0.2-0.2h0.1h0.1h0.1h0.1l0.2,0.1l0.2,0.1l0.5,0.5
		l0.2,0.2l0.5,0.1h0.5l0.1,0.1h0.3l0.9,0.5l0.8,0.2l0.5-0.1l0.3-0.1l0.5-0.3l0.8-0.6h0.1h0.1l0.1,0.1l0.1,0.2l0.1,0.2v0.1l0.1,0.1
		l1.7,1.4l0.7,0.5l2,0.7h0.3h0.1h0.1h0.1l0.1-0.1l0.9-2.3l0.3-0.5l0.3-0.3h0.3l3.9,3.6h0.2l0.1-0.1l0.2-0.1l0.1-0.2l0.1-0.3l0.2-0.5
		l0.2-0.5l0.3-0.3l1.2-1.1l1-0.2l0.1-0.1l0.1-0.1l0.3-0.5l0.1-0.1l0.1-0.1l0.2-0.1l0.2-0.1h0.4h0.1h0.1l0.3-0.1h0.4h0.1h0.1l0.2-0.1
		h0.1l0.3-0.3l0.6-0.6l1.2-1.7l0.7-1.3l0.3-1l0.1-0.3l-0.5-14.6v-0.3l-0.1-0.3l-0.4-0.1h-0.3l-2.6-0.1h-0.2l-0.2,0.1l-0.2,0.3
		l-0.4,0.4l-0.1,0.2l-0.2,1l-0.1,0.2l-0.5,0.4l-0.5-0.4l-0.2-0.2l-0.1-0.1v-0.1l-0.5-0.5l-0.3-0.6h-0.1l-0.4-0.4l-0.3-0.3l-0.7-0.3
		l-0.8-0.2l-0.2-0.1v-0.1h-0.1l-0.2-0.3l-0.2-0.1h-0.1H478l-0.4,0.1l-0.9,0.1l-0.1,0.1l-0.2,0.1l-0.4,0.4l-0.1,0.1h-0.1l-0.1,0.1
		l-0.1,0.1h-0.4l-0.6-0.1l-0.3-0.1h-0.2H474l-0.1-0.1l-0.1-0.3v-0.7l-0.1-0.2l-0.1-0.2l-0.7-1.4l-0.2-0.7l-0.4-0.6l-0.2-0.2
		l-0.7-0.4h-0.1l-0.5-0.1l-0.1-0.1v-0.1l-0.1-0.1l-0.1-0.1v-0.1v-0.1V78l0.1-0.3l0.3-1.4l0.3-2v-0.6v-0.1l-0.1-0.2l-0.1-0.2
		l-0.1-0.2l-0.4-0.3l-0.2-0.2l-0.1-0.1h-0.6l-1.7-0.1h-0.3l-0.2-0.1l-0.5-0.4l-0.2-0.3l-0.1-0.1l-0.1-0.2l-0.4-1.5l-0.1-0.2
		l-0.2-0.3v-0.1l-0.3-2.1v-0.1l-0.1-0.3v-0.2v-0.6v-0.3l0.1-0.4l0.4-0.6l-0.1-0.2l-0.7-0.7l-0.2-0.1l-0.3,0.1h-0.2h-0.1l-0.1-0.2
		l0.2-1l-0.1-0.5l0.1-0.2v-0.2l0.5-0.9l0.1-0.4l0.1-0.3l0.6-1.4l0.2-0.3l0.1-0.1l0.3-0.6l0.1-0.1v-0.2v-1.3l0.1-0.7l0.2-0.9l0.1-0.3
		l0.2-0.4l0.3-0.4l0.1-0.3v-0.5h3.5l3.9,0.9l1.5,0.8l0.8,0.2h0.2l0.4-0.2h0.1h0.2l0.4,0.1l0.4,0.3l0.5,0.2l0.4,0.1l0.2,0.2l0.6,0.6
		l0.1,0.3l0.2,0.5v0.3l-0.1,0.3l-0.3,0.4l-0.2,0.5l0.3,0.4l0.4,0.3l0.3,0.2v0.3l-0.1,0.4v0.2l0.1,0.2l0.4,0.2v0.2l0.2,0.5l0.3,0.4
		l1.1,1.1v0.4l-0.2,0.2l-0.2,0.2v0.3l-0.1,0.2l-0.1,0.4v0.3l0.1,0.3l0.1,0.1l0.2,0.1l0.2,0.2l0.5,1.2l0.3,0.1l0.4,0.3l0.3,0.5
		l0.1,0.6l-0.2,0.5l0.3,0.3v1.1l0.4,0.1v-0.2l0.5-1.8l0.2-0.4v-1.6l0.9-3.4l0.3-0.5l1-1l0.5-0.8l1.6-4l0.1-0.2l0.5-0.2l0.1-0.3
		l0.7-1.6l0.3-1.3l0.2-0.3l0.1-0.1l0.1-0.1h0.2l0.1-0.2l0.1-0.2l0.1-0.4l0.2-0.5v-0.1l0.1-0.1l0.3-0.1l0.5-0.2l1.9,0.2l0.5,0.2
		l0.8,0.7l0.2,0.1l1-0.8l0.3-0.2l0.8-0.1h6.6h6.5l3-0.1l0.9,0.1l0.3,0.1l0.1,0.2l0.1,0.9v0.2v0.2l0.1,0.2v0.7l0.2,0.4l0.3,0.3
		l0.9,0.5l0.9,0.7l0.3,0.2l0.1,0.2v0.2v0.2l0.2,0.1h0.2l0.2,0.1l0.2,0.1l0.1,0.2h-0.2l0.1,0.3v0.2l-0.2,0.2v0.2l0.1,0.2l0.3,0.2
		l0.3,0.1h0.2l0.5,0.1l0.4,0.3l0.5,0.7l0.2,0.1l0.8,0.3l0.2,0.1l0.2,0.3l0.3,0.4l1.5,1l0.4,0.2h0.1l0.1,24.4V98l0.1,6.4l-15.7,20.5
		l-6.4,8.2l-10.9-0.2l-0.7-0.2l-4-1.3l-0.8-0.1l-0.4,0.5l-4.4,9.8l-0.1,0.4l-0.1,0.2v0.8v0.2l-0.2,0.4l-0.7,1.5l-0.1,0.1L482,146
		l-4.4,0.1h-0.3l-1.1-0.3l-0.7,0.1l-1,0.4l-0.2,0.1l-0.4,0.4l-0.4,0.3h-0.1l-0.2,0.1h-0.3l-0.1,0.1l-0.3-0.1l-0.4-0.1l-0.7-0.3
		l-0.4-0.3l-0.4-0.1h-0.2l-0.3,0.1l-4-1.6l-0.3-0.2l-0.1-0.3l-0.2-0.3l-0.1-0.6l-0.3-0.6l-0.1-0.1h-0.1l-0.1-0.1h-0.2l-0.2,0.1
		l-0.6,0.2l-1.1,0.6l-0.1,0.1h-0.1h-0.3l-2-0.5h-0.3l-0.5,0.1l-1-0.3l-0.1-0.1l-0.5-0.2l-0.1-0.1h-0.1l-0.2,0.1l-0.1,0.1v0.1
		l-0.1,0.3v0.3v0.9v0.5l-0.2,0.4l-0.1,0.5v0.3v0.8v0.2v0.1v0.1l-0.1,0.2l-0.1,0.1l-0.1,0.1l-0.1,0.1l-0.2,0.1l-0.7-0.1l-6.1-1
		l-0.8-0.5l-0.6-0.6l-0.4-0.7l-0.3-0.2l-0.4-0.1h-0.3h-0.4l-0.3,0.2l-0.2,0.1l-0.2,0.3l-0.4,0.7l-0.6,0.4l-0.2,0.2l-0.2,0.4l-1,2.4
		l-0.1,0.1l-0.1,0.1l-0.2,0.2l-0.1,0.1h-0.2h-0.1l-0.1-0.1h-0.2l-0.1-0.2l-0.7-0.6l-1.3-1.6l-0.4-0.5l-0.8-1.9l-0.5-0.6l-0.2-0.2
		l-0.3-1l-1.7-2.2l-1.6-2.5l-0.5-0.8l-0.3-1.1v-0.9l0.1-0.6v-0.2l0.1-0.2v-0.1l0.2-0.2l0.2-0.1l0.1-0.1l0.3-0.2l0.4-0.4l0.1-0.1h0.1
		l0.1-0.1h1.4l0.8-0.1h0.9h0.2h0.1l0.2-0.1l1-0.8l0.3-0.3l0.1-0.2v-0.1v-0.2v-0.2v-0.2l0.5-1.8v-0.3V129v-0.2l-0.1-0.2l-0.2-0.3
		l-0.4-0.5l-0.3-0.4v-0.1l-0.1-0.3v-0.1l-0.2-1.7l-0.1-0.2l-0.2-0.5l-0.1-0.1l-0.1-0.1l-0.1-0.1h-0.1l-0.7-0.1l-25,0.4l-14-2.8
		L398.9,121.6L398.9,121.6z"/>
	<path id="ARY" class="st0" d="M467.4,52.4v0.5l-0.1,0.3l-0.3,0.4l-0.2,0.4l-0.1,0.3l-0.2,0.9l-0.1,0.7v1.3v0.2l-0.1,0.1l-0.3,0.6
		l-0.1,0.1l-0.2,0.3l-0.6,1.4l-0.1,0.3l-0.1,0.4l-0.5,0.9v0.2l-0.1,0.2l0.1,0.5l-0.2,1l0.1,0.2h0.1h0.2l0.3-0.1l0.2,0.1l0.7,0.7
		l0.1,0.2l-0.4,0.6l-0.1,0.4v0.3v0.6v0.2l0.1,0.3V67l0.3,2.1v0.1l0.2,0.3l0.1,0.2l0.4,1.5l0.1,0.2l0.1,0.1l0.2,0.3l0.5,0.4l0.2,0.1
		h0.3l1.7,0.1h0.6l0.1,0.1l0.2,0.2l0.4,0.3l0.1,0.2l0.1,0.2l0.1,0.2v0.1v0.6l-0.3,2l-0.3,1.4l-0.1,0.3v0.3v0.1v0.1l0.1,0.1l0.1,0.1
		v0.1l0.1,0.1l0.5,0.1h0.1l0.7,0.4l0.2,0.2l0.4,0.6l0.2,0.7l0.7,1.4l0.1,0.2l0.1,0.2v0.7l0.1,0.3l0.1,0.1h0.1h0.2l0.3,0.1l0.6,0.1
		h0.4l0.1-0.1l0.1-0.1h0.1l0.1-0.1l0.4-0.4l0.2-0.1l0.1-0.1l0.9-0.1l0.4-0.1h0.3h0.1l0.2,0.1l0.2,0.3h0.1v0.1l0.2,0.1l0.8,0.2
		l0.7,0.3l0.3,0.3l0.4,0.4h0.1l0.3,0.6l0.5,0.5v0.1l0.1,0.1l0.2,0.2l0.5,0.4l0.5-0.4l0.1-0.2l0.2-1l0.1-0.2l0.4-0.4l0.2-0.3l0.2-0.1
		h0.2l2.6,0.1h0.3l0.4,0.1l0.1,0.3v0.3l0.5,14.6l-0.1,0.3l-0.3,1l-0.7,1.3l-1.2,1.7l-0.6,0.6l-0.3,0.3h-0.1l-0.2,0.1h-0.1h-0.1h-0.4
		l-0.3,0.1h-0.1h-0.1h-0.4l-0.2,0.1l-0.2,0.1l-0.1,0.1l-0.1,0.1l-0.3,0.5l-0.1,0.1l-0.1,0.1l-1,0.2l-1.2,1.1l-0.3,0.3L480,108
		l-0.2,0.5l-0.1,0.3l-0.1,0.2l-0.2,0.1l-0.1,0.1h-0.2l-3.9-3.6h-0.3l-0.3,0.3l-0.3,0.5l-0.9,2.3l-0.1,0.1h-0.1h-0.1H473h-0.3l-2-0.7
		l-0.7-0.5l-1.7-1.4l-0.1-0.1V106l-0.1-0.2l-0.1-0.2l-0.1-0.1h-0.1h-0.1l-0.8,0.6l-0.5,0.3l-0.3,0.1l-0.5,0.1l-0.8-0.2l-0.9-0.5
		h-0.3l-0.1-0.1H463l-0.5-0.1l-0.2-0.2l-0.5-0.5l-0.2-0.1l-0.2-0.1h-0.1h-0.1h-0.1H461l-0.2,0.2h-0.2l-0.2,0.1l-0.2-0.1l-0.7-0.4
		l-0.2-0.1l-0.1-0.1L459,104l-0.4-0.8l-2.1-2.8l-0.7-1.2l-0.2-0.5l0.1-0.9l-0.1-0.8l-0.4-0.4l-1-0.5h-0.1l-0.2-0.3l-0.8-0.8
		l-0.2-0.1l-0.2-0.1l-0.2-0.1h-0.1l-0.1,0.1h-0.1l-0.1,0.1L452,95l-0.1,0.1h-0.1h-0.2h-0.1l-0.1-0.1l-0.2-0.3l-0.2-0.3l-0.4-0.5
		v-0.3v-0.2l0.2-0.2V93v-0.1l-0.1-0.1h-0.1v-0.1l-0.1-0.1v-0.4l-0.1-0.1h-0.1l-0.1-0.1l-0.1-0.1v-0.1l0.1-1.6V90l0.1-0.1l0.2-0.5
		v-0.1l0.4-0.3v-0.1v-0.2l-0.2-0.4v-0.2l0.2-0.5l-0.1-1.1v-0.4l0.1-0.8V85v-0.1l-0.1-0.2l-0.1-0.2l-0.6-0.6l-3-1.8H447l-0.1-0.1
		h-0.1l-0.3,0.1h-0.2l-0.4-0.2l-0.6-0.5l-0.5,0.1l-1-0.5l-0.2-0.1h-0.2l-0.2,0.1h-0.1l-0.1,0.1l-0.1,0.2l-0.1,0.1l-0.5,2.3l-0.1,0.6
		V85l0.1,0.2l0.5,1.3v0.3l0.7,1.5l0.1,0.7l0.1,1.3l-0.1,2l-0.2,2.3v0.9v0.7l-0.1,0.3l-0.2,0.2L443,97l-0.2,0.4v0.7l-0.2,0.3
		l-0.1,0.2h-0.4l-0.1,0.1l-1.1,1.5l-0.7,0.4l-1.3,0.1l-0.8-0.2l-0.8-0.4l-0.6-0.4l-0.5-0.4l-0.7-1.1l-0.8-0.8l-0.1-0.1l-1.7-0.7
		l-0.3-0.2l-0.2-0.2l-0.4-0.6l-0.7-0.7v-0.1l-0.1-0.1l-0.1-0.3l-0.1-0.2l-0.1-0.1h-0.1h-0.2l-0.2-0.1h-0.1l-0.1-0.1l-0.1-0.2
		l-0.1-0.4l-0.1-0.1l-0.9-0.9l-0.6-0.7l-0.1-0.2l-0.2-0.1H428l-0.2-0.1h-0.5l-0.1-0.1l-0.3-0.1h-0.1l-0.1-0.1l-0.4-0.6l-0.1-0.1
		l-0.1-0.1l-0.6-0.2l-0.1-0.1l-0.2-0.1l-0.5-0.5l0.1-0.3l1.5-4.8l1.4-4.8l1.5-4.7l0.3-1.3l0.1-0.7l-3.7-4l1.1-1.8l0.6-0.7l1.6-1.2
		l0.2-0.4V64l-0.1-2l0.3-0.1l0.5,0.1l0.3-0.1l0.3-0.2l0.2-0.3l0.4-0.4l0.5-0.3l2.3-0.8l0.3-0.1v-0.3l-0.1-0.6v-0.2l0.3-0.3l0.1-0.5
		l0.3-1.7l0.1-0.5l0.3-0.5l0.5-0.4l0.3-0.1h0.2l0.2,0.1h0.4l0.4,0.2l0.1-0.1v-0.1l0.1-0.2l0.1-0.1l2.4-0.6l2.7-0.8l0.5-0.4l0.1-0.3
		l0.1-0.2l0.2-0.2l0.2-0.1h0.2l0.1,0.1l0.1-0.1l0.1-0.2l0.1-0.4l0.2-2.1l1-3.6l0.3-0.1l1.8,0.5l0.9,0.5l0.6,0.7l0.3,1.1l0.1,0.1
		l1.9,0.3L452,49l2.7,3.1l0.6,0.5l0.6,0.2l2.9-0.4l0.2-0.1l0.1-0.1h0.1l0.1-0.1l1.5,0.3l1.1,0.1L467.4,52.4L467.4,52.4z"/>
	<path id="ARP" class="st0" d="M526.5,98V85.2l-0.1-24.4l0.8,0.1h0.2l0.1,0.1l0.1,0.1v0.2v0.2l0.1,0.2h0.1h0.1h0.1l0.5,0.6l0.2,0.4
		l-0.2,0.3l-0.2,0.4v0.3l0.2,0.3l0.5,0.2l0.3,0.1l0.1-0.1l0.1,0.1l0.1,0.2l-0.1,0.5v0.3l0.4,0.2l-0.3,0.6l0.1,0.1l0.3,0.1l0.1,0.2
		l0.1,0.2l0.1,0.3l0.6,0.6l0.1,0.2V68l0.1,0.1l0.1,0.1l0.1,0.1l0.1,0.1l0.2,0.2h0.1l0.1,0.3l0.2,0.2l0.4,0.5l0.4,0.4l0.3,0.9
		l0.3,0.3v0.2l-0.1,0.5l0.1,0.2v0.1l0.3,0.4l0.7,0.8l2.3,1.4l0.2,0.2l0.4,0.7l0.3,0.2l0.5,0.3l0.2,0.2l0.2,0.2l0.1,0.2l0.1,0.3v0.4
		l0.1,0.4l0.2,0.2l0.3,0.1l0.3,0.2l0.3,0.4l0.2,0.1l0.3,0.1h1l0.3,0.1l1,1.2h0.2l0.2,0.1h0.4l-0.1,0.2l-0.1,0.2v0.3l0.3,0.2l0.2,0.5
		l0.2,0.1l0.5,0.1h0.3l0.4,0.2l0.3,0.2l0.2,0.2l0.2,0.2l0.3,0.1h0.5l1.4,0.6l0.1,0.3l0.1,0.3l0.3,0.3l0.4,0.2h0.2l0.4,0.5l0.2,0.1
		h0.1h0.4h0.2l0.2,0.2l0.3,0.3l0.3,0.3l0.4,0.1l0.2,0.2l0.1,0.5l-0.1,0.5l-0.2,0.4l0.2,0.2l0.4,0.6l0.5,0.3l0.4,0.4l0.2,0.5l0.1,0.3
		l0.1,0.1l0.3,0.5l0.2,0.2l0.6,0.4l0.8-0.2l0.8,0.4L557,92l0.6,0.3l0.4,0.1l0.6-0.1h1.2l0.2,0.1l0.4,0.4h0.2h1h0.2l0.3,0.1l0.3,0.2
		h0.2v0.1l0.4,0.7l0.1,0.1h0.7l0.4,0.2l0.7,0.5l1.3,0.3l0.7-0.1l0.2,0.1l0.2,0.1l0.4,0.4l0.2,0.1h0.2h0.7l1.6,0.2h1.6l0.4-0.1l1-0.4
		h0.4l0.4,0.1l7.5,4.9l0.8,0.8l0.3,0.5l0.2,0.2l0.2,0.1h0.5l0.4,0.2l0.3,0.1l0.2,0.1l0.2,0.3l0.3,0.2l0.4,0.2l0.5,0.2l0.1,0.2
		l0.1,0.1v0.2l0.1,0.2l0.5,0.2l0.8,0.7l0.2,0.3l0.4,0.8l0.4,0.4l0.6,0.2l0.3,0.4h0.2l0.3,0.1l0.2,0.1l0.1,0.2l0.2,0.1l0.9,0.3
		l0.5,0.4l0.5,0.2l0.8,0.5l0.4,0.2h0.4h0.1l0.2,0.1l0.5,0.4l0.2,0.2l0.6,0.2l4,3l0.4,0.1h1.1l0.3,0.1l0.1,0.1l0.2,0.1l0.1,0.1
		l0.1,0.2l0.1,0.1l4.5,0.9l0.5,0.2l0.3,0.3l0.5,0.7l1.3,1.5l0.1,0.2l0.1,0.2l0.1,0.1l0.2,0.1l0.3-0.1l0.2-0.1l0.3-0.2l0.6-0.6
		l0.3-0.3h0.4l1.9,1.3l0.2,0.4h0.2l1.5,0.7h0.2l0.4-0.1l0.2,0.1l0.2,0.2l0.1,0.2l0.1,0.3l0.3,0.1h1.6l0.4,0.1l0.3,0.3l0.9,1.1
		l0.3,0.2l0.7,0.3l0.2,0.3l0.7,1.5l0.4,0.6l0.6,0.4l0.7,1.6v0.3l0.9,0.7l0.4,0.3l0.2,0.3l0.2,0.3v0.4l-0.3,2l-0.1,0.4l-0.2,0.3h-0.3
		l-0.2,0.2l-0.1,0.5l-0.1,0.2h-0.4l-0.6-0.1v0.1l-0.1,0.5l-0.1,0.2l-0.2,0.1l-0.2,0.1l-0.2-0.1l-0.3,0.1l-0.4,0.1l-0.3,0.3l-0.4,0.7
		l0.1,0.1l0.2,0.2l0.2,0.1h0.2l-0.2,0.3l-0.4,0.4l-0.4,0.3l-0.3,0.1l-0.3,0.2v0.5l0.3,0.7l-0.2,0.4l-0.1,0.1l-0.3,0.2l-0.4,0.2
		l-0.5,0.2v0.1v0.2l0.5,0.2v0.2l-0.1,0.3l-0.1,0.2l-0.7,0.6l-0.2,0.3l1,0.3l-0.1,0.3l-0.2,0.4l-2.4,1.8l-0.7,0.4l-1.3,0.5l-0.3,0.2
		l-0.2,0.8l-0.1,0.4l-0.2,0.3l-0.1-0.2l-0.1-0.1l-0.2-0.1l-0.2-0.1l0.1,0.4l0.2,0.3l0.3,0.1l0.3,0.2v0.4l-0.3,0.2l-0.5,0.2L613,147
		l-0.2,0.2v0.3l0.1,0.8v0.4l-0.1,0.3l-0.7,1.2l-0.2,0.4l0.1,0.3l0.5,0.5l-0.1,0.2l-0.3,0.2v0.2l-0.1,0.4l-0.1,0.4l-0.1,0.3l0.1,0.4
		l0.1,0.1l0.5,0.4l0.1,0.2l0.2,0.3l0.1,0.1l-0.1,0.2l-0.4,0.2v0.1v0.3l0.1,0.2l0.1,0.2v0.2l-0.1,0.1h-0.2l-0.7-0.1l-0.1-0.1
		l-0.1,0.3l-0.1,0.4l-0.1,1.9l-0.1,0.1H611h-0.3l-0.3,0.1v0.2l0.2,0.3l0.1,0.2l-0.3,0.3l-0.4-0.1l-0.4-0.1l-0.3,0.1l-0.3,0.5
		l0.3,0.4l0.4,0.2l0.1,0.4l-0.3,0.3h-0.4H609l-0.4-0.2l-0.1-0.1V161v-0.1l0.1-0.1v-0.1l-0.1-0.1l-0.1-0.1l-0.1-0.1l-0.2,0.1
		l-0.3,0.1h-0.1h-0.2l-0.2-0.1l-0.4-0.3l-0.1-0.1l-0.1-0.1l-0.2-0.5v-0.1l-0.2-0.2l-1-0.8l-0.3-0.3v-0.2l-0.1-0.1v-0.3l-0.1-0.1
		l-0.1-0.2l-0.1-0.1l-0.1-0.1l-0.1-0.1l-1.6-1l-0.4-0.5l-0.3-0.4l-0.1-0.1l-0.1-0.1l-0.2-0.1h-0.2h-0.2h-0.2l-0.1-0.1l-0.2-0.1
		l-0.5-0.7l-0.3-0.3l-0.1-0.1l-0.1-0.1l-0.8-0.4l-0.3-0.1l-0.2-0.2l-0.6-0.6l-0.2-0.4l-0.2-0.3l-0.5-0.6l-0.4-0.4l-0.6-0.4l-0.9-0.3
		l-0.7-0.3l-0.7-0.3l-0.2-0.1l-0.6-0.6l-0.2-0.2l-0.1-0.3h-0.1l-0.2-0.1l-0.2,0.1H592l-0.1,0.1l-0.1,0.1h-0.1v0.1l-0.2,0.2l-0.2,0.1
		l-0.2,0.1l-0.3,0.1l-0.4,0.2l-0.2,0.1L590,149h-0.2l-0.2-0.1l-0.5-0.2h-0.2h-0.1l-0.1,0.1h-0.1h-0.2l-0.1-0.2l-0.2-0.2l-0.4-0.5
		l-0.1-0.3v-0.1l0.1-0.1v-0.2l-0.1-0.1l-0.3-0.4l-0.1-0.2l-0.1-0.2v-0.6v-0.3v-0.1l-0.2-0.1l-0.2-0.2l-0.4-0.2l-0.3-0.1h-0.2h-0.4
		h-0.1h-0.1l-0.5-0.2h-0.1h-0.2l-0.3,0.1h-0.2l-0.2-0.1l-0.4-0.3l-0.5-0.2h-0.1h-0.1l-0.2,0.1h-0.2h-0.1H582l-0.1-0.1l-0.1-0.2v-0.2
		v-0.3v-0.6l-0.1-1.5h-0.4h-0.1l-0.1-0.1l-1.4-2l-0.9-0.8l-0.3-0.2l-0.4-0.2l-0.2-0.1v-0.1l-0.1-0.2v-0.1v-0.3V137v-0.1l-0.1-0.2
		l-0.2-0.1l-0.7-0.4l-0.6-0.3l-0.1-0.1l-0.1-0.1l-0.2-0.4l-0.1-0.1l-0.1-0.1l-0.3-0.1l-0.6-0.1l-0.1-0.1l-0.1-0.1l-0.1-0.1l-0.1-0.2
		v-0.2l-0.1-0.2h-0.1l-0.2-0.1l-0.3-0.1h-0.2l-0.2-0.1l-0.2-0.2l-0.2-0.1h-0.2h-0.2l-0.1-0.1h-0.1l-0.2-0.2h-0.2l-0.2,0.2h-0.1h-0.1
		l-0.2-0.1l-0.1-0.2l-0.1-0.2v-0.1v-0.2v-0.1v-0.1l-0.1-0.2l-0.4-0.5l-0.1-0.2l-0.1-0.1l-0.1-0.3v-0.1v-0.1l-0.2-0.3v-0.2v-0.1h0.1
		l0.1-0.1V130v-0.1v-0.1l-0.1-0.2l-0.1-0.2v-0.1h-0.1l-0.3-0.1l-0.5-0.1h-0.2l-0.1-0.1v-0.3l-0.1-0.1v-0.2v-0.1l-0.1-0.2l-0.7-0.3
		l-0.1-0.1l-0.1-0.2v-0.1l0.2-0.1v-0.1l-0.1-0.2l-0.2-0.4l-0.1-0.3l-0.1-0.1l-0.2-0.1l-0.5-0.2l-0.2-0.3l-0.4-0.3l-0.2-0.3l-0.3-0.5
		l-0.3-0.3l-0.2-0.3l-0.2-0.6l-0.3-0.4v-0.1l-0.2-0.2l-0.3-0.1h-0.2h-0.2l-0.2,0.1h-0.1l-0.2-0.1l-0.4-0.3l-0.2-0.1l-0.1-0.1
		l-0.8-0.2l-0.1-0.1l-0.2-0.1l-0.2-0.3l-0.2-0.1l-0.6-0.4l-0.2-0.1l-1.2-0.8l-0.6-0.2l-0.2-0.1l-0.7-0.7l-0.5-0.5h-0.1l-0.3-0.1
		l-0.2-0.2l-2.9-2.5h-0.1h-0.1h-0.1l-0.2,0.1l-0.1,0.1l-0.1-0.1l-0.2-0.1l-0.4-0.4l-0.1-0.2v-0.1l-0.1-0.3v-0.2l0.1-0.1l0.1-0.2V114
		l-0.1-0.2l-0.8-1.2l-0.1-0.3v-0.2v-0.3v-0.1l-0.1-0.1l-0.3-0.1l-0.1-0.1l-0.6-0.8l-0.1-0.2l-0.1-0.1l-0.3-0.1l-0.8-0.3h-0.3h-1.1
		l-0.2-0.1l-0.4-0.1l-0.7-0.3H546h-0.2l-0.2,0.1h-0.1l-0.5-0.1l-0.1-0.1l-1-0.9l-0.3-0.4l-0.8-0.7l-0.2-0.3l-0.1-0.1v-0.2v-0.1
		l-0.1-0.2v-0.1h-0.1l-0.1-0.1H542h-0.1l-0.2,0.1l-0.2-0.1h-0.2l-0.3-0.1h-0.1l-0.1,0.1v0.1l-0.2-0.1l-0.1-0.2l-0.7-1.4l-0.1-0.2
		l-0.1-0.2l-0.1-0.2l-0.2-0.1l-0.5-0.3l-0.7-0.6l-0.1-0.1h-0.2h-0.3l-0.4-0.1l-0.8-0.2h-0.5l-0.1-0.1l-0.2-0.1l-0.7-0.6l-1-0.6
		l-0.1-0.2l-0.1-0.1l-0.1-0.2v-0.1h-0.1l-0.1-0.2l-0.3-0.2l-0.1-0.1l-0.2-0.1h-0.2l-1.6-0.3L526.5,98L526.5,98z"/>
	<path id="ARN" class="st0" d="M665.6,190.8l-0.1-0.1l-1.6-1.1l-0.7-0.6l-0.3-0.4l-0.1-0.2l-0.1-0.3l-0.1-0.2v-0.5l-0.1-0.3
		l-0.2-0.3l-0.2-0.3l-0.7-0.7l-0.2-0.3l-0.1-0.3l-0.1-1.1l-0.1-1.7l-0.2-0.8l-0.3-0.8l-3-6.2v-0.3v-0.5v-0.3l0.1-0.3l0.3-0.7v-0.1
		l0.1-0.2l0.6-0.4h0.1l0.5-0.1h0.5l0.4,0.2l0.3,0.4l0.3,0.9l0.2,0.2l0.2,0.2l0.6,0.1l1.2,0.7l0.8-0.6l0.8-0.9l0.5-0.4l0.6-0.1
		l0.4-0.3l0.3-0.4l0.2-0.5l0.1-0.3l-0.1-0.2v-0.2l0.3-0.5v-0.2v-0.3l-0.1-0.2l-0.5-1V168l0.5-0.2l0.4-0.2l0.1-0.4l0.1-0.5l0.2-0.3
		l0.4-0.1l0.6,0.1l0.5-0.1l0.2-0.3l0.1-1.1l0.1-0.5l0.3-0.4l0.3-0.4l0.4-0.2l0.4-0.2l1-0.1l1-0.6h0.5l0.4,0.2l0.4,0.2l0.3,0.1
		l0.8,0.1l0.5-0.1l0.3-0.3l0.1-0.5l-0.3-0.9l0.2-0.4l1.3-1.4l0.4-0.1l1-0.1l0.4-0.2l0.3-0.3l0.2-0.4l0.1-0.4l0.3-1l0.2-0.5l0.4-0.3
		l0.5-0.2h0.9l0.2,0.1v0.2h0.2l0.2-0.1l0.3-0.4l0.1-0.5l0.1-0.6v-0.5v-0.4l-0.1-0.3l-0.1-0.4l0.2-0.4l0.3-0.4l0.6-0.4l0.7-0.8
		l0.1-0.3l0.1-0.4l0.2-1.4l0.1-0.1v-0.1l0.3-0.8v-1v-0.5v-0.1l0.2-0.3l0.2-0.4l0.2-0.2l-0.1-0.3l-0.4-0.5l-0.1-0.3l0.5-1.5v-0.5
		l-0.2-0.8l-0.1-0.7l-0.1-0.2v-0.2l0.1-0.3l0.2-0.1h0.5l0.1-0.1l0.2-0.3v-0.4l-0.2-1.1l0.2-0.3l0.2-0.4l0.2-0.4v-0.5l-0.1-0.3
		l-0.5-0.6l-0.1-0.3l-0.1-0.5l-0.3-1.2v-0.6l0.2-0.2l0.7,0.1l0.3-0.2l-0.1-0.5l-0.3-0.8l0.1-0.4l0.8-0.1l0.3,0.1l0.1,0.3v0.4
		l0.2,0.2l0.4-0.1l0.4,0.1l0.4,0.3l0.3,0.4v0.5v0.2l0.1,0.2l0.1,0.2l0.2-0.1l0.1-0.2l-0.1-0.5v-0.2l0.2-0.2l0.3-0.3l0.2-0.1V132
		v-0.3v-0.2l0.2-0.2l0.2-0.1h0.2l0.3,0.2l0.2-0.1l0.4-0.5l0.2-0.1l0.5-0.1l0.3,0.1l0.2,0.3l0.2,0.5l0.2,0.2l0.1-0.1l0.1-0.4h0.2h0.1
		l0.4,0.1h0.5l-0.1-0.4l-0.5-0.8h0.2h0.2l0.4,0.1h0.3l0.2-0.1l0.5-0.7l0.2-0.1h0.1h0.1l0.1,0.1l-0.1,0.5l-0.2,0.3l-0.1,0.4v0.5
		l0.2,0.2l0.1,0.2l0.2,0.2h0.2l0.1-0.2v-0.2V131l-0.1-0.2l0.2-0.2l0.2,0.1l0.3,0.4l0.3-0.1l0.1-0.1h0.2h0.2l0.4,0.2l0.3,0.4l0.1,0.4
		l0.1,0.5l0.2,0.5h0.4l0.8-0.5l0.2,0.2l0.2,0.5l0.3,0.9l-0.1,0.2l-0.1,0.1v0.2v0.3l0.1,0.3l0.4,0.4l0.2,0.2l0.2,0.4l0.1,0.4
		l-0.1,1.4l0.2,1.2v0.3l-0.1,0.2v0.2v0.3l0.2,0.2l0.7,0.6l0.6,0.7l0.2,0.7l0.1,0.7l0.3,0.8l1,1.5l0.4,0.7l0.1,0.9l-0.2,0.8l-0.9,1.2
		l-0.2,0.7l0.2,2.2v0.7l-0.3,0.2l-0.1,0.2l-0.1,0.2l0.1,0.2v0.2l0.1,0.2v-0.1v0.4l-0.3,0.8v0.4l0.1,0.9v0.4l-0.1,0.5l-0.2,0.1h-0.2
		l-0.2,0.1v0.2l0.1,0.3l0.1,0.2h0.2l0.1,0.1v0.2l-0.1,0.4v0.2h0.1l0.2,0.1h0.1l0.2,0.9l0.3,1.3l-0.1,0.8l-0.2,0.8l-0.9,1.9l-0.1,0.2
		l-0.2,0.1h-0.3l-0.1,0.1l-0.1,0.3l0.1,0.6l-0.1,0.4l-0.1,0.1l-0.3,0.2l-0.1,0.1v0.2l0.2,0.2v0.2l-0.2,0.4l-0.2,0.2l-0.2-0.2
		l-0.2-0.4l-0.2-0.3l-0.3-0.1l-0.1,0.1l-0.2,0.8l-0.2,0.2l-0.4-0.1l-0.2-0.2l-0.3-0.2l-0.3,0.2v0.3l0.1,0.3v0.2l-0.4,0.1h-0.2
		l-0.1-0.1l-0.1-0.1h-0.1l-0.1,0.2l-0.2,0.4l-1.5,1.7l-0.8,0.1l-0.6-0.2l0.1-0.5l-0.2-0.2l-0.3-0.2l-0.2,0.4l-0.6,1.6l-0.1,0.2
		l-0.1,0.2l-0.1,0.2v0.4v0.2l-0.2,0.1H694l-0.2,0.1l-0.1,0.2l-0.1,0.2l-0.1,0.3l-0.1,0.2h-0.2l-0.4,0.1l-0.3-0.3l-0.2-0.3l-0.3-0.2
		v0.7v0.2l-0.1,0.3l-0.2,0.1l-0.2,0.1l-0.1-0.2l-0.1-0.6l-0.2-0.3h-0.3H690l-0.4,0.1v0.2l0.3,0.6v0.3l-0.4,0.2l-1.4,0.4h-0.2
		l-0.2-0.1l-0.1-0.1l-0.2-0.4v-0.1h-0.2l-0.1-0.1H687l-0.2,0.2l-0.1,0.2l-0.1,0.2l-0.2,0.4l-0.2,0.5l-0.3,0.2h-0.2l-0.1-0.4
		l-0.1-0.1h-0.1l-0.2,0.1v0.3v0.3v0.2l-0.1,0.1l-0.2,0.1l-0.2,0.1l-0.5-0.1H684l-0.8,0.3H683v-0.1l-0.1-0.1l-0.1-0.1v-0.1l0.1-0.2
		v-0.1l-0.1-0.2h-0.3l-0.3,0.3l-0.1,0.2l-0.2,0.4v0.6l-0.2,0.5l-0.4,0.2h-0.5l-0.2,0.1v0.9l-0.1,1l-0.1,0.5l-0.1,0.3l-0.4,0.1
		l-1.1,1l-0.5,0.1l-0.4-0.2l-0.3-0.2h-0.5l-0.3,0.1l0.2,0.4l0.6,0.6l0.3,0.5v0.2h-0.4l-0.4-0.2h-0.2l-0.5,0.1h-0.2v0.2l-0.2,0.6
		l-0.4-0.1l-0.5-0.4l-0.3-0.1l-0.4,0.2l-0.3,0.3l-0.3,0.4l-0.7,0.6l-0.2,0.1h-0.2l-0.5-0.2H672l-0.4,0.3v0.5l-0.1,0.4l-0.5,0.1h-0.2
		l-0.1,0.1l-0.1,0.1v0.2v0.5l-0.1,0.2l-0.1,0.2l-0.9,1.1l-0.1,0.2l-0.5,0.1h-0.3h-0.1l-0.1-0.2h-0.1l-0.3,0.1l-0.1,0.1l-0.2,0.5
		l-0.1,0.1l-0.3,0.2l-0.1,0.1l-0.1,0.2v0.2l-0.1,0.1l-0.2,0.1l-0.3-0.1v-0.2v-0.2l-0.1-0.1l-0.4-0.1l-0.3,0.3L665.6,190.8
		L665.6,190.8z"/>
	<path id="ARH" class="st0" d="M504.5,133.1l6.4-8.2l15.7-20.5l-0.1-6.4l4.4,1.7l1.6,0.3h0.2l0.2,0.1l0.1,0.1l0.3,0.2l0.1,0.2h0.1
		v0.1l0.1,0.2l0.1,0.1l0.1,0.2l1,0.6l0.7,0.6l0.2,0.1l0.1,0.1h0.5l0.8,0.2l0.4,0.1h0.3h0.2l0.1,0.1l0.7,0.6l0.5,0.3l0.2,0.1l0.1,0.2
		l0.1,0.2l0.1,0.2l0.7,1.4l0.1,0.2l0.2,0.1v-0.1l0.1-0.1h0.1l0.3,0.1h0.2l0.2,0.1l0.2-0.1h0.1h0.2l0.1,0.1h0.1v0.1l0.1,0.2v0.1v0.2
		l0.1,0.1l0.2,0.3l0.8,0.7l0.3,0.4l1,0.9l0.1,0.1l0.5,0.1h0.1l0.2-0.1h0.2h0.1l0.7,0.3l0.4,0.1l0.2,0.1h1.1h0.3l0.8,0.3l0.3,0.1
		l0.1,0.1l0.1,0.2l0.6,0.8l0.1,0.1l0.3,0.1l0.1,0.1v0.1v0.3v0.2l0.1,0.3l0.8,1.2l0.1,0.2v0.1l-0.1,0.2l-0.1,0.1v0.2l0.1,0.3v0.1
		l0.1,0.2l0.4,0.4l0.2,0.1l0.1,0.1l0.1-0.1l0.2-0.1h0.1h0.1h0.1l2.9,2.5l0.2,0.2l0.3,0.1h0.1l0.5,0.5l0.7,0.7l0.2,0.1l0.6,0.2
		l1.2,0.8l0.2,0.1l0.6,0.4l0.2,0.1l0.2,0.3l0.2,0.1l0.1,0.1l0.8,0.2l0.1,0.1l0.2,0.1l0.4,0.3l0.2,0.1h0.1l0.2-0.1h0.2h0.2l0.3,0.1
		l0.2,0.2v0.1l0.3,0.4l0.2,0.6l0.2,0.3l0.3,0.3l0.3,0.5l0.2,0.3l0.4,0.3l0.2,0.3l0.5,0.2l0.2,0.1l0.1,0.1l0.1,0.3l0.2,0.4l0.1,0.2
		v0.1l-0.2,0.1v0.1l0.1,0.2l0.1,0.1l0.7,0.3l0.1,0.2v0.1v0.2l0.1,0.1v0.3l0.1,0.1h0.2l0.5,0.1l0.3,0.1h0.1v0.1l0.1,0.2l0.1,0.2v0.1
		v0.1v0.1l-0.1,0.1H570v0.1v0.2l0.2,0.3v0.1v0.1l0.1,0.3l0.1,0.1l0.1,0.2l0.4,0.5l0.1,0.2v0.1v0.1v0.2v0.1l0.1,0.2l0.1,0.2l0.2,0.1
		h0.1h0.1l0.2-0.2h0.2l0.2,0.2h0.1l0.1,0.1h0.2h0.2l0.2,0.1l0.2,0.2l0.2,0.1h0.2l0.3,0.1l0.2,0.1h0.1l0.1,0.2v0.2l0.1,0.2l0.1,0.1
		l0.1,0.1l0.1,0.1l0.6,0.1l0.3,0.1l0.1,0.1l0.1,0.1l0.2,0.4l0.1,0.1l0.1,0.1l0.6,0.3l0.7,0.4l0.2,0.1l0.1,0.2v0.1v0.1v0.3v0.1
		l0.1,0.2v0.1l0.2,0.1l0.4,0.2l0.3,0.2l0.9,0.8l1.4,2l0.1,0.1h0.1h0.4l0.1,1.5v0.6v0.3v0.2l0.1,0.2l0.1,0.1h0.1h0.1h0.2l0.2-0.1h0.1
		h0.1l0.5,0.2l0.4,0.3l0.2,0.1h0.2l0.3-0.1h0.2h0.1l0.5,0.2h0.1h0.1h0.4h0.2l0.3,0.1l0.4,0.2l0.2,0.2l0.2,0.1v0.1v0.3v0.6l0.1,0.2
		l0.1,0.2l0.3,0.4l0.1,0.1v0.2l-0.1,0.1v0.1l0.1,0.3l0.4,0.5l0.2,0.2l0.1,0.2h0.2h0.1l0.1-0.1h0.1h0.2l0.5,0.2l0.2,0.1h0.2l0.2-0.1
		l0.2-0.1l0.4-0.2l0.3-0.1l0.2-0.1l0.2-0.1l0.2-0.2V148h0.1l0.1-0.1l0.1-0.1h0.1l0.2-0.1l0.2,0.1h0.1l0.1,0.3l0.2,0.2l0.6,0.6
		l0.2,0.1l0.7,0.3l0.7,0.3l0.9,0.3l0.6,0.4l0.4,0.4l0.5,0.6l0.2,0.3l0.2,0.4l0.6,0.6l0.2,0.2l0.3,0.1l0.8,0.4l0.1,0.1l0.1,0.1
		l0.3,0.3l0.5,0.7l0.2,0.1l0.1,0.1h0.2h0.2h0.2l0.2,0.1l0.1,0.1l0.1,0.1l0.3,0.4l0.4,0.5l1.6,1l0.1,0.1l0.1,0.1l0.1,0.1l0.1,0.2
		l0.1,0.1v0.3l0.1,0.1v0.2l0.3,0.3l1,0.8l0.2,0.2v0.1l0.2,0.5l0.1,0.1l0.1,0.1l0.4,0.3l0.2,0.1h0.2h0.1l0.3-0.1l0.2-0.1l0.1,0.1
		l0.1,0.1l0.1,0.1v0.1l-0.1,0.1v0.1v0.1l0.1,0.1l0.4,0.2h0.1l-0.5,0.1l-0.2,0.2l-0.2,0.3l-0.5,0.2l-0.9,0.2l-0.3,0.2l-0.2,0.3
		l0.1,0.3l0.3,0.3l-0.2,0.3l-0.4,0.5l-0.1,0.3l-0.1,0.2l-0.1,0.2v0.4l-0.1,0.1l-0.1-0.1l-0.2-0.1v-0.1V165l-0.2-0.1L605,165
		l-0.1,0.2l-0.1,0.2v0.1l-0.1,0.2v0.5v0.3l-0.1,0.3l-1,0.1l-0.5,0.3l-0.3,0.5l-0.1,0.7l0.1,0.3l0.3,0.3l0.5,0.3l0.3,0.5v0.5
		l-0.1,1.1l-0.2,0.1l-0.6,0.1l-0.2,0.2l-0.8,0.6l-1.5,1l-0.1,0.1l-0.1,0.2l-2.2,1.5H598l-0.1,0.9v0.4l0.1,0.4l0.2,0.4l0.5,1l0.4,0.8
		l0.2,0.8l0.1,0.9l0.1,0.9l-0.1,0.4l-0.4,1.2l-0.1,0.4v0.4v0.9v0.5l-0.5,1.9h-15.1h-9.2l-14.6,0.1l-20-0.1V183v-23.7v-12.4v-2.6
		l-0.3-9.3l-0.6-1.9L504.5,133.1L504.5,133.1z"/>
	<path id="ARW" class="st0" d="M620.3,252.7h-0.2l-1.1-0.9l-2.4-2.5l-0.2-0.4l-0.8-1.6l-0.2-0.5l-0.1-1.1l-0.1-0.4l-0.3-0.4
		l-0.9-0.8l-1.2-1.2l-0.5-0.6l-0.3-0.5l-0.2-0.5v-0.2l-0.2-0.3l-0.7-0.5l-4-1.1H606h-0.5l-0.2-0.1l-0.1-0.1l-0.5-0.4l-0.2-0.1
		l-0.3-0.1h-0.3h-0.6l-2.6,1.1l-0.4,0.2l-0.4,0.2l-1.7,0.3H598l-0.6-0.1l-1.2-0.3l-0.7-0.1l-0.3,0.1l-0.5,0.3l-1.1,0.7l-0.8,0.7
		l-0.2,0.3l-0.4,0.3l-1.6,0.9l-1.9-0.7l-1.1-0.2l-1.4,0.3H586l-0.5-0.2h-0.1h-0.1h-0.1l-1.3,0.6h-0.3l-1.7,0.1l-0.1-1.1v-0.4
		l0.4-1.2l0.1-0.5v-0.9l0.1-0.4l0.2-0.4l0.6-1.2l0.1-0.4V236l-0.1-0.9l-0.6-2l-0.7-1.2l-0.2-0.8l0.2-0.6l0.6-1.3l0.1-0.4l0.8-3.2
		v-4.9l0.2-0.7l0.7-2.9l0.3-0.6l0.4-0.6l0.6-0.4l0.6-0.4l2-0.7l0.6-0.5l0.6-0.5l0.6-0.5l0.9-0.5l0.3-0.3l0.3-0.6l0.1-0.8v-1.6h0.1
		l0.2-0.4l0.4-0.8l0.2-0.5v-0.6l0.2-0.8v-0.2v-0.2v-0.2V205l0.1-0.4l0.8-1.6l0.1-0.4l0.1-0.4l0.1-0.5l-0.1-1.8l0.5-3l-0.1-0.4
		l-0.4-1.1l-0.1-0.4l0.2-1.3v-0.5l-0.1-0.8v-0.5v-0.4l0.1-0.4l0.2-0.4l0.3-0.2l0.4-0.2l0.4-0.1h0.8l0.7-0.1l0.6-0.5l0.5-0.5l0.4-0.7
		l0.2-1l0.5-1.9V185v-0.9v-0.4l0.1-0.4l0.4-1.2l0.1-0.4l-0.1-0.9l-0.1-0.9l-0.2-0.8l-0.4-0.8l-0.5-1l-0.2-0.4l-0.1-0.4v-0.4l0.1-0.9
		h0.1l2.2-1.5l0.1-0.2l0.1-0.1l1.5-1l0.8-0.6l0.2-0.2l0.6-0.1l0.2-0.1h0.1l1.9-0.9l5.6-0.4l2.3,0.2h0.3l1.2-0.2h0.7l0.4,0.1l1.2,0.3
		l0.6,0.2l0.3,0.1l0.9,0.2h0.1l0.8,0.3l2.2,0.4l0.2,0.1l3.4,1.8l0.3,0.1h0.1l0.6,0.1l2-0.3h0.6h0.1l0.4,0.1l0.2,0.1l0.3,0.4l0.2,0.1
		l0.2,0.1l0.2,0.1l0.9,0.2v0.1l0.3,0.1l0.5,0.4l0.2,0.1l0.2,0.1h0.5l0.2,0.1h0.8l0.7-0.2l2-1.1l0.8-0.3l0.7-0.1l0.8,0.3l1.2,1.3
		l0.8,0.5l0.8-0.2l1-0.8l1-0.3l0.5-0.1l1.3,0.2l0.9,1l0.4,0.7l0.5,0.6l0.6,0.5l0.7,0.2l0.7-0.1l0.3-0.6l0.3-0.7l0.4-0.6l0.4-0.4
		l0.3-0.5v-0.5v-0.7l0.1-0.5l0.4-0.2l0.6-0.2l0.5-0.2l0.8-0.9l0.4-0.3l0.5-0.3l0.5,0.1l0.5,0.1l1.4,0.5l0.5,0.1h0.4l-0.6,0.4
		l-0.1,0.2v0.1l-0.3,0.7l-0.1,0.3v0.3v0.5v0.3l3,6.2l0.3,0.8l0.2,0.8l0.1,1.7l0.1,1.1l0.1,0.3l0.2,0.3l0.7,0.7l0.2,0.3l0.2,0.3
		l0.1,0.3v0.5l0.1,0.2l0.1,0.3l0.1,0.2l0.3,0.4l0.7,0.6l1.6,1.1l0.1,0.1v0.1l-0.2,0.2l-0.2,0.1l-0.9,0.8l-1.3,0.5l-0.5,0.4l0.1,0.6
		l0.2,0.2l0.9,0.3l0.3,0.1l0.2,0.1l0.3,0.3l0.2,0.6l-0.3,1.1l-0.1,0.3l-0.2,0.3l-0.2,0.2l-0.2-0.1l-0.1-0.4l-0.3-0.5l-0.8-0.2
		l-0.8-0.1l-0.7-0.1l-0.9,0.4l-0.4,0.3l0.1,0.5l0.1,0.2v1.1v0.2l-0.1,0.1l-0.2,0.1l-0.2,0.1h-0.6l-0.6,0.3l-0.7,0.2l-0.2,0.3v0.4
		v0.5v0.9l-0.4,0.5l-1.3,1l-1.7,2.2l-0.7,0.5l-0.9,0.2l-0.5,0.2l-0.1,0.4l-0.2,2l-0.4,0.8l-1.4,0.9l-0.4,0.9l-0.1,0.9v0.5l-0.3,0.4
		l-0.3,0.2l-1.5,0.4l-0.7,0.4l-0.7,0.5l-0.7,0.7l-0.6,0.8l-0.1,0.3l-0.1,0.4v0.3l0.1,0.3l-0.2,0.5l-0.4,1l-0.2,0.4l-0.3,0.3
		l-0.3,0.2l-0.7,0.4l-0.2,0.1l-0.2,0.2l-0.1,0.2l-0.1,0.2v0.2v0.3l-0.1,0.2l-0.3,0.2l-0.2,0.2l-0.1,0.3v0.3l-0.1,0.2l-1.6,1.4
		L639,224l-0.1,0.2l-0.8,0.7l-0.3,0.4l-0.3,0.8l-0.6,0.6l-0.1,0.3l-0.2,0.2l-1.5,1.7l-0.4,0.3l-0.4,0.1l-0.9,0.1l-0.9,0.1l-0.9,0.3
		l-0.6,0.6l-0.3,0.8l-0.2,2.8l-0.2,0.3l-1.8,1.4l-1.9,2.5l-0.9,0.7l-0.4,0.1l-0.9,0.2h-0.5l-0.2,0.2l0.1,0.5l0.3,1.1l-0.1,0.9
		l-0.5,0.8l-4,3.7l-0.6,0.7l-0.3,0.9l0.1,0.9l0.5,1l0.3,0.4l0.4,1l0.2,0.6L620.3,252.7L620.3,252.7z"/>
	<path id="ARK" class="st0" d="M398.9,121.6l0.3,0.1l14,2.8l25-0.4l0.7,0.1h0.1l0.1,0.1l0.1,0.1l0.1,0.1l0.2,0.5l0.1,0.2l0.2,1.7
		v0.1l0.1,0.3v0.1l0.3,0.4l0.4,0.5l0.2,0.3l0.1,0.2v0.2v0.1v0.3l-0.5,1.8v0.2v0.2v0.2v0.1l-0.1,0.2l-0.3,0.3l-1,0.8l-0.2,0.1h-0.1
		h-0.2h-0.9l-0.8,0.1h-1.4l-0.1,0.1h-0.1l-0.1,0.1l-0.4,0.4l-0.3,0.2l-0.1,0.1l-0.2,0.1l-0.2,0.2v0.1l-0.1,0.2v0.2l-0.1,0.6v0.9
		l0.3,1.1l0.5,0.8l1.6,2.5l1.7,2.2l0.3,1l0.2,0.2l0.5,0.6l0.8,1.9l0.4,0.5l1.3,1.6l0.7,0.6l0.1,0.2h0.2l0.1,0.1h0.1h0.2l0.1-0.1
		l0.2-0.2l0.1-0.1l0.1-0.1l1-2.4l0.2-0.4l0.2-0.2l0.6-0.4l0.4-0.7l0.2-0.3l0.2-0.1l0.3-0.2h0.4h0.3l0.4,0.1l0.3,0.2l0.4,0.7l0.6,0.6
		l0.8,0.5l-0.1,0.5l-0.2,0.1l-0.2,0.3l-0.3,0.3l-0.1,0.3l-0.1,0.5v0.4l-0.1,0.5l-0.1,0.6l-0.5,1l-0.4,1.1v0.4v0.2l0.1,0.3l0.3,0.5
		l0.3,0.2l0.5,0.2h0.4l0.5,0.2l0.5,0.2l0.3,0.2l0.7,0.7l1.4,1.1l0.9,0.5l0.1,0.1h0.1l0.1,0.2v0.1l0.1,0.1v0.2v0.2v0.3v0.2l-0.3,1.4
		v0.3v1.3v0.3l-0.1,0.3l-0.2,0.6l-0.6,0.9l-1.4,1.5l-0.7,0.7l-0.5,0.7l-0.4,0.7l-0.1,0.3l-0.1,0.2l-0.1,0.1l-0.1,0.2l-0.4,0.5
		l-0.5,0.4l-0.6,0.7l-0.4,0.9l-0.5,0.8l-0.1,0.1v0.1l0.1,0.1l0.2,0.2l0.4,0.1l0.4,0.1l0.7,0.1l0.3,0.1l1.5,0.9l0.6,0.1h0.1h0.1
		l0.1,0.2v0.1l-0.2,0.6l0.7,3.4l0.3,0.6l0.1,1l0.1,0.2l0.1,0.2l0.1,0.1l0.3,0.3l0.2,0.1l0.3,0.2l0.1,0.1l0.1,0.3l0.3,0.9v0.5
		l0.1,0.3l0.2,0.2l0.1,0.1l0.4,0.3l0.5-0.2l0.2-0.1l0.2-0.1h0.4l0.9,0.5l0.2,0.2l0.1,0.1l0.2,0.7l0.2,1.2l0.3,0.9l0.2,0.3l1.7,2.2
		l0.3,0.1l0.1-0.2l0.5-1.1l0.5-0.8l0.2-0.1l0.7-0.5l0.6-0.7l1.7-1.1h0.2h0.2l0.3,0.2l0.3,0.2l0.4,0.4l0.4,0.3l0.4,0.2l0.3,0.1h0.3
		h0.4l0.6-0.3l1.8,8.6l0.2,3.5l-0.2,1.3l-0.2,0.6l-0.3,0.4l-0.5,0.5l-0.3,0.5l-0.2,0.5l-0.1,0.1l-0.4,0.2l-0.1,0.1v0.2v0.8l0.1,0.1
		v0.1l0.1,0.1h0.2l0.8,0.5l0.4,0.4l0.1,0.1l0.1,0.1v0.4l0.4,4.6l-0.1,2l0.9,6.9l0.9,2.2l1.4,2.4l0.2,0.5v0.1l0.2,0.5l0.5,0.6
		l-1.4,0.5l-0.2,0.8l0.6,5.5l-0.1,0.5l-0.2,0.4l-2.2,2.5l-1.8,1.9l-1,0.6l-4.5,1.2l-3.4-7.1l-0.8-2.2l-1.2-2.7l-1.4-3.2L456,222
		l-0.2-1.4v-0.3v-0.5v-1.1l-0.1-0.2l-0.1-0.4l-0.7-1.2l-3.6-3.7l-0.2-0.1l-0.5-0.2l-2.5-2.6l-0.9-0.6l-3.5-1.7l-0.4-0.3l-0.2-0.2
		l-0.3-0.4V207v-0.2v-0.1l0.2-0.3l0.1-0.2l0.2-0.2l0.4-0.7v-0.1v-0.1v-0.2v-0.2l-0.3-0.2l-0.5-0.2h-0.1l-0.4-0.3l-0.6-0.7l-0.8-1
		l-0.2-0.4l-0.2-1.9l-0.2-0.8l-0.1-0.2l-0.1-0.1l-0.1-0.2l-0.2-0.3l-0.7-0.5l-0.7-1l-4-1.7l-4.1-1.5h-0.6l-0.5,0.3l-0.2,0.1
		l-0.2,0.1v0.1h-0.1l-0.1,0.2v0.1l-0.1,0.1l-0.4,0.4l-0.1,0.2l-0.2,0.1l-0.3,0.1l-1.5,0.3h-1.6l-9.2-0.4l-1.3,0.3l-0.3,0.2l-0.5,0.5
		h-0.3l-0.2-0.3l-0.1-0.2l-0.1-0.4v-0.1v-0.1l-0.2-0.2l-0.3-0.3l-1-1.4v-0.1l-0.2-0.8l-0.1-1l-0.1-0.3V191l0.1-0.4v-0.2l-0.1-0.1
		l-0.1-0.1h-0.2H410l-0.2,0.1l-0.3,0.1l-0.2,0.1H409h-0.1l-0.4,0.1l-0.4,0.2l-0.4,0.2l-0.2,0.1l-0.2-0.1h-0.2l-0.2-0.2l-0.3-0.3
		v-0.1l-0.2-0.3l-0.2-0.1l-0.1-0.1l-0.2-0.1l-0.9-0.3h-0.6h-0.6h-0.2l-0.1-0.1h-0.2l-0.2-0.2l-0.2-0.3l-0.2-0.4l-0.3-0.3l-0.2-0.2
		l-0.2-0.1l-0.1-0.1h-0.2l-0.4-0.1h-0.4h-0.2h-0.2l-0.1-0.1l-0.3-0.2H400v-0.2v-0.1v-0.2v-0.3l0.3-1.2v-0.1v-0.1V185v-0.1l-0.3-0.4
		v-0.1l-0.1-0.2v-0.3l0.1-0.3v-0.1l0.3-1.1l0.1-0.3v-0.2l-0.1-0.1v-0.1v-0.1l-0.1-0.1l-0.1-0.1l-0.3-0.1l-0.9-0.1l-0.2,0.1l-0.3,0.1
		l-0.2,0.2l-0.2,0.1l-0.1,0.2h-0.1l-0.4,0.2h-0.1h-0.2l-0.3-0.1l-0.2-0.1l-0.5-0.2l-0.1-0.1h-0.2h-0.2l-0.5,0.1l-1.5,0.2l-0.2,0.1
		l-0.4,0.2l-1.4,0.4l-5.6-0.5h-0.3l0.2-0.9l0.2-0.3l0.2-0.1l0.5-0.3l0.1-0.2V180l-0.2-0.3l-0.1-0.3V179l0.1-0.3l0.5-0.4l0.2-0.3
		l0.5-1.1l0.2-0.6l0.1-0.6l-0.1-0.3v-0.3v-0.3l0.2-0.3l0.3-0.2l0.8-0.4l0.3-0.3l0.2-0.3l1-2.4l0.1-0.3v-1v-0.4l0.2-0.5l0.9-1.5
		l0.3-0.3l0.2-0.2l0.8-0.2l0.9,0.1l0.8,0.4l0.7,0.6l0.8,0.3h0.5l0.2-0.4l0.1-0.4l0.3-0.5l0.3-0.4l0.5-0.3l0.5-0.2l1-0.1l0.5-0.1
		l0.9-0.4h0.2h0.6h0.2v-0.2v-0.5v-0.3l0.1-0.5l0.4-0.8l0.1-0.4l-0.1-0.7l-0.3-0.6l-3.9-5.6l-0.7-1l-0.6-0.9l-0.3-0.9l-0.2-1.2v-1.8
		l0.2-1l0.2-0.8l0.6-0.8l2.6-2l0.3-0.8l-0.2-1.2l-1.5-5.9l-0.2-1.9l-0.2-0.6l-0.3-0.6l-0.4-0.4l-0.4-0.5v-0.7v-0.6l-0.2-0.5l0.3-0.3
		l-0.2-0.5l-0.8-0.9l-0.1-0.4v-0.5l0.1-0.8l1-3.4l0.8-2.4L398.9,121.6L398.9,121.6z"/>
	<path id="ARF" class="st0" d="M385.7,182.1h0.3l5.6,0.5l1.4-0.4l0.4-0.2l0.2-0.1l1.5-0.2l0.5-0.1h0.2h0.2l0.1,0.1l0.5,0.2l0.2,0.1
		l0.3,0.1h0.2h0.1l0.4-0.2h0.1l0.1-0.2l0.2-0.1l0.2-0.2l0.3-0.1l0.2-0.1l0.9,0.1l0.3,0.1l0.1,0.1l0.1,0.1v0.1v0.1l0.1,0.1v0.2
		l-0.1,0.3l-0.3,1.1v0.1l-0.1,0.3v0.3l0.1,0.2v0.1l0.3,0.4v0.1v0.2v0.1v0.1l-0.3,1.2v0.3v0.2v0.1v0.2h0.1l0.3,0.2l0.1,0.1h0.2h0.2
		h0.4l0.4,0.1h0.2l0.1,0.1l0.2,0.1l0.2,0.2l0.3,0.3l0.2,0.4l0.2,0.3l0.2,0.2h0.2l0.1,0.1h0.2h0.6h0.6l0.9,0.3l0.2,0.1l0.1,0.1
		l0.2,0.1l0.2,0.3v0.1l0.3,0.3l0.2,0.2h0.2l0.2,0.1l0.2-0.1l0.4-0.2l0.4-0.2l0.4-0.1h0.1h0.3l0.2-0.1l0.3-0.1l0.2-0.1h0.3h0.2
		l0.1,0.1l0.1,0.1v0.2l-0.1,0.4v0.2l0.1,0.3l0.1,1l0.2,0.8v0.1l1,1.4l0.3,0.3l0.2,0.2v0.1v0.1l0.1,0.4l0.1,0.2l0.2,0.3h0.3l0.5-0.5
		l0.3-0.2l1.3-0.3l9.2,0.4h1.6l1.5-0.3l0.3-0.1l0.2-0.1l0.1-0.2l0.4-0.4l0.1-0.1v-0.1l0.1-0.2h0.1v-0.1l0.2-0.1l0.2-0.1l0.5-0.3h0.6
		l4.1,1.5l4,1.7l0.7,1l0.7,0.5l0.2,0.3l0.1,0.2l0.1,0.1l0.1,0.2l0.2,0.8l0.2,1.9l0.2,0.4l0.8,1l0.6,0.7l0.4,0.3h0.1l0.5,0.2l0.3,0.2
		v0.2v0.2v0.1v0.1l-0.4,0.7l-0.2,0.2l-0.1,0.2l-0.2,0.3v0.1v0.2v0.1l0.3,0.4l0.2,0.2l0.4,0.3l3.5,1.7l0.9,0.6l2.5,2.6l0.5,0.2
		l0.2,0.1l3.6,3.7l0.7,1.2l0.1,0.4l0.1,0.2v1.1v0.5v0.3l0.2,1.4l0.2,0.9l1.4,3.2l1.2,2.7l0.8,2.2l3.4,7.1l-1.7,5l-0.3,0.7l-0.4,0.7
		l-0.1,0.3l-0.3,0.9l-0.5,1.7l-0.2,0.7v0.4l-1.7,5.1l-0.4,1.2l-0.3,0.8l-1.4,4.1l-0.2,1.5v4.2l0.1,8.5v6.4l-2,0.4h-1l-0.4-0.1h-0.1
		l-0.2-0.1l-0.3-0.2l-0.1-0.1h-0.2l-1-0.2h-0.8l-1,0.2l-0.5,0.2l-0.8,0.5l-1.1,0.4l-1,0.1l-1-0.1h-0.3l-0.7,0.2h-0.2h-0.2l-0.5-0.3
		l-0.3-0.1l-0.2-0.1h-0.2l-1.1,0.2h-0.1l-0.5-0.3l-0.2-0.1l-0.1-0.1l-0.2,0.1l-0.4,0.2h-0.4h-0.2h-0.1l-0.2-0.1l-0.6-0.3l-0.5-0.2
		l-1.4-0.3l-0.5-1.5l-0.6-1l-0.2-0.2l-0.1-0.1l-0.2,0.1h-0.1l-0.2-0.1l-0.2-0.2l-0.1-0.1v-0.2v-0.7l-0.3-1v-0.2v-0.4l-0.1-0.3
		l-0.1-0.1l-0.1-0.1l-1.2-0.1l-0.3-0.1h-0.1l-0.2-0.2l-1.7-1.7l-0.2-0.2l-0.1-0.2v-0.3V270l-0.2-0.6L428,268l-0.2-0.6l0.9-6.6
		l-1.1-1l-0.1-0.8l0.8-2.5l-0.1-0.2v-0.1l-0.4-0.6l-0.3-0.6l-0.3-0.4l-0.2-0.4l-0.8-2l-0.2-0.3l-0.2-0.1l-0.1-0.1l-0.9-0.4l-0.2-0.1
		l-0.1-0.2l-0.6-0.8l-0.1-0.2l-1-1.6l-0.3-0.3l-0.2-0.2l-0.4-0.3l-0.9-0.7l-0.3-0.3l-0.1-0.2l-0.5-1.1l-0.1-0.1l-0.2-0.2l-1.3-0.8
		l-0.2-0.2l-0.1-0.1v-0.1l-0.1-0.3l-0.2-1l-0.3-0.5l-0.6-1.1l-0.2-0.2l-2.9-2.3l-0.2-0.2l-0.5-0.9l-0.2-0.1l-0.1-0.2l-1.1-0.4
		l-0.2-0.2L411,236l-0.3-0.3l-0.5-0.9l-0.2-0.1l-0.1-0.1l-0.8-0.5L409,234l-0.1-0.2l-0.2-0.4l-0.1-0.4l-1-1l-0.4-0.4l-1-0.2
		l-0.1-0.1l-0.1-0.1l-0.1-0.1V231l-0.1-0.3l-0.1-0.3l-0.2-0.2l-0.2-0.3l-1.2-0.8l-0.9-0.5l-0.3-0.4l-0.5-0.8l-0.1-0.1l-0.2-0.1h-0.6
		l-2.6-0.9h-0.6H398l-0.5,0.1h-0.3H397l-0.3-0.1h-0.2l-0.2-0.1l-1.1-0.8l-0.3-0.1h-0.2l-0.5,0.1l-0.6,0.1l-1.1,0.5h-0.1h-0.2h-0.3
		h-0.3l-0.6-0.3h-0.2h-0.2l-1.1,0.4H389l-0.8-0.3v-0.1l-0.1-0.2l-0.1-0.2v-0.7l0.1-1.2l0.1-0.3V223l0.3-0.5l0.3-0.4l0.1-0.1v-0.3
		v-0.2l-0.1-0.6l0.1-1.5l0.1-0.3l0.1-0.2h0.1h0.1l0.2-0.1l0.1-0.1l0.1-0.2v-0.1v-0.2l-0.1-0.1V218l-0.2-0.3l-0.2-0.5l-0.4-0.3
		l-0.3-0.4l-0.1-0.9v-1l0.1-0.8l0.6-0.9l0.1-0.2l0.3-0.2l0.2-0.1l0.3-0.1l0.2-0.1l0.2-0.4v-0.3v-0.2l-0.1-0.3l-0.1-0.1l-0.1-0.2
		l-0.1-0.1l-0.2-0.3l-0.5-0.4l-0.3-0.2l-0.1-0.3l-0.3-0.8l-0.2-0.8l-0.3-0.4l-0.3-0.4l-1.4-1.3l-0.2-0.6l-0.2-0.9l-0.3-0.8l-0.3-0.5
		l-0.2-0.9l-0.6-0.6l-3.1-2.6l-0.1-0.1h-0.2l-1,0.1l-0.2-0.1l-0.2-0.1l-0.3-0.1l-0.1-0.1l-0.1-0.2l-0.3-0.5l-0.1-0.2l-0.2-0.1h-0.1
		l-0.2,0.1l-0.2,0.1l-0.4,0.1h-0.2h-0.3l-0.2-0.1h-0.2l-0.4-0.3l-0.1-0.1l-1.4-0.4l0.9-1l1.1-0.9l0.9-1.2l0.2-0.4l0.3-1.2l0.2-0.3
		l0.5,0.2l0.4,0.3l0.3,0.1l0.2-0.2l0.4-1l0.5-0.7l0.8-1.8l0.4-0.4v-0.2L382,188v-0.2l0.2-0.4l0.3-0.2l0.3-0.2l1.2-0.3l0.6-0.4
		l0.3-0.7L385.7,182.1L385.7,182.1z"/>
	<path id="ARJ" class="st0" d="M375,196.8l1.4,0.4l0.1,0.1l0.4,0.3h0.2l0.2,0.1h0.3h0.2l0.4-0.1l0.2-0.1l0.2-0.1h0.1l0.2,0.1
		l0.1,0.2l0.3,0.5l0.1,0.2l0.1,0.1l0.3,0.1l0.2,0.1l0.2,0.1l1-0.1h0.2l0.1,0.1l3.1,2.6l0.6,0.6l0.2,0.9l0.3,0.5l0.3,0.8l0.2,0.9
		l0.2,0.6l1.4,1.3l0.3,0.4l0.3,0.4l0.2,0.8l0.3,0.8l0.1,0.3l0.3,0.2l0.5,0.4l0.2,0.3l0.1,0.1l0.1,0.2l0.1,0.1l0.1,0.3v0.2v0.3
		l-0.2,0.4l-0.2,0.1l-0.3,0.1l-0.2,0.1l-0.3,0.2l-0.1,0.2l-0.6,0.9l-0.1,0.8v1l0.1,0.9l0.3,0.4l0.4,0.3l0.2,0.5l0.2,0.3v0.1l0.1,0.1
		v0.2v0.1l-0.1,0.2l-0.1,0.1l-0.2,0.1h-0.1h-0.1l-0.1,0.2l-0.1,0.3l-0.1,1.5l0.1,0.6v0.2v0.3l-0.1,0.1l-0.3,0.4l-0.3,0.5v0.1
		l-0.1,0.3l-0.1,1.2v0.7l0.1,0.2l0.1,0.2v0.1l0.8,0.3h0.5l1.1-0.4h0.2h0.2l0.6,0.3h0.3h0.3h0.2h0.1l1.1-0.5l0.6-0.1l0.5-0.1h0.2
		l0.3,0.1l1.1,0.8l0.2,0.1h0.2l0.3,0.1h0.2h0.3l0.5-0.1h0.3h0.6l2.6,0.9h0.6l0.2,0.1l0.1,0.1l0.5,0.8l0.3,0.4l0.9,0.5l1.2,0.8
		l0.2,0.3l0.2,0.2l0.1,0.3l0.1,0.3v0.1l0.1,0.1l0.1,0.1l0.1,0.1l1,0.2l0.4,0.4l1,1l0.1,0.4l0.2,0.4l0.1,0.2l0.1,0.1l0.8,0.5l0.1,0.1
		l0.2,0.1l0.5,0.9l0.3,0.3l0.6,0.4l0.2,0.2l1.1,0.4l0.1,0.2l0.2,0.1l0.5,0.9l0.2,0.2l2.9,2.3l0.2,0.2l0.6,1.1l0.3,0.5l0.2,1l0.1,0.3
		v0.1l0.1,0.1l0.2,0.2l1.3,0.8l0.2,0.2l0.1,0.1l0.5,1.1l0.1,0.2l0.3,0.3l0.9,0.7l0.4,0.3l0.2,0.2l0.3,0.3l1,1.6l0.1,0.2l0.6,0.8
		l0.1,0.2l0.2,0.1l0.9,0.4l0.1,0.1l0.2,0.1l0.2,0.3l0.8,2l0.2,0.4l0.3,0.4l0.3,0.6l0.4,0.6v0.1l0.1,0.2l-0.8,2.5l0.1,0.8l1.1,1
		l-0.9,6.6l0.2,0.6l0.7,1.4l0.2,0.6v1.2v0.3l0.1,0.2l0.2,0.2l1.7,1.7l0.2,0.2h0.1l0.3,0.1l1.2,0.1l0.1,0.1l0.1,0.1l0.1,0.3v0.4v0.2
		l0.3,1v0.7v0.2l0.1,0.1l0.2,0.2l0.2,0.1h0.1l0.2-0.1l0.1,0.1l0.2,0.2l0.6,1l0.5,1.5l-5.3,0.3l-0.7-0.2h-0.2l-0.1-0.1h-0.1l-0.2-0.3
		l-0.2-0.1l-0.3-0.1l-0.4-0.1h-0.3h-0.2l-0.7,0.2l-1.7,0.2l-0.5-0.1h-0.3l-0.6-0.2l-0.9-0.2l-0.5,0.3l-0.2,0.2l-0.1,0.2l-0.1,0.2
		v0.2v0.1v0.3l0.1,0.6l0.1,0.2l-0.1,0.4v0.1l0.1,0.1v0.2l0.1,0.3v0.2l-0.1,0.1l-0.3,1.1v0.3l-0.1,0.2l0.1,0.5v0.4v1.5v0.8v1.6
		l-1.5-1.1l-0.6-0.1l-0.2,0.2l-0.2,0.1l-0.3,0.1h-1.4l-1.2,0.2l-0.6,0.1h-0.1l-0.4,0.2l-0.2-0.1H415l-0.3,0.2h-0.1l-1.9-0.3
		l-0.2-0.1l-0.4-0.8l-0.3-0.2l-0.3-0.3l-0.8-0.4l-0.2-0.2l-0.2-0.8l-0.2-0.3l-0.6-0.6l-0.7-0.5h-0.7l-2.3,0.6l-0.2,0.1l-0.9,0.7
		l-0.7,0.3l-0.4,0.1l-2.5,0.2l-0.3,0.2l-0.2,0.2l-0.3,0.5l-0.6,0.5l-3.7,2.5l-1.1,0.6l-4,0.1l-0.2-0.1l-0.2-0.2l-0.4-6.1v-0.1H390
		h-0.3l-1,0.2L388,285l-0.3-0.2l-0.4-0.3l-0.2-0.3L387,284l-0.2-0.4l-0.8-1l-0.3-0.3l-0.2-0.1l-0.3-0.1l-0.3-0.1l-0.2,0.1h-0.1
		l-0.1,0.1l-0.1,0.1l-0.3,0.4l-0.1,0.1l-0.1,0.1h-0.3l-0.3,0.2l-0.1,0.1l-0.1,0.2l-0.3,0.7v0.1l-0.1,0.1h-0.1l-0.1,0.1l-0.2,0.1
		l-0.4,0.1l-1-0.2l-1.1-0.1l-0.6,0.1h-0.1l-0.4,0.3l-0.5,0.4l-0.2,0.2l-0.5,0.2l-1.3,0.4h-0.1l-0.2,0.2h-0.1l-0.1,0.2l-0.1,0.1
		l-0.1,0.2v0.1v0.2v1.3v0.3v0.2l-0.1,0.1v0.2l-0.1,0.1l-0.1,0.1l-0.2,0.1l-0.2,0.1l-0.2,0.1l-2.4,0.1l-4,1l-1-0.2l-0.4-0.2h-0.9
		l-3.2,0.5l-0.2,0.1l-0.3-0.4l-0.5-0.2h-0.3l-0.3-0.2l-0.1-0.6v-0.2v-0.5v-0.2l-0.1-0.3l-0.2-0.5l-0.1-0.3l0.1-0.2l0.1-0.4l0.1-0.3
		l-0.1-0.1l-0.4-0.3l-0.1-0.2l0.1-0.5l-0.1-0.2l-0.1-0.2l-0.4-0.4l-0.1-0.2l0.1-0.3l0.3-0.2h0.4l0.9,0.4h0.5l0.2-0.3l0.2-0.9
		l0.2-0.3l0.2-0.3l0.1-0.3l-0.1-0.5l-0.2-0.4l-0.4-0.5l-0.4-0.3l-0.4-0.3l-0.9-0.1h-0.8l-0.7-0.2l-0.7-0.7l-0.2-0.5l-0.2-0.5
		l-0.1-0.6v-1l-0.2-0.4l-0.6-0.8l-1.1-2.2l-0.2-0.6l-0.1-0.5l0.3-1v-0.9v-0.9l0.1-0.5l0.3-0.7l0.1-0.5l-0.1-0.5l-0.2-0.5v-0.4l0.5-1
		l0.1-0.4l-0.1-0.9l0.1-0.5l0.1-0.4l1.2-1.8l0.2-0.2l0.4,0.2l0.2,0.5l0.1,0.5l0.2,0.3h0.3l0.4-0.3l0.2-0.4l0.2-0.7l0.2-0.5l0.5-0.8
		l0.3-0.2l0.9,0.2l0.3-0.1v-0.3l-0.3-0.3l-0.6-0.6l-0.3-0.4l-0.2-0.3l-0.1-0.5l0.4-3.3l0.3-0.8l0.1-0.2l0.4-0.5l0.1-0.3V252
		l-0.1-0.3v-0.3l0.1-0.5l0.1-0.3l0.4-0.8l0.3-0.8l0.4-1.9l0.4-0.6l0.4-0.3l0.3-0.1l0.3-0.3l0.1-0.5l-0.1-0.5l-0.5-0.9v-0.4l0.6-0.2
		l1.7,0.8l0.7,0.2l0.7-0.2l0.6-0.3l0.6-0.5l0.5-0.6l0.2-0.4l0.1-0.5v-0.9l0.1-0.4l0.1-0.2l0.1-0.2l0.1-0.2l0.5-0.2l0.1-0.1l0.3-0.9
		l-0.3-0.9l-0.6-0.6l-0.8-0.3l-0.8,0.1l-0.3-0.1l-0.2-0.4l0.1-0.3l0.7-1.1l0.3-0.9l0.1-0.9l0.1-3.2l-0.2-2V228l-0.2-0.3l-0.5-0.4
		l-0.2-0.5v-0.5v-0.7l0.1-0.8l-0.5-2.2l-0.1-0.3l-0.1-0.3l-0.2-0.2l-0.2-1.2l-0.2-0.4l-0.1-0.3l-0.2-0.3v-0.4l0.1-1.2l0.2-0.4
		l0.4-0.3l0.2-0.1l0.2-0.1l0.2-0.2l0.1-0.2v-0.2l-0.3-0.3v-0.1l0.1-0.2h0.1l0.1-0.1l0.3-0.3l0.6-0.3l0.2-0.2l0.2-0.3v-0.2v-0.1
		l0.4-0.2l1-0.1l0.5-0.3l0.4-0.5l0.1-0.5v-0.6l-0.1-1.2l-0.1-0.5V210l0.1-0.4l0.1-0.5l0.2-0.3l0.3-0.4l0.1-0.2v-0.1v-0.2l0.1-0.3
		l0.6-1v-0.5v-0.5l-0.3-1l-0.1-0.5v-0.8l0.3-0.8l0.4-0.7l0.4-0.6l0.2-0.1l0.1-0.1l0.2-0.1v-0.2l0.1-2.5L375,196.8L375,196.8z"/>
	<path id="ARM" class="st0" d="M362.5,290.8l0.2-0.1l3.2-0.5h0.9l0.4,0.2l1,0.2l4-1l2.4-0.1l0.2-0.1l0.2-0.1l0.2-0.1l0.1-0.1
		l0.1-0.1v-0.2l0.1-0.1v-0.2v-0.3v-1.3v-0.2v-0.1l0.1-0.2l0.1-0.1l0.1-0.2h0.1l0.2-0.2h0.1l1.3-0.4l0.5-0.2l0.2-0.2l0.5-0.4l0.4-0.3
		h0.1l0.6-0.1l1.1,0.1l1,0.2l0.4-0.1l0.2-0.1l0.1-0.1h0.1l0.1-0.1v-0.1l0.3-0.7l0.1-0.2l0.1-0.1l0.3-0.2h0.3l0.1-0.1l0.1-0.1
		l0.3-0.4l0.1-0.1l0.1-0.1h0.1l0.2-0.1l0.3,0.1l0.3,0.1l0.2,0.1l0.3,0.3l0.8,1l0.2,0.4l0.1,0.2l0.2,0.3l0.4,0.3l0.3,0.2l0.7,0.1
		l1-0.2h0.3h0.1v0.1l0.4,6.1l0.2,0.2l0.2,0.1l4-0.1l1.1-0.6l3.7-2.5l0.6-0.5l0.3-0.5l0.2-0.2l0.3-0.2l2.5-0.2l0.4-0.1l0.7-0.3
		l0.9-0.7l0.2-0.1l2.3-0.6h0.7l0.7,0.5l0.6,0.6l0.2,0.3l0.2,0.8l0.2,0.2l0.8,0.4l0.3,0.3l0.3,0.2l0.4,0.8l0.2,0.1l1.9,0.3h0.1
		l0.3-0.2h0.1l0.2,0.1l0.4-0.2h0.1l0.6-0.1l1.2-0.2h1.4l0.3-0.1l0.2-0.1l0.2-0.2l0.6,0.1l1.5,1.1l0.1,1.1l0.5,2.2l0.5,0.4l0.2,0.2
		l0.2,0.3v0.2v0.4l0.1,0.1l0.1,0.2l0.1,0.2l0.1,0.2l0.1,0.7l0.3,0.7v0.4l0.1,0.3l0.4,2l0.1,0.4l0.2,0.2l0.2,0.3l0.2,0.2l0.2,0.2
		l0.1,0.4l0.1,0.4l0.2,0.3l0.1,0.3l-0.4,0.7l-0.1,0.7l-0.1,0.2l0.3,1.1v0.5l-0.4,0.3l-0.1,0.3l0.2,0.7l0.4,1v0.3l-0.1,0.5v0.3
		l0.1,0.2l0.2,0.5l0.1,2.3l-0.1,1.9l0.1,0.7l0.2,0.2v0.9l0.5,1.2v0.4v1.1v0.5l0.2,0.6l2,3.4l0.4,0.4l0.1,0.3l0.3,0.8l0.1,0.3
		l0.3,1.1l0.5,0.8l0.5,1.7v0.5l0.2,0.3l0.4,0.3l0.7,0.5l0.3,0.3l0.4,0.3l0.2,0.5l0.2,1.1l0.3,0.4l0.3,0.2l0.3,0.2l0.2,0.4l0.1,0.8
		l0.4,0.6v0.4l-0.1,0.8l-0.1,1.3l-0.1,0.5l-0.3,0.4h-0.1l-0.3-0.2h-0.1l-0.1,0.1l-0.1,0.4l-0.3,0.5v0.3l0.2,0.6v1.9l0.3,0.5
		l-0.3,0.5l0.2,0.4l0.3,0.2l0.2,0.5l0.1,2.2l0.5,1.6l0.1,0.5l0.2,0.4l0.9,1.1l2.5,4.9l0.5,1.9l0.1,0.5l-0.2,1.3v0.3l0.3,1l0.1,0.4
		l0.1,0.3l0.4,0.8l0.1,0.4v0.4l-0.4,1.5l0.2,0.3l0.1,0.2l0.1,0.2v0.3l-0.1,0.3l-0.1,0.2l-0.1,0.1l0.3,1.6v0.4l-0.3,1.6v2.3l-0.1,0.5
		l-0.7,1.4l-0.2,2.6l-0.9,4l-0.1,1.9l-0.3,1.2v0.4l0.1,0.8l0.2,0.1h-9.2h-1.6h-23l-0.4,0.2l-0.3,0.3l-0.2,1.7l-0.1,1.1l0.1,0.4
		l0.1,0.3l0.6,3.1l0.2,14.3v18.9l-3.7-0.5l-0.4-0.3l-0.3-0.4l-0.7-1.4l-0.3-0.3l-0.4-0.2H397h-0.3l-0.4-0.3l-0.3-0.1l-0.6,0.1
		l-0.2-0.1l-0.4-0.2l-0.8-1l-0.5-0.2l-2.6,0.3l-1.1-0.2l-1-0.3l-0.7-0.5l-0.4-0.8l-0.5-2l-0.5-0.8l-0.4-0.2l-1-0.4l-0.9-0.2
		l-1.3-0.6l-0.9-0.1l-3.6,0.7h-1.1l-1-0.3l-0.9-0.3l-1.7-1l-0.7-0.7l-1.5-2l-0.1-0.3l0.1-0.3l0.3-0.4l0.2-0.3v-0.3V407l0.1-0.2
		l-0.1-0.4l-0.1-1.1l-0.3-0.4l-0.3-0.1l-0.3-0.2l-0.6-0.3h-0.1l-0.8-0.7l-0.2-0.3l-0.1-0.2l-0.3-1l-0.2-0.5l-0.2-0.4l-0.7-0.6
		l-0.4-0.2l-0.1-0.1l-0.1-0.1l-0.1-0.1l-0.2-0.5l-0.4-0.4l-0.1-0.2l-0.2-0.2l-0.1-0.1l-1.6-0.4l-0.2-0.2l-0.1-0.1l-0.2-0.3l-0.5-0.9
		l-0.6-1.7v-0.4l-0.5-1.7l-0.1-0.2l-0.1-0.1l-0.2-0.3l-0.2-0.1h-0.2h-0.1h-0.1l-0.1,0.1l-0.1,0.1l-0.2,0.2l-0.1,0.1H361h-0.1h-0.2
		l-0.1-0.1l-0.1-0.1l-0.1-0.1l-0.2-0.4l-0.2-0.7l-0.1-0.2V391v-0.5v-0.2l0.1-0.2l0.1-0.1l0.1-0.1v-0.1l0.1-0.1l0.1-0.1v-0.3v-0.8
		v-0.3l-0.1-0.2l-0.1-0.4l-0.1-0.1l-0.3-0.3l-0.8-0.6l-0.1-0.2l0.1-0.3l0.3-0.9l0.1-0.2l0.4-0.4l0.1-0.3v-0.4l-0.7-1.6l0.1-0.3
		l0.1-0.5l0.1-0.1l0.2-0.2l0.1-0.1l0.1-0.2l-0.2-0.2h-0.4l-0.2-0.1v-0.9l1.3-1.3l-0.1-0.9L360,377l-0.9-2.6L359,374l0.3-0.9v-0.5
		l-0.2-1.1l0.2-1l-0.1-0.4l-0.3-0.3l-0.3-0.5l-0.5-1.6l-0.1-0.4l0.3-0.2l0.4-0.2l0.2-0.2l-0.2-0.6l-0.7-0.5l-1-0.1l-0.8-0.3l-0.4-1
		l0.8-1.3l3.2-1l0.4-1.8l-0.1-1.8l0.4-1.8l1.6-3.9l-0.1-0.3l-0.3-0.3l-0.3-0.3l-0.2-0.5l0.2-0.1l0.3-0.1l0.4-0.2l0.5-0.8l0.2-2
		l0.3-0.8l0.4-0.4l0.8-0.8l0.4-0.5l0.4-1.2l0.3-0.6l1-0.8l0.2-0.5v-0.5l-0.1-0.8v-0.7l0.1-0.6l0.2-0.2l0.2-0.2l1-0.2l0.5,0.1
		l0.4,0.1l0.7,0.2l0.1-0.1l0.1-0.1v-0.2l1.5-0.6v-0.2l-0.1-0.6l-0.5-1l-0.2-0.4l-0.1-0.4v-0.2l0.1-0.2l0.1-0.4l0.2-1.9v-1.2
		l-0.2-0.6l-0.4-0.1l-0.3,0.1l-0.2-0.1v-0.7l0.2-1v-0.4l-0.3-1.9v-0.6l0.1-0.3l0.7-0.5l0.3-0.3v-0.4l-0.6-0.8l-0.1-0.4v-0.5l0.4-1.4
		v-0.3l-0.1-0.2v-0.2l0.1-0.3l0.1-0.1l0.4-0.1l0.2-0.1l0.1-0.3v-1.2l0.1-0.4l0.2-0.4l0.6-0.7l0.1-0.3v-0.5l-0.4-0.9l-0.1-1.4
		l-0.5-0.6l-0.7-0.4l-0.7-0.2l-0.8,0.1l-0.9,1.3l-0.5,0.1l-0.7-1.5l-0.2-0.4l-0.7-0.5l-0.3-0.4l-0.2-0.4v-0.5l0.4-1.5l-0.1-0.5
		l-0.2-0.4l-0.1-0.4l0.2-0.5l0.3-0.2l0.6-0.2l0.3-0.2l0.2-0.4l0.2-1l0.1-0.5l0.4-0.7v-0.3l-0.3-0.2l-0.5-0.2l-0.3-0.2l-0.7-0.7
		l-1.1-1.3l-0.3-0.8l-0.5-2.6L364,298l0.1-0.5l0.1-0.2l0.1-0.1l0.5-0.1h0.1l-0.4-0.7V296v-0.5V295l-0.3-0.5l-0.3-0.3l-0.8-0.4
		l-0.4-0.8l0.1-1.8L362.5,290.8L362.5,290.8z"/>
	<path id="ARQ" class="st0" d="M358.9,386.4l0.1,0.2l0.8,0.6l0.3,0.3l0.1,0.1l0.1,0.4l0.1,0.2v0.3v0.8v0.3l-0.1,0.1l-0.1,0.1v0.1
		l-0.1,0.1l-0.1,0.1l-0.1,0.2v0.2v0.5v0.2l0.1,0.2l0.2,0.7l0.2,0.4l0.1,0.1l0.1,0.1l0.1,0.1h0.2h0.1h0.1l0.1-0.1l0.2-0.2l0.1-0.1
		l0.1-0.1h0.1h0.1h0.2l0.2,0.1l0.2,0.3l0.1,0.1l0.1,0.2l0.5,1.7v0.4l0.6,1.7l0.5,0.9l0.2,0.3l0.1,0.1l0.2,0.2l1.6,0.4l0.1,0.1
		l0.2,0.2l0.1,0.2l0.4,0.4l0.2,0.5l0.1,0.1l0.1,0.1l0.1,0.1l0.4,0.2l0.7,0.6l0.2,0.4l0.2,0.5l0.3,1l0.1,0.2l0.2,0.3l0.8,0.7h0.1
		l0.6,0.3l0.3,0.2l0.3,0.1l0.3,0.4l0.1,1.1l0.1,0.4l-0.1,0.2v0.5v0.3l-0.2,0.3l-0.3,0.4l-0.1,0.3l0.1,0.3l1.5,2l0.7,0.7l1.7,1
		l0.9,0.3l1,0.3h1.1l3.6-0.7l0.9,0.1l1.3,0.6l0.9,0.2l1,0.4l0.4,0.2l0.5,0.8l0.5,2l0.4,0.8l0.7,0.5l1,0.3l1.1,0.2l2.6-0.3l0.5,0.2
		l0.8,1l0.4,0.2l0.2,0.1l0.6-0.1l0.3,0.1l0.4,0.3h0.3h1.3l0.4,0.2l0.3,0.3l0.7,1.4l0.3,0.4l0.4,0.3l3.7,0.5v0.2l-0.1,4.1v24.7
		l0.1,0.6l0.4,0.4l1,1.2l2.7,4.3l0.2,0.6l0.1,0.5v0.3l0.1,0.3l0.3,0.2h0.1l-2.2,0.6h-0.7l-1-0.4h-0.3l-0.4,0.1l-0.2,0.1l-0.3,0.1
		l-0.6-0.3l-0.5-0.6h-0.2l-0.9,0.8l-0.3,0.1l-0.7,0.4l-1.4,1.7l-0.6,0.4l-0.7,0.1l-0.7,0.4l-0.6,0.6l-0.5,0.7l-0.6,1.2l-0.3,0.3
		l-0.3,0.4l-0.4,0.2l-0.9,0.4l-0.2,0.4l-0.2,0.3l-0.6,0.5l-0.2,0.3l-0.4,1.4l-0.1,0.3l-0.1,0.1l-1.1,0.7l-0.2,0.2l-0.1,0.2l-0.8,1.4
		l-0.2,0.4l-0.2,0.2l-0.2,0.1l-1,0.5l-0.5,0.3l-0.2,0.1h-0.5h-0.7l-0.2,0.1l-0.3,0.1l-1,0.8h-0.1l-0.5,0.2l-0.7,0.4l-0.4,0.3
		l-0.3,0.5l-0.5,0.7v0.1l-0.1,0.3l-1.1,1.6l-0.4,0.4l-0.8,0.6l-1.5,1.5l-0.5,0.4l-0.5,0.1l-1.9-0.2h-0.6l-0.4,0.1l-5,3l-0.5,0.4
		l-0.3,0.4l-0.1,0.2v0.2v0.5l-0.1,0.3l-0.3,0.7l-0.1,0.5l-0.2,1.6v0.3l-0.2,0.6l-0.1,0.3l0.1,0.8v0.3l-0.2,0.5l-0.4,0.8l-0.8,2.1
		l-0.1,0.6v1.4l-0.1,0.7l-0.2,0.5l-0.2,0.3l-0.2,0.1l-0.3,0.2l-0.2,0.1h-0.2h-0.5h-0.1l-0.3,0.3l-0.2,1.2l-0.2,0.5l-0.6,0.3
		l-1.7-0.1l-1.7,0.6h-0.8l-0.7-0.6l-0.4-0.4l-0.4-0.4l-0.4-0.1l-0.5,0.1l-0.3,0.2l-0.9,0.9l-0.6,0.5l-0.7,0.4l-0.8,0.2l-0.6-0.1
		l-0.3-0.1l-0.7-0.1H351l-0.4,0.1l-0.5,0.4l-0.3,0.2v0.1h-0.5l-0.6,0.2l-1,0.5l-0.2,0.1l-0.2,0.3l-0.2,0.2l-0.1,0.3l-0.1,0.2
		l-0.1,0.4v0.2l-0.3,0.2l-0.7,0.2l-0.3,0.2l-0.2,0.1l-0.1,0.4l-0.1,0.1l-0.1,0.2l-0.4,0.3l-0.1,0.1l-0.1,0.3l-0.1,0.2v0.3l0.1,0.3
		l0.2,0.4l0.4,0.3l0.4,0.2l0.4,0.3l0.3,0.4l0.3,0.5l0.1,0.6l-0.1,0.6l-0.2,0.4l-0.3,0.5l-1.3,1.5l-0.3,0.6l-0.1,0.1l-0.2,0.2
		l-0.5,0.3l-0.3,0.2l-0.6,0.3l-1.1,0.4h-0.6l-1.3-0.1l-4-1.6l-0.7-0.1h-1.6l-1.4-0.3l-2.6-0.2h-0.2v-0.3l0.4-1.1v-0.6l-0.2-0.7
		l-0.3-0.4l-0.8-1.3l-0.2-0.6l-0.7-2.9l0.1-0.3l1.6-1.7l0.4-0.9l0.1-1v-0.2l-0.2-0.3l-0.1-0.3l0.1-0.2l0.4-0.7l0.7-2.5l0.2-0.3
		l0.2-0.1l0.9,0.3h0.3l0.2-0.2l0.8-2l0.1-0.4v-0.3v-0.3l-0.1-0.2l-0.1-0.2l-0.3-0.2h-0.1l-0.3,0.1l-0.1,0.1v0.2l-0.1,0.1l-0.3-0.1
		l-0.1-0.1l-0.5-0.7l-0.6-0.7l-0.3-0.4L330,494l0.1-0.2l0.1-0.4l0.1-0.1l-0.1-0.3v-0.3l0.1-0.8l0.1-0.3l0.1-0.2l-0.1-0.2l-0.2-0.2
		v-0.2l0.3-0.4h0.7l0.9,0.4l0.8,0.2l0.3-1.1l-0.1-0.3l-0.1-0.5l-0.1-0.3l0.1-0.3l0.1-0.1l0.2-0.1l0.1-0.2l0.7-1.7l0.2-0.6l-0.1-0.4
		l-0.3-0.3l-0.7-0.6l-0.2-0.3l-0.1-0.4v-0.6l-0.1-0.6l-0.4-1.1l-0.1-0.6l0.1-0.5l0.2-0.5l0.1-0.4l-0.4-0.8l-0.1-0.6l0.1-0.6l0.2-0.5
		l0.3-0.4h0.3l0.7,0.9l0.2,0.2l0.3,0.2l0.3,0.1l0.5-0.1l0.5-0.1l0.4,0.1h0.3l0.4-0.4l0.1-0.9l-0.9-0.9l0.5-0.9l0.3-0.3l0.4-0.7
		l0.2-0.4l0.2-0.4l-0.3-0.8v-0.5l0.3-0.5l0.5-0.3l0.4-0.3l0.2-0.7l0.2-2.2l-0.3-3.6l-0.3-2v-0.7l0.3-1.7l0.3-0.7l0.6-0.6l1.9-1
		l0.5-0.4l0.3-0.4l0.1-0.2l0.2-0.1l1.5-0.2l0.4-0.2l1.2-0.9l0.6-0.3h0.8l0.9,0.1l0.4-0.1l0.3-0.3l0.3-0.6l0.2-0.2l0.6-0.3l0.1-0.1
		V453l-0.1-0.2l-0.1-0.2v-0.2v-0.3v-0.2l0.2-0.4l0.5-0.7l0.2-0.4l0.1-0.5l-0.3-1l-0.6-0.7l-0.8-0.5l-0.7-0.6l-0.5-0.9l-0.9-4.3v-0.8
		v-0.8l0.2-0.9v-0.1v-0.1l-0.1-0.5l-0.2-0.5v-0.5l0.3-0.4v-0.2V437v-0.2v-0.1l-0.6-0.8l-0.2-0.4l-0.1-0.6l-0.2-0.5l-0.5-1l-0.2-1.1
		l-0.8-1.6l-1-3.4l-0.2-1.2v-0.6l0.2-0.3l0.2-0.3l0.3-0.4l0.5-0.3l0.1-0.1v-0.3l-0.2-0.5l-0.1-0.3l0.2-0.5l0.3-1V421l-0.1-0.6
		l-0.2-0.5l-0.7-0.9l-0.5-1.2l-0.3-0.7v-0.6l0.2-0.5l0.8-1l0.3-0.6v-0.5l-0.1-0.5v-0.5l0.2-0.6l0.3-0.3l0.7-0.5l-0.7-0.6l-0.3-0.4
		l-0.2-1.3l-0.1-0.3l-0.7-0.4l-0.4-0.4h0.1l0.4,0.1h0.4l0.4-0.2l0.2-0.4l-0.1-0.4l-0.6-0.4v-0.2l0.1-0.2v-0.2l0.1-0.2v-0.1v-0.1
		l-0.1-0.3l-0.2-0.1l-0.2-0.1l-0.2-0.1l-0.1-0.3v-0.2l0.2-0.2l0.1-0.2l0.1-0.2l0.5-1.4l0.1-0.5v-1l0.1-0.4l0.3-0.3h0.4l0.4,0.3
		l0.4,0.2l0.3-0.2v-0.4l-0.3-1.8l0.1-1l0.1-1.1l0.4-1l0.3-0.1h0.4l0.4,0.1l0.4,0.1l0.4-0.1l0.3-0.3l0.3-0.4l0.1-0.9l0.2-0.4l0.4-0.1
		l0.4,0.1l0.8,0.4l0.2,0.1l0.1,0.1l0.2,0.1l1.8-0.5l0.2-0.3v-0.6l-0.1-0.3l-0.3-0.5l-0.1-0.3l0.1-0.3l0.3-0.6l0.1-0.2l-0.1-0.2v-0.3
		l0.1-0.2l0.1-0.1l0.2-0.1l0.4-0.1l0.3-0.2l0.8-1.1h0.1l0.2-0.1l0.1-0.1v-0.2l0.1-0.3v-0.2l0.2-0.5l0.2-0.1l0.2-0.1h0.5l1,0.6h0.5
		l0.4-0.3l0.4-0.4L358.9,386.4L358.9,386.4z"/>
	<path id="ARU" class="st0" d="M331.2,543.2h0.2l10.9-0.1l37.9,0.1h2.4h17.7h7.3l24.7-0.1l17.7,0.1h6.2h12.5l1.4,0.2l0.1,0.1
		l1.1,2.3l0.6,0.9l0.8,0.8l1.6,1.1h0.3h0.4h0.3l0.1,0.1l0.4,0.3l0.5,0.3l0.5,0.2l0.4,0.1h1.1l0.4,0.1l0.4,0.4l0.5,0.3l0.5-0.1
		l0.5-0.2l0.5-0.1h0.5l0.3,0.1l0.2,0.2l0.3,0.4l0.1,0.2l-0.6,0.2l-0.4,0.4l-1.6,2.3l-0.1,0.3l-0.2,0.9l0.1,0.2l0.6,0.2l1.7-0.2
		l0.9,0.5l0.7-0.1l0.7-0.1l0.4-0.1l0.5-0.3l0.3-0.1l3.9,0.3l0.5-0.2l0.2-0.4l0.1-0.1l0.6-0.6l0.2-0.2v-0.2v-0.5v-0.2l-0.1-0.1
		l-0.1-0.2l0.1-0.1l0.1-0.1h0.1v-0.2v-0.3l-0.2-0.6l-0.1-0.3l-0.1-0.3l-0.5-0.2l-0.9-0.1l-2.3,0.1l-1.1-0.1l-0.9-0.6l0.7-0.4l3-0.4
		l2.6-1.4l1.6-1.3l1.8-0.8l1.3-0.4l0.9,0.2l0.7,0.8l0.5,0.8l0.6,1.7l0.1,0.5l0.1,0.5l0.4,0.3l0.6,0.6l0.5,1l0.2,1.2l-0.2,2.8
		l0.4,4.3l-0.3,1.1l-0.5,1.2l-0.3,1.1l0.2,1l-1,1.5l-1.4,0.6l-4.2,1H492l-0.5,0.1l-0.9,0.4l-0.8,0.2l-0.6-0.5l-0.5-0.6l-0.7-1.1
		l-0.4-0.4l-0.4-0.2l-0.3-0.3v-0.6l0.1-0.7l0.2-0.3l0.3-1.8l0.3-0.2l0.2-0.1l-0.1-0.2l-0.5-0.4l-0.1-0.1l-0.3-0.2l-0.1-0.1l-0.1-0.1
		l-0.1-0.1l-0.7-0.4l-0.3-0.3l-0.1-0.6l-0.2-0.3l-0.5-0.4l-0.9-0.4l-1-0.2l-2.2-0.1l-1.5,0.3l-0.5,0.2l-0.5,0.2l-0.5,0.5l-0.7,0.1
		l-0.2,0.2l-0.2,0.1l-0.9,1.3l-0.4,0.4l-0.4,0.1l-1,0.1l-1,0.3l-0.5,0.4l-0.3,0.4l-0.2,0.5l-0.2,0.6l-0.7,0.7l-0.1,0.4l0.1,0.7
		l0.3,0.4l0.9,0.2l0.6,0.5l1.3,0.5l2.6,1.2l0.7,0.5l0.8,0.8l0.4,0.3l0.7,0.1l0.4,0.3l0.3,0.1l0.3-0.1l0.5-0.1h0.5h0.2l0.2,0.1
		l0.3,0.3l0.4,0.3l0.2,0.1l0.4,0.3h0.5l1.7-0.7h0.2v0.1l0.3,0.7l-0.1,0.4l-0.4,0.4l-2.5,1.7l-2.4,1l-4.2,1.2l-3.7,2.7l-0.6,0.8
		l-0.4,0.4l-0.5,0.3l-0.3,0.2l-0.2,0.6v0.5l0.1,0.5l0.1,0.6l-0.2,0.5l-0.3,0.3l-0.4,0.3l-1.7,1.8l-0.7,1.4l-0.4,0.5l-1.1,1l-0.2,0.2
		l-0.8,1.4l-0.1,0.3l-0.3,0.5l-0.1,0.2l0.1,1.7l0.1,0.4l0.4,1l-0.1,0.3l-0.1,0.6v0.6l0.1,0.2l0.3,0.2l0.2,0.5l0.1,0.6l0.2,0.4v0.4
		v1.1v0.4l0.3,0.1l0.4-0.1l0.2,0.3l-0.5,0.4l0.2,0.6v0.5l0.5,0.3l0.7-0.1l-0.5,0.5l-0.4,0.5l-0.2,0.4l0.1,0.5v0.4l0.3,0.1l0.1,0.6
		l-0.3,0.1l-0.7,0.2l-0.4,0.2l-0.3,0.3l-0.2,1v0.7v0.4l0.3,0.5l0.2,0.2l0.1,0.1l0.2,0.2l-0.1,0.3l0.1,0.2l0.1,0.3l0.2,0.2l-0.1,0.2
		v0.2l0.3,0.4h0.3l0.2,0.1v0.5l0.1,0.3l-0.3,0.1l-0.1,0.3v0.2h-0.3H466l-0.1,0.2l-0.1,0.3l-0.2,0.1l-0.2,0.1l0.2,0.2v0.1l-0.2,0.1
		l0.1,0.1l-0.1,0.1h-0.2l-0.2-0.2l-0.1,0.1v0.2l0.1,0.1v0.2h-0.2l-0.1,0.2h-0.1l-0.1,0.2l0.1,0.1l0.2,0.1l0.1,0.1v0.2l-0.1,0.2
		l-0.1,0.1l0.2,0.2h0.1l0.1-0.1h0.1l0.3,0.1v0.1l-0.1,0.2v0.1l0.2,0.1v0.1l-0.2,0.1l-0.3-0.1l-0.1,0.1l-0.1,0.2l-0.1,0.2h-0.1V615
		v-0.3l-0.1-0.2h-0.2h-0.3v0.2h-0.2h-0.1h-0.2v0.2l0.1,0.2l0.2,0.2v0.1l-0.2,0.1h-0.2l-0.2,0.1l-0.1,0.2l0.1,0.2l0.2,0.2h0.2
		l0.1,0.2h0.2l-0.1,0.2l-0.2,0.2h-0.1v-0.3h-0.2l-0.1,0.1l-0.1,0.2v0.2l-0.1-0.1l-0.2-0.1v-0.3l-0.2-0.1l-0.1,0.1v-0.1l-0.1-0.1
		l-0.2,0.1l-0.3,0.1h-0.2l-0.1,0.2v0.2l0.1,0.3h-0.3l-0.1,0.1H461l-0.9,0.5l-0.7,0.8l-0.4-0.2l-1,0.8l-0.3,0.4l-0.2,0.4l-0.2,0.2
		l-0.1,0.3l-0.3,0.6l0.1,0.8v0.5l-0.1,0.4l-0.1,0.2l-0.3,0.1l-0.2,0.2v0.6l0.2,0.1l-0.1,0.1l-0.1,0.3l0.2,0.7l0.4,0.1h0.3v0.1h0.2
		l0.1,0.1l0.1,0.2h0.3l0.3-0.1l0.4,0.1l0.4,0.3l0.5-0.1l0.4,0.5l0.4,0.1l0.3,0.5h-0.3l-0.3,0.4l-0.2,0.1l-0.1,0.2l-0.2,0.1l-0.3-0.1
		l-0.2,0.3l-0.2,0.2l0.1,0.3l0.3,0.3l0.1,0.4l-0.4-0.1l-0.2-0.2l-0.2,0.3l0.1,0.1l0.3,0.5l-0.9,0.5l-0.4-0.1l-0.4,0.1l-0.1,0.5
		l-1-0.8l-0.3-0.4l-0.7,0.2h-0.4l-0.3,0.3l-0.2-0.1v-0.6l-0.3-0.3h-0.3h-0.3l-0.4,0.1v0.5l0.1,0.4h-0.5l-0.5,0.3l-0.6-0.2l-0.5-0.6
		l-0.6-0.6l-0.6,0.1l-1.3-0.5l-1.2,0.3l-0.7-0.2l-0.4,0.7l-0.8,0.7l-0.5,0.5l-0.4-0.3h-0.3l-0.4-0.1h-0.3l-0.4,0.1l-0.1,0.3
		l-0.4-0.1l-0.2,0.3l-1.3,0.4l-0.6,0.3l-0.6,0.7v0.6l1,0.3l0.4,0.2l-0.4,0.6l-2-0.8l-0.3-0.1v0.8l0.9,0.3l0.4,0.5v0.7H439h-2.2
		l-2.4,0.4l-1.8,0.2l-1.2,0.6l-0.7,0.6l-1,0.8l-1.1,1.3l-0.7,1.3l-0.7,1l-0.7,1l-0.7,1.2l-0.5,0.8l-1,1l-0.4,0.8l-0.3,0.4l-0.5,0.3
		l-0.3,0.6l-0.2,0.8v0.9v0.5l0.4,0.3l-0.1,0.3l-0.1,0.2h-0.4v0.5l-0.1,0.3v0.2l0.2,0.3l-0.1,0.3l-0.3,0.2l-0.4-0.1l-0.6,0.5
		l-0.3,0.3l-0.3,0.2l-0.4,1.1l-0.6,0.5l-0.2,0.6l-0.5,0.5l-0.2,0.5l0.3,0.8l-0.5,0.2l-0.4,0.8l-0.1,0.2h-0.1h-16.2h-26.2h-41.7h-0.1
		l0.8-0.9l-0.2-1.1l-0.4-0.8l-0.5-0.6l-0.7-0.5l-0.9-0.3l-0.3-0.3l-0.2-0.5l0.1-0.5l0.2-0.4l0.1-0.4l-0.3-0.6l-0.6-0.5l-0.2-0.3
		v-0.5V650l0.4-0.6v-0.2V649l-0.1-0.2v-0.2v-0.5l0.1-0.3l0.3-0.8l0.2-0.1l0.1-0.2l0.1-0.1l0.1-0.2l-0.1-0.3l-0.3-0.3l-0.1-0.1
		l0.4-0.7l0.7-0.5l0.9-0.2l0.6-0.1l1.7,0.1l0.7-0.2l0.8-0.6l0.2-0.4l-0.1-0.5l-0.4-0.8l-0.2-0.6l0.1-0.3l2-0.9l0.4-0.2l0.3-0.4
		l0.5-0.8l0.4-0.3l0.4-0.6l-0.1-1l-0.4-1l-0.5-0.7l-0.7-0.7l-1.1-0.8l-0.8-1l-0.2-0.4l-0.4-1.3l-0.8-1.8l-0.7-0.8l-0.7-0.1l-0.8,0.1
		l-0.9-0.1l-0.3-0.3l-0.5-0.7l-0.4-0.2l-0.4-0.2l-0.5,0.1l-0.5,0.2l-0.4,0.2l-0.8,0.1l-0.9-0.4l-0.8-0.5l-0.8-0.3h-0.9l-0.4-0.1
		l-0.2-0.5l0.1-0.9v-0.5l-0.3-1.6l0.3-0.6l0.6-0.2l0.8,0.3l0.4,0.2l2.8,0.5h0.5l0.3-0.3l0.3-0.4l0.3-0.2l0.5-0.1l0.5,0.1l1.4,0.6
		h0.8l1.9-0.8l0.9-0.3l0.8,0.3l1.6,1.2l0.9,0.3l0.8-0.2l0.7-0.6l0.6-0.8l0.1-1.1l-0.2-1.1v-0.4l0.1-0.6l0.5-0.9l0.3-0.5l0.2-0.2h0.4
		l0.4-0.1l0.4-0.3l0.2-0.6l-0.1-0.5l-0.1-0.3l-0.3-0.3l-0.2-0.4l-0.2-0.5v-0.4l-0.2-0.4l-0.3-0.4l-0.5-0.3l-0.5-0.1l-1.1-0.1
		l-3.1-0.6h-4.2l-1.1-0.2h-0.9l-0.9,0.3h-0.8l-0.8-0.8l-0.1-0.5l0.3-0.3l0.5-0.2l0.3-0.2l0.1-0.6l-0.1-0.4l-0.3-0.4l-0.1-0.5v-0.5
		l0.5-0.9v-0.5l-0.1-0.5l-0.7-1.2l-0.3-1.1l0.5-0.4l0.8-0.2l0.7-0.6l0.3-0.6l1.6-2.4l0.2-0.6v-0.4l-1.1-1.9l-0.3-0.4l-0.2-0.1
		l-0.4-0.2l-0.1-0.2v-0.3v-0.3l0.1-0.2l0.1-0.2l-0.1-0.7h-0.1l-0.3,0.2l-0.4,0.1l-0.4-0.2l-0.1-0.4l0.1-0.6l0.2-0.4l0.4-0.2l0.9-0.3
		l0.4-0.3l0.3-0.3l0.1-0.4l-0.1-1.7l-0.1-0.3l-0.2-0.2l-0.9-0.7l-0.1-0.1l-0.1-0.2l-0.1-0.1l-0.2-0.2l-0.2-0.2H330h-0.5l-0.5-0.1
		l-0.2-0.4l0.1-0.2l0.4-0.5v-0.1v-0.6l-0.2-0.4l-0.4-0.3l-0.4-0.1l-0.2,0.1l-0.2,0.1h-0.2l-0.2-0.1l-0.2-0.2l0.1-0.2l0.2-0.1
		l0.1-0.2l-0.1-0.8v-0.2l0.1-0.3l0.2-0.1l0.1-0.1l0.2-0.2l0.1-0.2v-0.9l0.1-0.2l0.3-0.1h0.5l0.8-0.4l0.4-0.1l0.9,0.2l0.2-0.4
		l0.1-0.5v-0.5l-0.1-0.2l-0.1-0.5v-0.2v-0.3l0.2-0.5l0.1-0.2l-0.2-0.5l-0.4-0.4l-1.9-0.8l-3-0.3l-1-0.5l-0.8-0.7l-0.7-1l-0.4-1.3
		l0.1-1l0.5-1.8l0.1-1l-0.1-4.1l-0.1-0.4l-0.3-1l-0.1-0.4l0.2-0.6v-0.3v-0.2l-0.2-0.4l-0.1-0.2l0.1-1l0.4-0.8l0.7-0.5l1-0.6l0.1-0.3
		l-0.2-0.3l-0.6-1V555l0.3-1.5l-0.2-0.6l-1-1l-0.3-0.7l0.2-0.7l0.4-0.6l0.6-0.6l0.4-0.6l0.1-0.8l0.2-0.7l0.7-0.6l0.6,0.1l0.4,0.5
		l0.2,0.6l0.6,0.3l0.2-0.1l0.2-0.3l0.2-0.3l0.2-0.2l0.2-0.1l1.5-0.3l0.6-0.3l0.5-0.4l0.2-0.6v-1.4l-0.1-0.3l-0.4-0.4L331.2,543.2
		L331.2,543.2z"/>
	<path id="ARR" class="st0" d="M329.1,515.8h0.2l2.6,0.2l1.4,0.3h1.6l0.7,0.1l4,1.6l1.3,0.1h0.6l1.1-0.4l0.6-0.3l0.3-0.2l0.5-0.3
		l0.2-0.2l0.1-0.1l0.3-0.6l1.3-1.5l0.3-0.5l0.2-0.4l0.1-0.6l-0.1-0.6l-0.3-0.5l-0.3-0.4l-0.4-0.3L345,511l-0.4-0.3l-0.2-0.4
		l-0.1-0.3v-0.3l0.1-0.2l0.1-0.3l0.1-0.1l0.4-0.3l0.1-0.2l0.1-0.1l0.1-0.4l0.2-0.1l0.3-0.2l0.7-0.2l0.3-0.2v-0.2l0.1-0.4l0.1-0.2
		l0.1-0.3l0.2-0.2l0.2-0.3l0.2-0.1l1-0.5l0.6-0.2h0.5v-0.1l0.3-0.2l0.5-0.4l0.4-0.1h0.3l0.7,0.1l0.3,0.1l0.6,0.1l0.8-0.2l0.7-0.4
		l0.6-0.5l0.9-0.9l0.3-0.2l0.5-0.1l0.4,0.1l0.4,0.4l0.4,0.4l0.7,0.6h0.8l1.7-0.6l1.7,0.1l0.6-0.3l0.2-0.5l0.2-1.2l0.3-0.3h0.1h0.5
		h0.2l0.2-0.1l0.3-0.2l0.2-0.1l0.2-0.3l0.2-0.5l0.1-0.7v-1.4l0.1-0.6l0.8-2.1l0.4-0.8l0.2-0.5v-0.3l-0.1-0.8l0.1-0.3l0.2-0.6v-0.3
		l0.2-1.6l0.1-0.5l0.3-0.7l0.1-0.3v-0.5v-0.2l0.1-0.2l0.3-0.4l0.5-0.4l5-3l0.4-0.1h0.6l1.9,0.2l0.5-0.1l0.5-0.4l1.5-1.5l0.8-0.6
		l0.4-0.4l1.1-1.6l0.1-0.3v-0.1l0.5-0.7l0.3-0.5l0.4-0.3l0.7-0.4l0.5-0.2h0.1l1-0.8l0.3-0.1l0.2-0.1h0.7h0.5l0.2-0.1l0.5-0.3l1-0.5
		l0.2-0.1l0.2-0.2l0.2-0.4l0.8-1.4l0.1-0.2l0.2-0.2l1.1-0.7l0.1-0.1l0.1-0.3l0.4-1.4l0.2-0.3l0.6-0.5l0.2-0.3l0.2-0.4l0.9-0.4
		l0.4-0.2l0.3-0.4l0.3-0.3l0.6-1.2l0.5-0.7l0.6-0.6l0.7-0.4l0.7-0.1l0.6-0.4l1.4-1.7l0.7-0.4l0.3-0.1l0.9-0.8h0.2l0.5,0.6l0.6,0.3
		l0.3-0.1l0.2-0.1l0.4-0.1h0.3l1,0.4h0.7l2.2-0.6h-0.1l-0.3-0.2l-0.1-0.3V460l-0.1-0.5l-0.2-0.6l-2.7-4.3l-1-1.2l-0.4-0.4l-0.1-0.6
		v-24.7l0.1-4.1v-0.2l8.2,1.1l0.9,0.5l0.6,0.5l0.6,0.8l0.5,0.9l0.3,0.8v1.2l-0.3,1l-0.5,0.7l-1.4,1l-0.6,0.6l-0.5,0.9l-0.1,1.3
		l0.1,0.5l0.1,0.5l0.2,0.6l0.2,0.2h0.2l0.3,0.3h0.2l0.6-0.2h0.2l0.8,0.4l0.6,0.6l1.1,2.4l0.6,0.8l0.7,0.7l0.8,0.4l1.5-0.1l0.6-0.3
		l1.5,0.2l0.6-0.2l0.9-0.6l1.8-0.3h0.4l0.5,0.2l0.2,0.4l0.1,0.4v0.6v0.3l0.5,1.4l0.8,1.1l0.3,0.3l0.3,0.4l0.1,0.2h0.2l2.1,1.1
		l0.9,0.2l0.7,0.5l0.4,0.2l1,0.1l0.8,0.5l0.2,0.1l0.1,0.1l0.4,0.3l0.2,0.1l0.9,0.2l0.7,0.4l0.7,0.6l0.5,0.7l0.2,0.8l0.2,1.3l0.2,0.4
		l0.5,0.2h0.6l2.4,0.7h0.9l2.8-0.5l5.3,0.7h0.2l0.4,0.3l0.6,0.1l0.7,0.3l0.8,0.1l0.3,0.1l0.2,0.1l0.4,0.4h0.2h0.9l0.3,0.1l0.2,0.2
		l0.2,0.2l0.2,0.1h0.4l0.4-0.2l0.5-0.3l0.3-0.3l0.4-0.3h0.6l1.1,0.2l1.8,0.7l0.8,0.6l0.3,0.1h0.3l0.9-0.4l1,0.1l3.1-0.6h2.8h0.2
		l0.5,0.4l1.5-0.2l0.7,0.2l0.4-0.2l5.7,1.1h1.5l6.7,2.6l1.5,1l0.4,0.2l1,0.1l0.3,0.3l1.8,2.2l0.4,0.2l1.4,0.3l0.8,0.5l0.3,0.2
		l0.3,0.3l0.5,0.9l0.4,0.5l0.7,0.3l2.7,1.9l0.6,0.6l0.8,0.3l1.8,0.2l0.1,14.7v14.7v7v1l4.2,0.6l1.3,0.5l0.3,0.2l1.7,1.5l0.9,1.2
		l0.2,0.2l1,0.8l1.3,1.3l0.2,0.4l0.8,1.8l0.2,0.6v0.1h-0.2l-0.2,0.3l-0.6,0.5l-0.3,0.4l-1.5,0.4l-2.4,1.3l-1,0.2l-4.5-0.2l-0.9,0.3
		h-0.5l-1.9-0.1l-3,0.1h-3.3l-0.9-0.2l-0.9-0.5l-2-2l-1-0.5l-0.8,0.1l-0.2-0.2l-0.1-0.2l0.1-0.3l0.2-0.4l-0.2-0.2l-0.5,0.1l-0.6,0.3
		l-0.4,0.1l-0.8-0.2l-5.1-2.7l-2.8-0.8l-1.9-1l-1.9-0.4l-1-0.1l-1.4,0.1h-0.7l-0.5-0.2v-0.4l0.4-0.3l0.5-0.2l0.4,0.1l-0.1,0.5h0.1
		l0.2-0.1l0.1-0.1h1.3l0.3-0.1l0.2-0.1l-0.1-0.6l-0.6-0.2l-0.4-0.3l0.6-0.6l-0.5-0.4l-2-0.4l-1.1,0.1l-0.8,0.3l-0.2,0.2l0.4,0.1
		l0.7-0.2l0.4,0.1l-0.3,0.4l0.1,0.3l0.2,0.2l0.2,0.2l-2.1-0.1l-0.3,0.2l-0.3,0.3l-1.7,1.4l-0.2,0.2v0.2v0.7l-0.1,0.2l-0.3,0.5
		l-0.2,0.6l-0.2,0.6l-0.1,0.7v1.1l0.6,4.7l0.8,3.2l0.1,0.9l0.5,1.5l0.1,0.9l0.3,0.9l1.1,1.2l0.3,0.9v0.8l-0.2,0.9l-0.2,0.8l-0.3,0.6
		l-0.2,0.8l0.2,1l0.6,1.5v1l-0.4,1.2l-0.9,2l-0.3,1.2l0.1,1l0.3,0.7l-0.1-0.1l-1.4-0.2h-12.5H450l-17.7-0.1l-24.7,0.1h-7.3h-17.7
		h-2.4l-37.9-0.1l-10.9,0.1h-0.2l-0.3-0.4v-0.4l0.1-0.4v-0.5l-0.4-2l-0.4-0.8l-0.5-0.7l-0.4-0.8v-1l-0.2-0.9l-1.2-1.8v-0.8l0.3-0.4
		l0.7-0.4l0.3-0.3l0.2-0.4l-0.1-0.4l-0.2-0.3l-0.3-0.4l-0.1-0.5v-0.3l0.1-0.8l0.1-0.6v-0.4l-0.1-0.3l-0.2-0.5l-0.2-1.1v-0.8l0.5-1.9
		l0.1-0.5l-0.1-0.5l-0.2-0.9v-0.5l0.1-0.2l0.2-0.2l0.2-0.5v-0.9l0.2-1v-0.6l-0.3-1L329.1,515.8L329.1,515.8z"/>
	<path id="ARZ" class="st0" d="M333.6,658.4h0.1h41.7h26.2h16.2h0.1l-0.7,2.2l-0.1,0.8l-0.1,0.9v1l1,4.7l0.7,2.4l0.5,1.1l2,3.9
		l1.2,1.2l0.6,0.6l1,0.3l0.6,0.2l0.2,0.3l0.3,0.5l0.8,0.6l0.9,0.2l0.4,0.3l0.3,0.9l0.7,0.6l0.8,1.2l0.2,0.7l0.3,0.1h0.2l0.2,0.1
		l0.2,0.4l0.2,0.1l0.2,0.2l1.9,2.1l1.2,1.9l0.8,0.8l1.8,0.9h0.8l0.6,0.5l0.9-0.4l0.4,0.3l0.4-0.1l0.4-0.1l0.5-0.1l0.3,0.2l0.7,0.4
		l0.3,0.1l1.2-0.1l0.3,0.1l0.2,0.1l1.1,0.2l2.2,0.5l2.4-0.2l1.1-0.5l0.6-0.1l0.5,0.1l1.2,0.9h0.8l0.5,0.5l0.2,0.8l0.5,0.5l0.4,0.4
		l0.2,0.2l1,0.9l-0.2,0.6l0.4,1.7l0.3,0.9l0.2,1l-0.3,2.1l-0.2,3l-0.5,1.8l-0.6,2l-1.2,3.4l-0.4,0.2l-0.6,0.1l-0.5-0.2l-1.1-0.1
		l-1.2-0.1l-0.6,0.6l-0.7,0.9l-0.6,0.4l-0.5,0.2l-1.3,0.7l-1.3,0.9l-0.5,0.1h-1.6h-0.3l1,0.4l0.8-0.1l1.6-0.9l0.5-0.1l1.2-0.4
		l1.9-1.1l0.6-0.6l1-0.2l0.9,0.1l0.6,0.1l0.3,0.4l0.4,1.6l0.3,1.3l0.5,0.6l0.8,0.2l0.6,0.2l-0.6,0.4l-0.1,0.4l0.4,0.2l0.3,0.2
		l-0.5,0.1l-0.6,0.2L454,718l-0.2-0.6l-1.1-0.3l-0.5,0.2l-0.4,0.7l-0.2,0.6l0.5,0.3l-0.1,0.7l-0.1,0.2l-0.2,0.2v0.3l-0.4,0.3
		l0.1,0.3l0.5,0.5l0.8,0.2l0.1,0.5l-0.4,0.6l-0.6,0.1l-0.2-0.4l-0.4-0.2l-0.3,0.3h-0.6l-0.9,0.1l-0.6,0.2l-0.4,0.2l-0.5,0.4
		l-0.2,0.7l-0.2,0.5l-0.2,0.3l-0.8,0.4l-0.8,0.3l-0.5,1.1l-0.8,0.3l-0.3,0.4l-0.4,0.6l-0.4,1.1l0.3,1l-0.3,0.1l-0.7-0.1l-0.7-0.1
		h-0.5l-0.1,0.2l-0.4,0.3l0.1,0.4l-0.1,0.7l-0.6,0.4l-0.9,0.3h-0.7l-1.5,0.3l-0.9,0.7l-1.2,0.6l-0.5,0.6l-0.7,0.6l-0.6,0.8l-0.4,0.3
		l-0.1,0.7l-0.1,0.6l-0.5,0.2l-0.5,0.3l-1.5,0.2l-1.2,1l-1.4,1l-0.5,0.5l-0.2,1.6l-0.8,0.9l-0.2,0.8l-0.1,0.7l-1,0.9l-1.5,0.6
		l-1.8,1.2l-3.1,3.5l-0.4,1l-0.3,1.2l-0.1,0.7l-0.4,0.4l-0.4,0.3v0.8l0.4,0.2l0.1,0.6l-0.3,0.2l-0.2,0.1l-0.3,0.2l-0.2,0.3v0.3
		l-0.2,0.3l-0.2,0.8l-0.5,0.6l-0.6,0.2l0.2,0.3l0.2,0.3l0.1,0.3l-0.1,0.4l-0.3,0.1l-0.3,0.3l-0.4,0.2l0.3,0.3v0.4l-0.6,0.6l-1.2,0.1
		v0.2l0.4,0.2h0.4h1.4l0.6-0.6l0.3-1.1v-0.9l0.3-0.4l0.1-0.9l0.4-0.5l0.1-0.2l0.3,0.2l0.3,0.4v0.6v1.3l-0.9,1.7l-0.1,0.5l-0.4,2.2
		l-0.5,2.3l-0.1,0.9v1.4l-0.1,0.7l-0.1,1.3l0.1,0.5l-0.4,3.1l-0.7,2.1l-0.2,0.8l-0.3,0.6l-0.1,0.5l-0.1,0.1l-0.7,1.4l-1.3,1.4
		l-1.8,1.5l-2,1.4l-1.9,0.9l-1.8,0.3l-1.5-0.1l-0.3-0.1l-0.2-0.2l-0.5-0.9l-0.5-0.3l-0.4-0.7l-0.3-0.7l-0.2-0.8l-0.4-0.8l-0.5-0.7
		l-0.7-0.6l-0.4-0.8l-0.1-0.7l-0.5-1.1l-0.5-0.8l-1-1.9l-0.2-0.6l-0.4-0.4l-0.5-0.3l-0.5-0.2h-0.4l1.3,0.9l0.3,0.3l0.1,0.5l0.6,1.2
		l0.7,1.3l0.4,1.4v0.8l-0.4,0.3l-0.7,0.5l-0.4,0.2l-0.5,0.3l-0.6,0.1l-0.9-0.2l-1.2,0.1l-1.5-0.2l-0.8,0.6l-0.7,0.3H389l-0.8,0.6
		v0.2h0.1h0.3h0.1h0.4l1.2-0.1l0.7-0.6l0.5-0.3l0.3-0.1h0.3l0.5,0.1l0.7-0.1l1.1,0.3l0.9,0.1l0.7-0.3l0.8-0.4h0.3l0.4,0.1l0.1,0.2
		l0.2,0.6l0.4,0.3l0.3,0.2v0.3v0.5l0.1,0.7l0.4,0.6l0.6,0.6l0.4,0.3l0.5,0.1l0.4,0.2l0.2,0.4l0.6,0.1l0.3,0.5l-0.3,0.7l-0.7,0.3
		l-0.4,0.4l-0.5,0.3l-3.6,1.7l-2.5,1.2l-0.7-0.1l-0.5,0.5v0.5l-0.7,0.2h-0.3l-0.3-0.1l-0.4,0.3l-0.1,0.7l-0.4,0.3l-1,1.4l-0.6,0.8
		l-0.3,0.7l-0.4,0.9l-0.7,1.2l-0.3,0.9l-0.4,0.6v1.4l-0.9,2.5l-0.4,1.3l-0.2,0.7l0.1,0.6l0.3,0.8l0.1,2v1.1l-0.2,0.8l-0.5,0.4
		l-1,0.7l-1.1,1.2l-1.8,1.5l-0.9,1l-0.4,1.1l0.6-0.6l1.2-1.1l0.7-0.5l1.3-0.8l0.6-0.4h0.6l0.2,0.6v0.6l0.3,1.4l0.4,2.5l0.4,1.7
		l0.1,1l0.3,0.6l0.2,1.4l0.3,1.5l2.1,5.9l0.1,0.8l0.1,0.6l-0.2,0.6l-0.4,0.4l-0.4-0.1l-0.4-0.2h-0.6l-0.4,0.3l-0.7,0.9l-0.4,0.2
		h-0.5l-0.6-0.2l-2.3-1.3l-1.5-0.1h-0.4l-0.2,0.1l-0.7,0.4l-1.1,0.1l-0.5,0.2l-1,0.8l-1,0.4l-0.5,0.3l4.6-1.1l0.9-0.1l1,0.1l2.2,0.9
		l0.9,0.5l-0.2,0.6l-1.1,0.9v0.2h0.4l0.4-0.1l1.7-1l0.9-0.8l0.5-0.5l0.6-0.1l0.6,0.3l0.7,0.9l1.3,3.8l1,1.5l1.5,3.7l1.4,3l3.4,5.4
		l2.6,3.7l0.6,1.1l0.3,0.6l-0.2,0.5l-0.6,0.6l-0.3,0.5l-0.2,0.5l-0.4,0.2l-0.1-0.4l0.1-0.5l-0.3-0.6v-1.3l-0.1-0.3l-0.5-0.2
		l-1.6-0.4l-0.3-0.1l-0.7-0.4l-0.4-0.2l-4.1-0.6l-0.8-0.4l-3-1.8l-4.3-1.4l-5.6-0.2l-3.7-1.6l-3.6-1.5l-2.4-1.1h-1.7l-4.7-0.1
		l-4.6-0.1h-4.7l-4.7-0.1l-4.7-0.1h-4.6l-4.7-0.1l-4.7-0.1h-1.6l-1-0.6l0.1-1.5l0.2-1l-0.2-1l-0.4-0.8l-0.6-0.5l-1.3-1.7l-1.5-1.3
		l-0.9-0.6l-1.9-0.7l-0.5-0.3l-0.2-0.7l-0.2-1.8l-0.2-0.6l-0.4-0.5l-0.5-0.1H318l-0.5-0.1l-0.4-0.8l0.5-1l1.5-1.6l0.1-0.2l-0.1-0.3
		v-0.4v-0.3l0.1-0.3l0.1-0.2l0.1-0.3l0.2-0.2l0.1-0.6v-1.9v-0.7l0.2-0.5l0.9-1.3l0.2-0.4v-0.5l-0.3-0.5l-1.6-1.1l-0.6-0.7L318,819
		v-0.6l0.2-0.5l0.5-0.8l0.4-0.7l0.3-0.3l0.3-0.2l0.6-0.1l0.3-0.7l0.3-1.5l0.2-2.8l-0.2-1.3l-0.4-0.8l-0.6-0.8l-0.5-0.9l-0.2-0.6V806
		l0.1-0.5l0.8-1.6v-0.5l-0.4-0.3l-0.5-0.1l-0.8-0.6l-2.5-0.6l-0.9,0.5l-1.4,1.6l-1,0.1l-0.4-0.3l-1-1.1l-0.5-0.3l-0.4,0.1l-2.6,1.5
		l-0.8,0.7l-1.4,1.6l-0.9,0.7l-0.9,0.4h-0.9l-0.8-0.6l-0.2-1.1v-1.3l-0.1-1.2l-0.2-0.5l-0.9-1.2l-0.3-0.5l-0.1-0.5v-1.9l-0.2-1.8
		l-0.1-0.6l0.1-1.3v-0.7l-0.2-1l-0.4-1.1l-0.4-1l-0.5-0.8l-0.4-0.4l-0.8-0.5l-2.6-2.4l-0.3-0.9l0.3-1l1-2v-0.4l-0.1-0.6l-0.3-0.4
		l-1.1-1l-0.4-0.5l0.1-0.4l0.3-0.3l0.2-0.5l0.1-0.6v-0.4l0.1-0.5l1.1-1.1l0.4-0.8l-0.1-0.9l5.6-2.5l1.3-2l1.5-2.1l0.1-2.5l-0.6-1.7
		l-0.7-0.9l0.2-2.6l0.2-1.2v-0.2l-1.3-0.3l-0.2-0.2l-0.2-0.4l-0.1-0.8l0.3-0.8l1.3-1.7l0.2-0.4l0.1-0.4v-0.5l0.1-0.4l0.2-0.7
		l1.3-1.9l0.2-0.3l0.8-0.8l1-0.4l2-0.2l0.9-0.4l0.8-0.6l1.5-1.6l1.1-1.4l0.5-0.9l0.2-0.9l0.1-1.2l-0.1-3.4l-0.5-1.7l-0.2-1.6
		l0.8-1.8l0.8-0.6l0.9-0.5l1.3-0.5l0.3-0.3l0.6-0.8l0.3-0.5l0.1-0.1l0.2-0.1h0.3l0.6,0.2h0.3l0.2-0.5l-0.2-0.5l-0.3-0.6l-0.2-0.4
		l0.1-0.5l0.2-1.2l0.1-0.6l-0.5-3.7l-0.2-0.7l-0.7-0.2l-0.3-0.2l-0.1-0.2l-0.1-0.2v-0.3l-0.1-0.3l-0.3-0.4l-0.4-0.2l-0.4-0.1
		l-0.4-0.2l-0.7-0.7l-0.5-0.8l-0.2-1l0.4-1l0.5-0.9l0.5-2.2l0.4-1l2-3.5l0.2-0.5l0.1-0.5l0.1-0.5l0.1-0.6l0.4-1.7l-0.1-0.4l-0.3-0.3
		l-0.4-0.2l-0.3-0.2l0.2-0.7l0.3-0.5l0.4-0.3l0.8-0.3l0.5-0.1l1.1,0.2l0.5-0.1l0.3-0.3l0.6-0.8l1.8-2.1l0.4-0.8l0.2-0.5l-0.1-0.3
		l-0.1-0.3l-0.1-0.5l-0.1-0.5l0.1-0.4l0.2-0.2h0.5l1.3,0.9l0.7,0.2l0.6-0.3l0.4-0.8v-0.9l-0.2-0.8l-0.4-0.6l-0.6-0.5l-1.3-0.8
		l-0.4-0.5l0.1-0.6l1.3-0.9l0.4-0.4l-0.2-0.5l-0.7-0.6l-0.2-0.5v-0.4l0.3-1.8l0.1-0.2l0.2-0.2l0.1-0.2v-0.3l-0.1-0.2l-0.1-0.2
		l-0.1-0.2v-0.3l0.3-0.5l0.6-0.1h1.1l0.4-0.2l0.3-0.3l0.6-0.8l0.3-0.4l1.2-0.7l0.7-0.8l0.1-0.9l-0.3-2.2v-0.5l0.2-0.5l0.1-0.5
		l-0.1-0.5l-1.4-3.8l-0.2-1.1v-1.2l0.1-1.3l-0.1-0.9l-0.4-0.6l-1.3-0.8l-1-1l-0.2-0.1l-0.2-0.1l-0.1-0.1l0.1-0.3l0.2-0.2l0.2-0.1
		l1.6-0.2l0.5-0.2l0.4-0.2l0.3-0.4l0.5-0.9l0.2-0.4L333.6,658.4L333.6,658.4z"/>
	<path id="ARV" class="st0" d="M395.7,948.6l0.2-1.2v-2l0.2,0.3l0.5,0.9l0.2,0.4l0.4,0.4l0.2,0.3l0.1,0.6l-0.4,0.2L395.7,948.6
		L395.7,948.6z M395.9,944.9l0.1-9.7v-9.5v-9.5l0.1-9.4v-9.3v-9.3l0.1-9.2v-9.2l0.7,0.5l0.2,0.3l0.4,1.1l0.2,0.3l1.3,2l1.4,2.5
		l0.3,0.5l1.4,1.3l0.7,0.8l0.5,1.1l0.4,1.3l0.8,3.7v0.5l-0.1,0.6l-0.2-0.4l-0.2-0.7l-0.6-2.5l-0.5-0.3l-0.4,0.1l-0.5,0.2l-0.7,0.5
		l-0.6,0.6l-1,1.3l-1.3,1.2l-0.7,1.6l-0.2,1.2l0.3,1.3l0.9,1l1.2,1.1h0.8l1,0.3l1.4,0.4l2.2-0.2l1.6,1.1l0.4,1.1l0.3,0.6l-0.1,1.2
		l0.1,0.3l0.2,0.7l0.3,1.6l0.1,0.7l1.2,2.3l0.2,0.4l3.9,4.4l1.4,1.1l0.5,0.6l0.1,0.5l-0.2,0.5h0.5l0.5-0.1l0.6,0.4l1.5,0.8l0.2,0.4
		l-0.6,0.2l-0.2,0.6l0.1,0.8l0.2,0.6l5.7,5.1l3.2,2.5l2.4,1.1l1.3,0.9l0.4,0.7l0.8,0.4l2.9,1.3l1.3,1.4l1,2.1l2.1,2l0.5,0.9l0.7,0.4
		l0.3,0.9l0.7,0.3l0.6,0.1l0.8,0.3l1.9,1.2l7.1,3.6l0.3,0.1l0.6,0.1l0.2,0.1l0.8,0.6l0.2,0.1l1.6,0.1l1.4,0.4l5-0.8l1,0.2h0.6
		l1.5-0.7l3.1,0.5l0.3,0.3l-0.2,0.5l-0.3,0.5l-0.4,0.2l-0.2,0.3l-0.6,1.9l0.1,0.2l0.1,0.4l0.1,0.2l-0.7,0.7l-0.2,0.2l0.1,0.4
		l0.1,0.4v0.3l-0.4,0.3l-0.7,0.6l-0.2,0.2l-0.5,2.3l-0.3,0.2l-0.3,0.2l-0.2,0.1l-0.5-0.1l-0.1-0.3l0.1-0.4l-0.2-0.5l-0.5-0.3h-0.7
		l-0.5,0.4l0.2,0.7l-0.5,0.6l-1.7-0.1l-0.7,0.2l-0.2,0.3l-0.1,0.4l-0.1,0.3l-0.3,0.2l-0.4,0.1h-0.3l-0.3-0.3l-0.3-0.5v-0.2l0.1-0.5
		l-0.1-0.3v-0.2l-0.1-0.2l-0.3-0.1h-0.4h-0.4l-0.8,0.3l-1.4-0.5l-0.5,0.4l-1.4-0.4l-0.4,0.3l0.3,0.6l0.5,0.5l-0.4,0.6l-0.5,0.6
		l-1.4,0.4l-1.2,0.4l-1.6-0.1l-2.5,0.1l-1.2,0.4l0.1,0.6l-0.1,0.5l-1.1,0.3l-0.5,0.2h-1.8l-1.9-0.7l-0.6-0.4l-0.5-0.5l-0.3-0.5
		l-0.3-0.4l-1.9-1.4l-0.6-0.2l-2.3-0.3l-1.8-0.9l-6.3-0.4l-4.3-0.7l-2.6,0.3l-5.5-0.7l-3-0.6l-0.9-0.8l-2-0.2l-1.1-0.7l-0.6-0.2
		l-0.3,0.3l0.1,0.8l-0.1,0.3l-0.3,0.4l-4,0.3l-0.5-0.1l-0.4-0.3l-0.6-1l-0.9-1L395.9,944.9L395.9,944.9z M494.4,942.9l0.4,0.2
		l0.5-0.4l0.4-0.3l0.3,0.5l-0.5,0.4l-0.2,0.2l-0.1,0.3l-0.3,0.7l-0.1,0.3l-0.3,0.1l-0.4,0.1l-0.3,0.1l-1,0.9h-0.3l-0.2-0.1l0.1-0.4
		l0.4-0.8v-0.2l-0.1-0.5l-0.2-0.1l-0.3,0.3l-0.3,0.3l-0.3,0.3l-0.3,0.1h-0.7l-0.1-0.1h-0.1l-0.3,0.1l-0.1,0.2v0.2l-0.1,0.2v0.1
		l-0.5,0.3l-2,0.3l-0.1,0.4l-0.3,0.2l-0.3-0.1l-0.2-0.3V946l0.1-0.5l0.3-0.9l-0.4,0.1h-0.2l-0.1,0.2l-0.3-0.3l-0.3,0.1l-0.4,0.4
		l-1.2,0.8l-0.2,0.2l-0.4,0.5l-0.2,0.2l-0.3,0.2l-0.4,0.1h-0.7V947l0.1-0.1v-0.2l0.1-0.1v-0.2h-0.2h-0.2l-0.2,0.2l-0.2,0.2l0.1,0.1
		l0.2,0.2l-0.3,0.3l-1,0.5l-0.2,0.3l-0.3,0.6l-0.2,0.3l-0.4,0.1h-1l-0.3-0.1l-0.1-0.3l0.1-0.3l0.2-0.3l0.2-0.3l-1.8-1.3l0.1-0.7
		l0.4-0.4l0.5-0.3l0.2-0.4l0.3-0.4l0.6,0.3l1.1,0.7l0.4-0.1l1.2-0.5l0.4-0.4l-1.1-1.2l-0.2-0.5l0.5-0.3l0.2,0.2l0.5,0.8l0.3,0.3
		l0.7,0.2l0.2-0.1l0.4-0.3l0.2-0.1h0.1h0.2l0.2,0.2l0.1,0.5v0.5l0.1,0.2l0.1,0.1l0.3-0.1v-0.1l-0.1-0.3v-0.2v-0.6v-0.5v-0.5l0.2-0.5
		h0.2l0.3,0.3l0.4,0.3l0.3-0.3l0.1,0.2l0.1,0.1h0.1h0.2l0.2,0.1l0.7-0.1h0.3l0.3,0.3l0.2,0.3l0.3,0.3h0.2l0.2-0.4l-0.1-0.4v-0.2
		l0.3-0.2l0.1,0.1l0.3,0.4h0.2l0.2-0.1l0.1-0.2l0.2-0.2h0.2l0.2,0.2l0.2,0.8l0.2,0.3l0.3-0.1l0.6-0.5l2.3-0.7l0.6,0.3L494.4,942.9
		L494.4,942.9z"/>
	<path id="ARB" class="st0" d="M568.8,314l1,0.6l2.7,2.8l3.5,2.5l0.4,0.2h0.4l1,0.6l0.4,0.2l0.3,0.4l0.8,1.2l0.3,0.3l2.8,1.5
		l0.7,0.2l0.6-0.2l1.1-0.4l0.9,0.6l0.8,1l1,0.5h1.8h0.1l0.1-0.3h0.1l0.3-0.1h0.2h0.1l0.2,0.4v0.3v0.7l0.1,0.2h0.1l0.1,0.2l0.1,0.1
		l0.2,0.1l0.1-0.1h0.1l0.1-0.1h0.2l0.1,0.1l0.2,0.2l0.1,0.1l0.1,0.2l0.1,0.2h0.2h2.1l0.6,0.1l0.4,0.2l0.3,0.3l1.5,0.9l1.2,1l0.4,0.2
		l1,0.3l0.3,0.1l2.2,2l0.8,0.4h1l1.9-0.8l1.1-0.2v0.1l0.2,0.1h0.2l0.5,0.3l0.2,0.1l0.1,0.4l0.1,0.5v1.1l-0.2,0.8v0.3l0.1,0.1
		l0.2,0.4v0.3l-0.7,0.8l-0.1,0.2l-0.1,0.3l-0.1,0.2l-0.3,0.4l-0.4,0.2l-0.4,0.2l-0.4-0.2l-0.1-0.1h-0.8l-0.1,0.1l-0.1,0.2l-0.1,0.2
		h-0.3l1.2,0.7l0.4,0.3l0.6,0.5l0.2,0.5l-0.4,0.8l-0.2,0.2l-0.2,0.3l-0.4,0.4l0.1,0.4l0.1,0.3l0.6,0.5v0.2v0.5v0.3l-1.3,1.1
		l-0.5,2.2l0.4,1.4l2,1.7l0.8-1.5l0.6-0.6l0.7-0.1l0.5-0.5l0.1-0.3l1.7,1.1l0.9,0.9l0.7,0.3l0.8,0.1l0.5,0.1l0.6,0.4l0.7,0.2
		l0.6,0.2l0.8,0.9l0.5,0.2l1.2-0.1l0.2,0.1l0.4,0.4l1,0.6l0.9,1l1.5,0.6l1.8,1.3l1.6,0.7l0.8,0.8l0.8,0.6l2,2l0.8,1l0.9,1.1l0.4,0.4
		l1,1.6l0.8,1.6l0.6,1.1l0.1,0.6l-0.3,1.1l-0.8,1l-0.9,1.2l-2,3.2l-0.6,0.8l-0.3,1l-0.1,0.6l-0.2,1.1l-0.3,0.8l0.2,0.9l0.2,1v0.8
		l0.1,0.2l0.1,0.3l0.3,0.3l0.1,0.3h0.1l0.5,1.5l0.1,0.5l0.1,0.2l0.3,0.2l0.4,0.5l0.1,0.1l0.1,0.5l0.3,0.6l2.9,2.8l2.1,1.4l1,0.1
		l0.4,0.3l0.2,0.3l-0.3,0.4l0.1,0.2l0.4-0.4l0.4-0.3l0.9-0.4l0.5-0.1l1.4,0.1l-0.3-0.6l0.1-0.3l0.3-0.1l0.4,0.3l0.1,0.3l0.3,1.1
		l0.1,0.2l0.4,0.5v3.2l0.5,1.4v0.6l0.1,3.5l0.1,3l-0.1,1.1l-0.4,0.9l-2.1,2.9l-2,3.2l-2.7,4.8l-0.8,1.7l-2.3,3.2l-0.7,0.8l-2.2,2.1
		l-0.9,1.4l-0.2,0.2l-0.4,0.2l-1.6,2.1l-0.6,1l-0.5,1l-0.4,1.1l-0.2,1.1l-0.1,1.1l0.1,0.2l0.1,0.3l0.1,0.2v0.1L626,436v0.1v0.8v0.3
		l-0.5,0.9l-0.7,0.9l-2,1.4l-2.1,1.2l-1.5,1.1l-3.2,2l-0.7,0.1l-0.3,0.1l-1.1,1l-0.8,0.4l-2.5,1l-0.7,0.5l-0.4,0.2l-1.8,0.3
		l-1.6,0.5l-1.5,0.9l-3.4,0.8l-4.3,1.5l-1.2,0.8L595,453l-0.7,0.3l-5.9,1.2l-5.9,1.2l-3.4,1.4l-0.4,0.1l-1.5-0.1l-9.4,1.8l-3.3,0.6
		l-3.2,0.4l-4.3,0.9l-2.3-0.1l-0.6-0.1h-0.2h-0.3l-0.2,0.1l-0.2,0.3l-2,0.5l-4-0.6l-1.9,0.1l-1.3,0.4l-0.2,0.2l-0.3,0.1l-3.3-0.4
		l-0.3-0.3l-0.3-0.1l-0.2-0.2l-0.2-0.1h-0.1l-0.2,0.1h-0.1l-0.1,0.1l-0.9,0.2l-1-0.1l-3.9-1.1l-0.7-0.4l-0.6-0.6l-0.5-0.8l-0.3-0.9
		l-0.3-0.5l-0.3-0.2l-3.3-0.3l-0.4-0.2l-0.4-0.1l-0.5,0.3l-0.2,0.4l0.2,0.2l-0.1,0.6l0.4,1l-0.2,0.5l0.3-0.3h0.3l0.2,0.2l0.1,0.3v1
		v0.2l0.3,0.2h0.2l0.7-0.2v0.2l-0.1,0.3l-0.1,0.4v0.4l-0.5,0.3l-0.2,0.2l-0.3,1l-0.2,0.5l-0.1,0.3l-0.2,0.2v0.2l0.1,0.2l0.2,0.2
		l0.1,0.2l-0.1,0.5l-0.1,0.4v0.4l0.2,0.5l0.3,0.5l1,0.7l0.4,0.5l-0.4-0.1h-0.2l-0.6-0.3l-0.2,0.3l0.1,0.3l0.5,0.2l0.5,0.1l1.6,0.1
		l0.5,0.1l1.7,0.8l0.8,0.7l0.5,0.7v0.3l-0.1,0.3l-0.1,0.3l-0.2,0.2l-0.3,0.1h-0.2l-0.1-0.2l-0.1-0.1l-0.4-0.2l-1.2-1.1l-0.4-0.5
		l-0.1-0.2l-0.1-0.3l-0.1-0.1l-0.2-0.1l-0.1,0.1h-0.1l-0.4-0.1l-1.2,0.1l0.1,0.3v0.2l0.1,0.3l0.2,0.2h0.2h0.3h0.3l0.1,0.2l0.1,0.6
		l0.4,0.5l0.9,0.9l0.4,0.2l1,0.3h0.5l0.1,0.1l0.1,0.3v0.3v0.3l-0.3,0.3l-0.1,0.2l-0.1,1.9l-0.1,0.3l-0.1,0.3l-0.5,3.7l-0.1,2.4
		l-0.1,0.4h-0.1l-0.7,0.4l-0.1,0.2l-1.6-0.3l-0.4-0.3l-0.9-0.7l-0.1,0.3l0.1,0.2l0.4,0.6l-0.5,0.2l-0.1,0.2v0.4v0.7v0.4l-0.3,1
		l-0.2,0.9l-0.4,1.1l-0.1,0.3l-0.1,0.2l0.6,1.6l-0.1,0.6l-0.3,1.1l-0.1,0.5l-0.1,0.5l-0.5,0.3l-0.5,0.2l-0.4,0.2l-0.4,0.3l-0.3,0.5
		l-0.3,0.6l-0.2,0.5l0.1,0.4l0.7,1.2l0.3,1.6l0.2,0.3v0.1l0.3,0.6l0.2,0.2l0.6,0.2l0.7,0.5h0.3l0.1,0.2l-0.1,0.6l0.1,0.2l0.3,0.2
		l0.2,0.4l0.3,0.3l0.4-0.4l0.3,1.3v0.7l-0.3,0.3l-1-0.2l-0.1-0.1l-0.4-0.5l-0.2-0.2v0.3v0.2l0.1,0.2l0.1,0.2l0.2,0.3l-0.1,0.2
		l-0.1,0.1l0.2,0.5l0.1,0.1l1.6-1l0.7-0.3h0.6l-0.2,0.3l-0.8,0.6l-0.1,0.3l-0.1,0.4l-0.1,0.8l-0.1,0.5l-0.1,0.4l-0.6,1.2l-0.6,1.5
		l-0.5,0.7l-3.1,1.7l-2.5,1.5l-1.4,0.6l-0.3,0.3l-0.4,0.3l-0.4,0.2l-0.5,0.1h-0.5h-0.5v-0.1l-0.2-0.6l-0.8-1.8l-0.2-0.4l-1.3-1.3
		l-1-0.8l-0.2-0.2l-0.9-1.2l-1.7-1.5l-0.3-0.2l-1.3-0.5l-4.2-0.6v-1v-7v-14.7l-0.1-14.7l0.1-13.3v-14.7l-0.1-12.9l0.1-1.2l-0.1-11.7
		V405v-5.8v-5.8v-10.7v-0.9l0.1-11.5v-5.7v-6.9l0.1-10.7l0.1-4.1l0.7-0.9l10.1,0.1l11.7-0.1h10.9h1.1l6.8-7.7l5-5.6l3.7-4.2l0.7-1.1
		l-0.2-0.8l0.2-0.6l0.2-0.2l0.2-0.2h0.1l0.1-0.1l0.5-0.1l0.3-0.1h0.4l0.3,0.1h0.2l0.6,0.4l0.3,0.1h2l0.1,0.1h0.1l0.8,0.6l0.6,0.6
		l0.2,0.1l0.1,0.1l0.4,0.1l0.5,0.1l0.3-0.1h0.1l0.5-0.1l0.5-0.3l0.1-0.3l0.8-1.5l0.1-0.3l0.1-0.6l0.2-1.2v-0.1l0.1-0.2l0.9-0.6
		l0.2-0.3l0.1-0.2l0.1-0.1v-0.2l-0.1-0.2v-0.2v-0.2v-0.2l0.1-0.3l0.1-0.2v-0.1h0.1l0.2-0.1h0.2l0.2-0.1l0.1-0.1l0.3-0.2l0.1-0.2
		l0.1-0.1v-0.4v-0.3v-0.1L568.8,314L568.8,314z M535.4,465.1l0.1-0.1l0.2,0.2l0.3,0.5l0.4,1.3v0.4l-0.2,0.4l-0.4,0.1l-0.5-0.2
		l-0.2-0.3l-0.4-0.3l-1.3-0.5l-0.5-0.3l-0.3-0.3l-0.9-1.3l-0.2-0.5v-0.4l0.4-0.1l0.7,0.4l2.1,0.5l0.4,0.7l0.1,0.2h0.1l0.1-0.1
		L535.4,465.1L535.4,465.1z M531.7,462.1l-0.3,0.3l-0.4-0.1l-0.2-0.3l0.2-0.5l1.7,0.1l0.7,0.2l0.7,0.5l0.1,0.4L534,463l-0.3,0.1
		h-0.4l-0.4-0.1L531.7,462.1L531.7,462.1z M530.3,498.4l0.5,0.1h0.7l0.6,0.6l0.4,0.8l0.4,0.7l-0.2,0.8l-0.6,0.8l-0.4,0.8l-0.5,0.6
		h-0.5l-0.5-0.2l0.1-0.8l-0.2-0.5l-0.6,0.4h-0.6l-0.3-0.4l0.3-0.5l0.5-0.8l0.1-1l0.4-1.4H530.3L530.3,498.4z M531,491.8h0.4l0.6,0.2
		l0.7,0.2l0.5,0.8l-0.1,1.2v1.5l0.1,1.5l-0.1,0.4l-0.2-0.6l-0.3-0.7l-0.5-0.6l-0.9-1.5l-0.5-1L531,491.8z"/>
	<path id="ARC" class="st0" d="M609.8,349l-0.1,0.3l-0.5,0.5l-0.7,0.1l-0.6,0.6l-0.8,1.5l-2-1.7l-0.4-1.4l0.5-2.2l1.3-1.1l0.5,0.3
		l0.4,0.2l0.4,0.3l0.7,0.5l0.3,0.3l0.4,0.6l0.3,0.6L609.8,349L609.8,349z"/>
	<path id="ARS" class="st0" d="M581.9,242.9l0.2,1.1l0.2,0.4l0.5,1.1l0.1,0.4v0.4l-0.2,0.9v1.4v0.4l-0.4,1.2l-0.1,0.4l-0.1,1.4
		l-0.2,0.5l-1.2,2.2l-1.1,1.5l-0.4,0.8l-1,1.3l-0.8,1.5l-1.2,1.8l-1.3,2.4l-0.3,0.3l-0.8,0.7l-0.2,0.3l-0.6,2.1h-0.1l-0.1,0.3
		l-0.9,1.1l-0.4,0.7l-0.1,0.2h-0.1l-0.3,0.1l-0.2,0.1l-0.1,0.1l-0.2,0.2l-0.2,0.4h-0.1l-0.3,0.2l-0.3,0.3l-0.1,0.2l-0.3,0.4
		l-0.5,0.6l-1.1,1.6l-0.6,0.7l-0.7,0.6l-0.4,0.2l-0.4,0.2l-0.4,0.1l-0.4,0.1h-1.5h-0.4h-0.4l-0.6,0.2h-0.1l-0.2,0.2l-0.1,0.2v0.2
		v0.2l0.1,0.2h-0.1v0.1v0.3v0.4l-0.3,0.7l-0.1,0.8v0.2l-0.2,0.4l-0.6,0.8l-0.2,0.5v0.6l0.1,0.6l0.2,0.6l0.6,0.8l0.2,0.5l0.1,0.5
		l-0.1,0.5l-0.7,1.2l-0.1,0.4l-0.1,0.5l0.2,1.4v0.6l-0.1,0.4l-0.4,1.5l-0.1,0.5l-0.1,0.5l0.2,1.5l-0.1,0.5l-0.1,0.5l-0.6,1.6
		l-0.1,0.5v0.4l0.2,0.4l0.7,1.2l0.3,0.4l0.1,0.5l0.2,2.2l0.1,1l0.3,0.9l1.1,2.3l0.4,0.6h0.1l0.2,0.2l0.1,0.1l0.1,0.2l0.5,1.7
		l0.1,0.2l1.2,1.5l1.3,0.9l0.3,0.2l0.3,0.1l0.2,0.1l0.2,0.2l0.4,0.4l0.2,0.5l0.1,0.1l0.5,0.5l0.6,0.3l0.4,0.5v0.1v0.3v0.4l-0.1,0.1
		l-0.1,0.2l-0.3,0.2l-0.1,0.1l-0.2,0.1h-0.2l-0.2,0.1h-0.1v0.1l-0.1,0.2l-0.1,0.3v0.2v0.2v0.2l0.1,0.2v0.2l-0.1,0.1l-0.1,0.2
		l-0.2,0.3l-0.9,0.6l-0.1,0.2v0.1l-0.2,1.2l-0.1,0.6l-0.1,0.3l-0.8,1.5l-0.1,0.3l-0.5,0.3l-0.5,0.1H564l-0.3,0.1l-0.5-0.1l-0.4-0.1
		l-0.1-0.1l-0.2-0.1l-0.6-0.6l-0.8-0.6H561l-0.1-0.1h-2l-0.3-0.1l-0.6-0.4h-0.2l-0.3-0.1h-0.4l-0.3,0.1l-0.5,0.1l-0.1,0.1h-0.1
		l-0.2,0.2l-0.2,0.2l-0.2,0.6l0.2,0.8l-0.7,1.1l-3.7,4.2l-5,5.6l-6.8,7.7h-1.1h-10.9l-11.7,0.1l8.4-13.7l6.3-10.3l4.7-7.6l0.5-0.8
		l0.3,0.1h0.2l0.3-0.1h0.1l0.1-0.1l0.3-0.1l0.3-0.3l0.7-0.8l0.3-0.6l0.1-0.1l0.1-0.5v-0.6v-1.5l0.1-0.5l0.3-0.6l0.1-0.4v-0.2v-0.2
		V303l-0.2-0.3v-0.2l-0.1-0.1l-0.6-0.4l-0.1-0.1v-0.2l-0.4-0.8l-0.6-1.1v-0.1l-0.1-0.1h-0.2l-0.1-0.1l-0.6-0.1h-0.2l-0.1-0.1v-0.2
		V299l0.3-0.4l0.1-0.1l0.1-0.2v-0.2V298l0.1-0.2v-0.3l-0.1-0.2l-0.1-0.1l-0.2-0.2l-0.1-0.1l-0.1-0.2l-0.1-0.1v-0.8l-0.2-0.8
		l-0.1-0.5l-0.1-0.2l-0.3-0.3l-0.2-0.3l-1.5-1.1l-0.5-0.8l-0.1-0.4l-0.6-2.1l-0.1-0.2l-0.1-0.1l-0.4-0.3l-0.6-0.3l-0.2-0.1l-0.6-0.8
		l-0.5-0.4l-0.5-0.6v-2l0.1-0.6l0.1-0.4l0.2-0.4l0.3-0.7v-0.2V282l-0.1-0.1l-0.2-0.2l-0.3-0.5v-0.1V281l-0.1-0.1l-0.1-1.5v-0.3
		l0.1-1.1v-0.3v-0.2v-0.1l-0.1-0.1l-0.3-0.6v-0.1v-0.3l0.3-0.3l0.8-0.8l0.9-0.8l0.4-0.8l5.3-19.9l0.2-1.4l-1-1.4l-4.6-5.1l-0.1-0.4
		l-0.1-0.6l1-6.3l1.8-11.7l1-6.3l1.8-11.5l2-13.2l1.2-8.4l20,0.1l14.6-0.1h9.2h15.1l-0.2,1l-0.4,0.7l-0.5,0.5l-0.6,0.5l-0.7,0.1
		h-0.8l-0.4,0.1l-0.4,0.2l-0.3,0.2l-0.2,0.4l-0.1,0.4v0.4v0.5l0.1,0.8v0.5l-0.2,1.3l0.1,0.4l0.4,1.1l0.1,0.4l-0.5,3l0.1,1.8
		l-0.1,0.5l-0.1,0.4l-0.1,0.4l-0.8,1.6l-0.1,0.4v0.4v0.2v0.2v0.2l-0.2,0.8v0.6l-0.2,0.5l-0.4,0.8l-0.2,0.4h-0.1v1.6l-0.1,0.8
		l-0.3,0.6l-0.3,0.3l-0.9,0.5l-0.6,0.5l-0.6,0.5l-0.6,0.5l-2,0.7l-0.6,0.4l-0.6,0.4l-0.4,0.6l-0.3,0.6l-0.7,2.9l-0.2,0.7v4.9
		l-0.8,3.2l-0.1,0.4l-0.6,1.3l-0.2,0.6l0.2,0.8l0.7,1.2l0.6,2l0.1,0.9v0.4l-0.1,0.4l-0.6,1.2l-0.2,0.4l-0.1,0.4v0.9l-0.1,0.5
		l-0.4,1.2v0.4L581.9,242.9L581.9,242.9z"/>
	<path id="ART" class="st0" d="M449.5,146.8l6.1,1l0.7,0.1l0.2-0.1l0.1-0.1l0.1-0.1l0.1-0.1l0.1-0.2v-0.1v-0.1v-0.2v-0.8v-0.3
		l0.1-0.5l0.2-0.4v-0.5v-0.9v-0.3l0.1-0.3v-0.1l0.1-0.1l0.2-0.1h0.1l0.1,0.1l0.5,0.2l0.1,0.1l1,0.3l0.5-0.1h0.3l2,0.5h0.3h0.1
		l0.1-0.1l1.1-0.6l0.6-0.2l0.2-0.1h0.2l0.1,0.1h0.1l0.1,0.1l0.3,0.6l0.1,0.6l0.2,0.3l0.1,0.3l0.3,0.2l4,1.6l0.3-0.1h0.2l0.4,0.1
		l0.4,0.3l0.7,0.3l0.4,0.1l0.3,0.1l0.1-0.1h0.3l0.2-0.1h0.1l0.4-0.3l0.4-0.4l0.2-0.1l1-0.4l0.7-0.1l1.1,0.3h0.3l4.4-0.1l0.1,1.6
		l-0.1,0.7l-0.7,2.5l-0.1,0.2v0.2l0.4,2.4l0.1,1.7v0.9v0.4l-0.1,0.1l-1.3-0.2l-0.3,0.1l-0.1,0.2l-0.6,2.2l-0.1,0.2l-0.1,0.2H479
		h-0.3h-0.3l-0.1,0.1h-0.2l-0.1,0.4l-0.3,1l-0.7,2.9l-0.3,0.6l-0.1,0.1h-0.2l-0.1,0.2l-0.2,0.2l-0.1,0.2l-0.1,0.2l-0.3,1.3l-0.2,1
		l-0.6,1.7l-0.4,0.5l-0.1,0.1l-0.5,1.4l-0.1,0.2l-0.1,0.1l-0.5,0.1l-0.2,0.1l-0.3,0.3l-1,1.2l-0.3,0.3l-1.3,1.5l0.1,0.1l0.3,0.2
		l0.4,0.1h0.3l0.4,0.2l0.4,0.3h0.1v0.2l-0.1,0.2l-0.2,0.4l-0.1,0.2l-0.1,0.1l-0.2,0.1l-0.1,0.1h-0.1H471h-0.2h-0.4l-0.1,0.1h-0.2
		l-0.2,0.7v0.5l0.9,2.1l0.5,1.2l0.1,0.3h-0.1H471l-0.1,0.1l-0.2,0.2l-0.6,1.9l-0.2,0.4l-0.2,0.2l-0.2,0.1h-0.3H469l-0.3-0.1h-0.2
		h-0.1l-0.3,0.1l-0.2,0.2l-0.6,0.3h-0.4h-0.3l-0.3-0.1l-0.4-0.2l-0.4-0.3l-0.4-0.4l-0.3-0.2l-0.3-0.2h-0.2h-0.2l-1.7,1.1l-0.6,0.7
		l-0.7,0.5l-0.2,0.1l-0.5,0.8l-0.5,1.1l-0.1,0.2l-0.3-0.1l-1.7-2.2l-0.2-0.3l-0.3-0.9l-0.2-1.2l-0.2-0.7l-0.1-0.1l-0.2-0.2l-0.9-0.5
		h-0.4l-0.2,0.1l-0.2,0.1l-0.5,0.2l-0.4-0.3l-0.1-0.1l-0.2-0.2l-0.1-0.3v-0.5l-0.3-0.9l-0.1-0.3l-0.1-0.1l-0.3-0.2l-0.2-0.1
		l-0.3-0.3l-0.1-0.1l-0.1-0.2l-0.1-0.2l-0.1-1l-0.3-0.6l-0.7-3.4l0.2-0.6v-0.1l-0.1-0.2h-0.1h-0.1l-0.6-0.1l-1.5-0.9l-0.3-0.1
		l-0.7-0.1l-0.4-0.1l-0.4-0.1l-0.2-0.2l-0.1-0.1v-0.1l0.1-0.1l0.5-0.8l0.4-0.9l0.6-0.7l0.5-0.4l0.4-0.5l0.1-0.2l0.1-0.1l0.1-0.2
		l0.1-0.3l0.4-0.7l0.5-0.7l0.7-0.7l1.4-1.5l0.6-0.9l0.2-0.6l0.1-0.3v-0.3v-1.3v-0.3l0.3-1.4v-0.2V158v-0.2v-0.2l-0.1-0.1v-0.1
		l-0.1-0.2h-0.1l-0.1-0.1l-0.9-0.5l-1.4-1.1l-0.7-0.7l-0.3-0.2l-0.5-0.2l-0.5-0.2h-0.4l-0.5-0.2l-0.3-0.2l-0.3-0.5l-0.1-0.3v-0.2
		v-0.4l0.4-1.1l0.5-1l0.1-0.6l0.1-0.5v-0.4l0.1-0.5l0.1-0.3l0.3-0.3l0.2-0.3l0.2-0.1L449.5,146.8L449.5,146.8z"/>
	<path id="ARG" class="st0" d="M482,146l0.1-0.8l0.1-0.1l0.7-1.5l0.2-0.4V143v-0.8l0.1-0.2l0.1-0.4l4.4-9.8l0.4-0.5l0.8,0.1l4,1.3
		l0.7,0.2l10.9,0.2h34.1l0.6,1.9l0.3,9.3v2.6v12.4V183v4.4l-1.2,8.4l-2,13.2l-1.8,11.5l-1,6.3l-1.8,11.7l-3.2-8.4l-1-0.6l-3.4-0.2
		l-7,0.1h-11.8l-0.5-0.1l-0.1-0.2l-0.1-0.1v-0.4v-0.2v-0.1l-0.2-0.1l-0.2-0.1l-0.7-0.1h-0.2l-0.1-0.2v-0.1l0.1-0.7v-0.1v-0.1v-0.1
		l-0.1-0.1l-0.1-0.1h-0.2l-0.8,0.2l-0.2-0.1l-1.5-0.4l-0.3-0.1l-2.4,0.4h-0.4l-1.2-0.1h-0.2l-0.2-0.1l-0.2-0.2l-0.3-0.2l-0.1-0.1
		l-0.2-0.1l-1.3-0.2l-0.1-0.1l-0.2-0.2l-0.2-0.3l-0.1-0.1l-1.5-0.9l-0.3-0.2l-0.1-0.2v-0.3l0.1-0.6l-0.1-0.3v-0.1l-0.2-0.1l-4.1-1
		H486l-2.3,0.5l-3.9,1.1l-6,1.5l-0.5-0.6l-0.2-0.5V223l-0.2-0.5l-1.4-2.4l-0.9-2.2l-0.9-6.9l0.1-2l-0.4-4.6V204l-0.1-0.1l-0.1-0.1
		l-0.4-0.4l-0.8-0.5h-0.2l-0.1-0.1v-0.1l-0.1-0.1v-0.8v-0.2l0.1-0.1l0.4-0.2l0.1-0.1l0.2-0.5l0.3-0.5l0.5-0.5l0.3-0.4l0.2-0.6
		l0.2-1.3l-0.2-3.5l-1.8-8.6l0.2-0.2l0.3-0.1h0.1h0.2l0.3,0.1h0.2h0.3l0.2-0.1l0.2-0.2l0.2-0.4l0.6-1.9l0.2-0.2l0.1-0.1h0.3h0.1
		l-0.1-0.3l-0.5-1.2l-0.9-2.1v-0.5l0.2-0.7h0.2l0.1-0.1h0.4h0.2h0.1h0.1l0.1-0.1l0.2-0.1l0.1-0.1l0.1-0.2l0.2-0.4l0.1-0.2V176h-0.1
		l-0.4-0.3l-0.4-0.2h-0.3l-0.4-0.1l-0.3-0.2l-0.1-0.1l1.3-1.5l0.3-0.3l1-1.2l0.3-0.3l0.2-0.1l0.5-0.1l0.1-0.1l0.1-0.2l0.5-1.4
		l0.1-0.1l0.4-0.5l0.6-1.7l0.2-1l0.3-1.3l0.1-0.2l0.1-0.2l0.2-0.2l0.1-0.2h0.2l0.1-0.1l0.3-0.6l0.7-2.9l0.3-1l0.1-0.4h0.2l0.1-0.1
		h0.3h0.3h0.1l0.1-0.2l0.1-0.2l0.6-2.2l0.1-0.2l0.3-0.1l1.3,0.2l0.1-0.1v-0.4v-0.9l-0.1-1.7l-0.4-2.4V151l0.1-0.2l0.7-2.5l0.1-0.7
		L482,146L482,146z"/>
	<path id="ARD" class="st0" d="M435.5,280.1l1.4,0.3l0.5,0.2l0.6,0.3l0.2,0.1h0.1h0.2h0.4l0.4-0.2l0.2-0.1l0.1,0.1l0.2,0.1l0.5,0.3
		h0.1l1.1-0.2h0.2l0.2,0.1l0.3,0.1l0.5,0.3h0.2h0.2l0.7-0.2h0.3l1,0.1l1-0.1l1.1-0.4l0.8-0.5l0.5-0.2l1-0.2h0.8l1,0.2h0.2l0.1,0.1
		l0.3,0.2l0.2,0.1h0.1l0.4,0.1h1l2-0.4h1.8l0.7,0.2l1,0.5l5.8,3.6l0.6,0.7l0.6,0.5l0.1,0.2l0.1,0.2l0.1,0.4v0.1v0.4v0.3v0.3l0.2,0.5
		l0.2,0.4l0.3,0.5v0.1l0.1,0.3v1v0.2v0.2l0.1,0.1l0.1,0.1l0.3,0.1l2.2-0.3l2.1-0.6l0.4-0.1h0.1h0.1l0.2,0.1l0.1,0.1h0.1v0.3l0.1,0.3
		v0.7v0.7L473,293v0.6v0.2l0.1,0.3l0.5,0.9l0.1,0.5l0.1,0.4l0.1,0.5l0.1,0.2v0.2l-0.1,0.8l-0.1,0.7l-0.5,1.1l-0.1,1l-0.1,0.2
		l-0.1,0.2l-0.1,0.1l-0.3,0.3l-0.1,0.2v0.1v0.3v0.4v0.1l-0.1,0.2l-0.3,0.5v0.2l-0.1,0.2v0.9v0.2l-0.1,0.2l-0.8,1.5v0.2l-0.1,0.2
		l0.1,0.3l0.1,0.4v0.2l-0.1,0.3l-0.5,1.1l-0.1,0.3v0.4l0.2,0.5v0.2v0.1l-0.1,0.2l-0.2,0.1l-0.1,0.1l-0.5,0.1h-0.2l-0.1,0.1v0.1
		l-0.1,0.1l-0.6,1.1l-0.1,0.3l-0.1,0.2l1,18.8v26v0.1l-0.1,21.4v4h-0.1h-0.8h-18.5h-0.8h-11.4l-0.2-0.1l-0.1-0.8v-0.4l0.3-1.2
		l0.1-1.9l0.9-4l0.2-2.6l0.7-1.4l0.1-0.5v-2.3l0.3-1.6v-0.4l-0.3-1.6l0.1-0.1l0.1-0.2l0.1-0.3v-0.3l-0.1-0.2L440,363l-0.2-0.3
		l0.4-1.5v-0.4l-0.1-0.4l-0.4-0.8l-0.1-0.3l-0.1-0.4l-0.3-1v-0.3l0.2-1.3l-0.1-0.5l-0.5-1.9l-2.5-4.9l-0.9-1.1l-0.2-0.4l-0.1-0.5
		l-0.5-1.6l-0.1-2.2l-0.2-0.5l-0.3-0.2l-0.2-0.4l0.3-0.5l-0.3-0.5v-1.9l-0.2-0.6v-0.3l0.3-0.5l0.1-0.4l0.1-0.1h0.1l0.3,0.2h0.1
		l0.3-0.4l0.1-0.5l0.1-1.3l0.1-0.8v-0.4l-0.4-0.6l-0.1-0.8l-0.2-0.4l-0.3-0.2l-0.3-0.2l-0.3-0.4l-0.2-1.1l-0.2-0.5l-0.4-0.3
		l-0.3-0.3l-0.7-0.5l-0.4-0.3l-0.2-0.3v-0.5l-0.5-1.7l-0.5-0.8l-0.3-1.1l-0.1-0.3l-0.3-0.8l-0.1-0.3l-0.4-0.4l-2-3.4l-0.2-0.6v-0.5
		v-1.1v-0.4l-0.5-1.2v-0.9l-0.2-0.2l-0.1-0.7l0.1-1.9l-0.1-2.3l-0.2-0.5l-0.1-0.2v-0.3l0.1-0.5v-0.3l-0.4-1l-0.2-0.7l0.1-0.3
		l0.4-0.3v-0.5l-0.3-1.1l0.1-0.2l0.1-0.7l0.4-0.7l-0.1-0.3l-0.2-0.3l-0.1-0.4l-0.1-0.4l-0.2-0.2l-0.2-0.2l-0.2-0.3l-0.2-0.2
		l-0.1-0.4l-0.4-2l-0.1-0.3v-0.4l-0.3-0.7l-0.1-0.7l-0.1-0.2l-0.1-0.2l-0.1-0.2l-0.1-0.1v-0.4v-0.2l-0.2-0.3l-0.2-0.2l-0.5-0.4
		l-0.5-2.2l-0.1-1.1v-1.6v-0.8v-1.5v-0.4l-0.1-0.5l0.1-0.2v-0.3l0.3-1.1l0.1-0.1v-0.2l-0.1-0.3v-0.2l-0.1-0.1v-0.1l0.1-0.4l-0.1-0.2
		l-0.1-0.6v-0.3v-0.1v-0.2l0.1-0.2l0.1-0.2l0.2-0.2l0.5-0.3l0.9,0.2l0.6,0.2h0.3l0.5,0.1l1.7-0.2l0.7-0.2h0.2h0.3l0.4,0.1l0.3,0.1
		l0.2,0.1l0.2,0.3h0.1l0.1,0.1h0.2l0.7,0.2L435.5,280.1L435.5,280.1z"/>
	<path id="ARL" class="st0" d="M404.1,423.4v-18.9l-0.2-14.3l-0.6-3.1l-0.1-0.3l-0.1-0.4l0.1-1.1l0.2-1.7l0.3-0.3l0.4-0.2h23h1.6
		h9.2h11.4h0.8h18.5h0.8h0.1v-4l0.1-21.4H482h11h11.8v6.9v5.7l-0.1,11.5v0.9v10.7v5.8v5.8v11.3l0.1,11.7l-0.1,1.2l0.1,12.9v14.7
		l-0.1,13.3l-1.8-0.2l-0.8-0.3l-0.6-0.6l-2.7-1.9l-0.7-0.3l-0.4-0.5l-0.5-0.9l-0.3-0.3l-0.3-0.2l-0.8-0.5l-1.4-0.3l-0.4-0.2
		l-1.8-2.2l-0.3-0.3l-1-0.1l-0.4-0.2l-1.5-1l-6.7-2.6h-1.5l-5.7-1.1l-0.4,0.2l-0.7-0.2l-1.5,0.2l-0.5-0.4h-0.2H469l-3.1,0.6l-1-0.1
		l-0.9,0.4h-0.3l-0.3-0.1l-0.8-0.6l-1.8-0.7l-1.1-0.2h-0.6l-0.4,0.3l-0.3,0.3l-0.5,0.3l-0.4,0.2h-0.4l-0.2-0.1l-0.2-0.2l-0.2-0.2
		l-0.3-0.1h-0.9h-0.2l-0.4-0.4l-0.2-0.1l-0.3-0.1l-0.8-0.1l-0.7-0.3l-0.6-0.1l-0.4-0.3h-0.2l-5.3-0.7l-2.8,0.5h-0.9l-2.4-0.7h-0.6
		l-0.5-0.2l-0.2-0.4l-0.2-1.3l-0.2-0.8l-0.5-0.7l-0.7-0.6l-0.7-0.4l-0.9-0.2l-0.2-0.1l-0.4-0.3l-0.1-0.1l-0.2-0.1l-0.8-0.5l-1-0.1
		l-0.4-0.2l-0.7-0.5l-0.9-0.2l-2.1-1.1h-0.2l-0.1-0.2l-0.3-0.4l-0.3-0.3l-0.8-1.1l-0.5-1.4v-0.3v-0.6l-0.1-0.4l-0.2-0.4l-0.5-0.2
		h-0.4l-1.8,0.3l-0.9,0.6l-0.6,0.2l-1.5-0.2l-0.6,0.3l-1.5,0.1l-0.8-0.4l-0.7-0.7l-0.6-0.8l-1.1-2.4l-0.6-0.6l-0.8-0.4h-0.2
		l-0.6,0.2h-0.2l-0.3-0.3h-0.2l-0.2-0.2l-0.2-0.6l-0.1-0.5l-0.1-0.5l0.1-1.3l0.5-0.9l0.6-0.6l1.4-1l0.5-0.7l0.3-1V428l-0.3-0.8
		l-0.5-0.9l-0.6-0.8l-0.6-0.5l-0.9-0.5L404.1,423.4L404.1,423.4z"/>
	<path id="ARX" class="st0" d="M463,238.1l4.5-1.2l1-0.6l1.8-1.9l2.2-2.5l0.2-0.4l0.1-0.5l-0.6-5.5l0.2-0.8l1.4-0.5l6-1.5l3.9-1.1
		l2.3-0.5h0.8l4.1,1l0.2,0.1v0.1l0.1,0.3l-0.1,0.6v0.3l0.1,0.2l0.3,0.2l1.5,0.9l0.1,0.1l0.2,0.3l0.2,0.2l0.1,0.1l1.3,0.2l0.2,0.1
		l0.1,0.1l0.3,0.2l0.2,0.2l0.2,0.1h0.2l1.2,0.1h0.4l2.4-0.4l0.3,0.1l1.5,0.4l0.2,0.1l0.8-0.2h0.2l0.1,0.1l0.1,0.1v0.1v0.1v0.1
		l-0.1,0.7v0.1l0.1,0.2h0.2l0.7,0.1l0.2,0.1l0.2,0.1v0.1v0.2v0.4l0.1,0.1l0.1,0.2l0.5,0.1h11.8l7-0.1l3.4,0.2l1,0.6l3.2,8.4l-1,6.3
		l0.1,0.6l0.1,0.4l4.6,5.1l1,1.4l-0.2,1.4l-5.3,19.9l-0.4,0.8l-0.9,0.8l-0.8,0.8l-0.3,0.3v0.3v0.1l0.3,0.6l0.1,0.1v0.1v0.2v0.3
		l-0.1,1.1v0.3l0.1,1.5l0.1,0.1v0.1v0.1l0.3,0.5l0.2,0.2l0.1,0.1v0.2v0.2l-0.3,0.7l-0.2,0.4l-0.1,0.4l-0.1,0.6v2l0.5,0.6l0.5,0.4
		l0.6,0.8l0.2,0.1l0.6,0.3l0.4,0.3l0.1,0.1l0.1,0.2l0.6,2.1l0.1,0.4l0.5,0.8l1.5,1.1l0.2,0.3l0.3,0.3l0.1,0.2l0.1,0.5l0.2,0.8v0.8
		l0.1,0.1l0.1,0.2l0.1,0.1l0.2,0.2l0.1,0.1l0.1,0.2v0.3l-0.1,0.2v0.1v0.2l-0.1,0.2l-0.1,0.1l-0.3,0.4v0.1v0.2l0.1,0.1h0.2l0.6,0.1
		l0.1,0.1h0.2l0.1,0.1v0.1l0.6,1.1l0.4,0.8v0.2l0.1,0.1l0.6,0.4l0.1,0.1v0.2l0.2,0.3v0.2v0.2v0.2l-0.1,0.4l-0.3,0.6l-0.1,0.5v1.5
		v0.6l-0.1,0.5l-0.1,0.1l-0.3,0.6l-0.7,0.8l-0.3,0.3l-0.3,0.1l-0.1,0.1h-0.1l-0.3,0.1H536l-0.3-0.1l-0.5,0.8l-4.7,7.6l-6.3,10.3
		l-8.4,13.7l-10.1-0.1l-0.7,0.9l-0.1,4.1l-0.1,10.7H493h-11h-12.4v-0.1v-26l-1-18.8l0.1-0.2l0.1-0.3l0.6-1.1l0.1-0.1V311l0.1-0.1
		h0.2l0.5-0.1l0.1-0.1l0.2-0.1l0.1-0.2v-0.1v-0.2l-0.2-0.5v-0.4l0.1-0.3l0.5-1.1l0.1-0.3v-0.2l-0.1-0.4l-0.1-0.3l0.1-0.2v-0.2
		l0.8-1.5l0.1-0.2v-0.2v-0.9l0.1-0.2V303l0.3-0.5l0.1-0.2v-0.1v-0.4v-0.3v-0.1l0.1-0.2l0.3-0.3l0.1-0.1l0.1-0.2l0.1-0.2l0.1-1
		l0.5-1.1l0.1-0.7l0.1-0.8v-0.2l-0.1-0.2l-0.1-0.5l-0.1-0.4l-0.1-0.5l-0.5-0.9l-0.1-0.3v-0.2V293l0.1-0.6v-0.7V291l-0.1-0.3v-0.3
		h-0.1l-0.1-0.1l-0.2-0.1h-0.1h-0.1l-0.4,0.1l-2.1,0.6l-2.2,0.3l-0.3-0.1l-0.1-0.1l-0.1-0.1v-0.2v-0.2v-1l-0.1-0.3v-0.1l-0.3-0.5
		l-0.2-0.4l-0.2-0.5v-0.3v-0.3v-0.4v-0.1l-0.1-0.4l-0.1-0.2l-0.1-0.2l-0.6-0.5l-0.6-0.7l-5.8-3.6l-1-0.5l-0.7-0.2h-1.8v-6.4
		l-0.1-8.5v-4.2l0.2-1.5l1.4-4.1l0.3-0.8l0.4-1.2l1.7-5.1v-0.4l0.2-0.7l0.5-1.7l0.3-0.9l0.1-0.3l0.4-0.7l0.3-0.7L463,238.1
		L463,238.1z"/>
</g>
<g id="points">
	<rect id="_x30_" x="314.4" y="895.6" class="st0" width="0" height="0"/>
	<rect id="_x31_" x="520.6" y="490.5" class="st0" width="0" height="0"/>
	<rect id="_x32_" x="685.6" y="82.8" class="st0" width="0" height="0"/>
</g>
<g id="label_points">
	<rect id="ARE_00000170999870819315231400000014467667040460055990_" x="588.8" y="287.9" class="st0" width="0" height="0"/>
	<rect id="ARA_00000183949491718829584250000018101907718583312513_" x="463.3" y="124.5" class="st0" width="0" height="0"/>
	<rect id="ARY_00000108304404532437131510000002412485381568167325_" x="452.1" y="68.9" class="st0" width="0" height="0"/>
	<rect id="ARP_00000100367616650105146060000002864820746762805122_" x="581.2" y="120.3" class="st0" width="0" height="0"/>
	<rect id="ARN_00000066490986793052053700000012861034362989753474_" x="693.4" y="158.5" class="st0" width="0" height="0"/>
	<rect id="ARH_00000111875091999648835520000010619405934875491772_" x="563.5" y="160.1" class="st0" width="0" height="0"/>
	<rect id="ARW_00000019646186373002521040000003582417712968146323_" x="619.8" y="204" class="st0" width="0" height="0"/>
	<rect id="ARK_00000054226903446286840260000002033806817771968416_" x="423.8" y="168.7" class="st0" width="0" height="0"/>
	<rect id="ARF_00000068641305017881996060000010921499241750596256_" x="429.4" y="223.5" class="st0" width="0" height="0"/>
	<rect id="ARJ_00000056410133195209026320000001457956735636149912_" x="391.6" y="254.2" class="st0" width="0" height="0"/>
	<rect id="ARM_00000111169870030626401830000000526942884420734394_" x="401.6" y="345.1" class="st0" width="0" height="0"/>
	<rect id="ARQ_00000039113340507845186910000014393342603796966572_" x="374.8" y="447.5" class="st0" width="0" height="0"/>
	<rect id="ARU_00000169522118299705845080000001258794336521909682_" x="396.6" y="599.8" class="st0" width="0" height="0"/>
	<rect id="ARR_00000119825172990004702760000016147948103506131123_" x="431.5" y="494.6" class="st0" width="0" height="0"/>
	<rect id="ARZ_00000085219732488009411810000008453206378367520933_" x="361.1" y="736.4" class="st0" width="0" height="0"/>
	<rect id="ARV_00000034049303470817134820000000802947513991655347_" x="408.1" y="926.1" class="st0" width="0" height="0"/>
	<rect id="ARB_00000128486424543880604080000001265670526851761596_" x="568.1" y="394" class="st0" width="0" height="0"/>
	<rect id="ARC_00000130610122105826839670000004698464328335623841_" x="607" y="348.5" class="st0" width="0" height="0"/>
	<rect id="ARS_00000167392487475986343460000001741975935486051739_" x="558.1" y="240.4" class="st0" width="0" height="0"/>
	<rect id="ART_00000048483399639478809150000006986600796430637194_" x="465.2" y="160.5" class="st0" width="0" height="0"/>
	<rect id="ARG_00000080185150897141182380000004828887246623423876_" x="506.7" y="180.8" class="st0" width="0" height="0"/>
	<rect id="ARD_00000155829662979254004110000012566938981807243914_" x="450.5" y="322" class="st0" width="0" height="0"/>
	<rect id="ARL_00000086674926127900528660000001975649426945835931_" x="461.2" y="419.1" class="st0" width="0" height="0"/>
	<rect id="ARX_00000111187433549274893250000009846102566754739106_" x="500.2" y="279.7" class="st0" width="0" height="0"/>
</g>
</svg>
