<?xml version="1.0" encoding="UTF-8"?><svg id="Capa_1" xmlns="http://www.w3.org/2000/svg" viewBox="0 0 356 146.13"><defs><style>.cls-1{fill:#3236d5;}</style></defs><g><polygon class="cls-1" points="66.52 19.72 57.89 27.59 66.52 35.46 72.2 40.64 72.2 55.17 47.64 32.77 47.64 22.4 72.2 0 72.2 14.53 66.52 19.72"/><polygon class="cls-1" points="5.69 19.72 14.31 27.59 5.69 35.46 0 40.64 0 55.17 24.57 32.77 24.57 22.4 0 0 0 14.53 5.69 19.72"/><path class="cls-1" d="M73.87,92.18l-5.61,11.18c-5.7,11.36-14.79,30.74-14.79,42.78h-8.85c0-9.23,4.5-22.77,8.72-33.7,.47-1.21-.43-2.52-1.73-2.52h-2.68c-1.84,0-3.49,1.17-4.06,2.92-3.56,10.86-4.27,24.18-4.27,33.29h-9.11v-36.53c0-1.67-2.2-2.26-3.04-.83-8.66,14.73-12.13,21.25-19.6,37.36H0c0-8.55,10.46-23.3,13.42-33.75,0,0-7.86-21.53,1.15-29.75l18.36-16.74c.81-.74,.81-2,0-2.73l-1.35-1.24c-.71-.64-1.79-.64-2.5,0l-5.89,5.38c-4.55,4.15-11.52,4.15-16.06,0-1.28-1.16-1.91-2.75-1.91-4.33s.64-3.17,1.91-4.34l22.5-20.52c3.67-3.35,9.29-3.35,12.96,0l25.61,23.35c8.56,7.81,10.88,20.35,5.68,30.71Z"/></g><g><path class="cls-1" d="M103.05,6.51h23.81c17.15,0,28.91,10.33,28.91,26.21s-11.76,26.21-28.91,26.21h-23.81V6.51Zm23.21,42.46c10.41,0,17.22-6.22,17.22-16.25s-6.81-16.25-17.22-16.25h-11.08V48.97h11.08Z"/><path class="cls-1" d="M189.09,18.05v10.78c-.97-.07-1.72-.15-2.62-.15-6.44,0-10.71,3.52-10.71,11.23v19.02h-11.68V18.65h11.16v5.32c2.85-3.89,7.64-5.92,13.85-5.92Z"/><path class="cls-1" d="M194.63,6.51c0-3.67,2.92-6.51,7.26-6.51s7.26,2.7,7.26,6.29c0,3.89-2.92,6.74-7.26,6.74s-7.26-2.85-7.26-6.51Zm1.42,12.13h11.68V58.93h-11.68V18.65Z"/><path class="cls-1" d="M260.15,18.65V52.19c0,14.98-8.09,21.87-22.61,21.87-7.64,0-15.05-1.87-19.77-5.54l4.64-8.39c3.44,2.77,9.06,4.57,14.23,4.57,8.24,0,11.83-3.74,11.83-11.01v-1.72c-3.07,3.37-7.49,5.02-12.73,5.02-11.16,0-20.14-7.71-20.14-19.47s8.99-19.47,20.14-19.47c5.62,0,10.26,1.87,13.33,5.77v-5.17h11.08Zm-11.53,18.87c0-5.92-4.42-9.88-10.56-9.88s-10.63,3.97-10.63,9.88,4.49,9.88,10.63,9.88,10.56-3.97,10.56-9.88Z"/><path class="cls-1" d="M312.57,18.65V52.19c0,14.98-8.09,21.87-22.61,21.87-7.64,0-15.05-1.87-19.77-5.54l4.64-8.39c3.44,2.77,9.06,4.57,14.23,4.57,8.24,0,11.83-3.74,11.83-11.01v-1.72c-3.07,3.37-7.49,5.02-12.73,5.02-11.16,0-20.14-7.71-20.14-19.47s8.99-19.47,20.14-19.47c5.62,0,10.26,1.87,13.33,5.77v-5.17h11.08Zm-11.53,18.87c0-5.92-4.42-9.88-10.56-9.88s-10.63,3.97-10.63,9.88,4.49,9.88,10.63,9.88,10.56-3.97,10.56-9.88Z"/><path class="cls-1" d="M319.53,55.19l3.89-8.39c3.59,2.32,9.06,3.89,14,3.89,5.39,0,7.41-1.42,7.41-3.67,0-6.59-24.34,.15-24.34-15.95,0-7.64,6.89-13.03,18.65-13.03,5.54,0,11.68,1.27,15.5,3.52l-3.89,8.31c-3.97-2.25-7.94-3-11.61-3-5.24,0-7.49,1.65-7.49,3.74,0,6.89,24.34,.22,24.34,16.1,0,7.49-6.96,12.81-19.02,12.81-6.81,0-13.7-1.87-17.45-4.34Z"/><path class="cls-1" d="M99.75,119.02c0-15.8,12.13-27.11,28.46-27.11,9.06,0,16.62,3.3,21.57,9.29l-7.79,7.19c-3.52-4.04-7.94-6.14-13.18-6.14-9.81,0-16.77,6.89-16.77,16.77s6.97,16.77,16.77,16.77c5.24,0,9.66-2.1,13.18-6.22l7.79,7.19c-4.94,6.07-12.51,9.36-21.64,9.36-16.25,0-28.38-11.31-28.38-27.11Z"/><path class="cls-1" d="M152.69,125.09c0-12.13,9.36-20.74,22.17-20.74s22.09,8.61,22.09,20.74-9.29,20.74-22.09,20.74-22.17-8.61-22.17-20.74Zm32.42,0c0-6.96-4.42-11.16-10.26-11.16s-10.33,4.19-10.33,11.16,4.49,11.16,10.33,11.16,10.26-4.19,10.26-11.16Z"/><path class="cls-1" d="M245.77,89.67v55.56h-11.16v-4.64c-2.92,3.52-7.19,5.24-12.58,5.24-11.38,0-20.14-8.09-20.14-20.74s8.76-20.74,20.14-20.74c4.94,0,9.14,1.57,12.06,4.87v-19.54h11.68Zm-11.46,35.42c0-6.96-4.49-11.16-10.26-11.16s-10.33,4.19-10.33,11.16,4.49,11.16,10.33,11.16,10.26-4.19,10.26-11.16Z"/><path class="cls-1" d="M295.79,128.38h-30.48c1.12,5.02,5.39,8.09,11.53,8.09,4.27,0,7.34-1.27,10.11-3.89l6.22,6.74c-3.74,4.27-9.36,6.52-16.62,6.52-13.93,0-22.99-8.76-22.99-20.74s9.21-20.74,21.49-20.74,20.97,7.94,20.97,20.89c0,.9-.15,2.17-.22,3.15Zm-30.63-6.81h19.84c-.82-5.09-4.64-8.39-9.88-8.39s-9.14,3.22-9.96,8.39Z"/></g></svg>