<?xml version="1.0" encoding="UTF-8"?>
<svg version="1.1" xmlns="http://www.w3.org/2000/svg" width="359" height="696">
<path d="M0 0 C3.2427015 3.18605807 6.45578357 6.41426159 9.56518555 9.73095703 C11.19903951 11.29423733 11.19903951 11.29423733 13.5456543 12.59033203 C19.47561465 16.16600962 24.76920147 21.27971267 29.1003418 26.66845703 C32.38210503 30.68466586 36.37489173 33.73936105 40.4128418 36.96533203 C46.68769487 41.99234501 52.49402852 47.35680062 58.0690918 53.14892578 C61.59813201 56.76355839 64.76372227 59.63563064 69.1628418 62.16845703 C69.4928418 63.15845703 69.8228418 64.14845703 70.1628418 65.16845703 C70.7403418 65.45720703 71.3178418 65.74595703 71.9128418 66.04345703 C74.26718243 67.22062735 75.727937 68.64102579 77.52612305 70.53564453 C80.57979333 73.58202682 83.89579274 76.35255311 87.15112305 79.18017578 C87.81499023 79.83630859 88.47885742 80.49244141 89.1628418 81.16845703 C89.1628418 81.82845703 89.1628418 82.48845703 89.1628418 83.16845703 C89.8847168 83.39533203 90.6065918 83.62220703 91.3503418 83.85595703 C94.72716597 85.43180831 96.72051219 87.3772232 99.1628418 90.16845703 C99.1628418 90.82845703 99.1628418 91.48845703 99.1628418 92.16845703 C100.05144897 92.57378662 100.05144897 92.57378662 100.95800781 92.98730469 C103.14394735 94.15833508 104.65216831 95.3628129 106.44018555 97.06689453 C107.03637695 97.62892578 107.63256836 98.19095703 108.24682617 98.77001953 C108.85848633 99.35525391 109.47014648 99.94048828 110.1003418 100.54345703 C114.01311732 104.26121617 117.94037831 107.80071366 122.1628418 111.16845703 C133.77318123 122.88755842 144.54315171 137.3933731 149.2409668 153.28173828 C150.13464006 156.26229106 150.13464006 156.26229106 151.58569336 159.36279297 C156.68183817 171.1802775 157.82199021 183.65811655 157.68432617 196.38012695 C157.66280996 198.73444096 157.68431061 201.08571645 157.7097168 203.43994141 C157.72967963 213.90087599 156.19397107 223.17286574 153.1628418 233.16845703 C152.87521973 234.13533447 152.58759766 235.10221191 152.29125977 236.09838867 C151.5260753 238.55864023 150.70870589 240.98929679 149.8503418 243.41845703 C149.55546875 244.26053711 149.2605957 245.10261719 148.95678711 245.97021484 C146.76347517 252.01168679 144.08537407 257.2727478 140.6472168 262.71142578 C139.32834561 264.89450467 138.45452784 266.82210744 137.6628418 269.23095703 C136.17871479 273.67411986 133.60599734 277.31551098 130.97924805 281.16455078 C129.14200952 284.2029087 127.75298376 287.23214403 126.34814453 290.48461914 C123.85258006 296.13523505 121.10557629 301.67217778 118.4128418 307.23095703 C118.10325531 307.87097656 117.79366882 308.51099609 117.47470093 309.17041016 C104.49431343 336.00155222 104.49431343 336.00155222 101.5690918 340.76220703 C100.1442674 343.20023989 99.2431285 345.49417359 98.3503418 348.16845703 C96.28384879 354.01834138 93.73407669 359.5604867 91.09594727 365.17089844 C83.89774316 380.42227632 83.89774316 380.42227632 77.91674805 396.17236328 C77.1628418 398.16845703 77.1628418 398.16845703 75.1628418 401.16845703 C74.40758568 403.62157573 73.7082723 406.0674128 73.0378418 408.54345703 C71.4618311 414.16378489 69.66365505 419.58199445 67.46069336 424.98730469 C56.89375812 451.05904431 51.02715614 477.07824076 50.1628418 505.16845703 C35.6428418 505.16845703 21.1228418 505.16845703 6.1628418 505.16845703 C6.1628418 488.95387895 6.1628418 488.95387895 7.4128418 481.10595703 C7.54851562 480.22020996 7.68418945 479.33446289 7.82397461 478.421875 C8.25483083 475.66799379 8.70627624 472.91818215 9.1628418 470.16845703 C9.37166992 468.86980713 9.37166992 468.86980713 9.5847168 467.54492188 C11.61577172 455.10706124 14.73872913 443.24285668 18.5769043 431.24267578 C19.95629489 426.91371582 21.10584484 422.58697652 22.1628418 418.16845703 C22.80066125 415.64558412 23.44636426 413.1246898 24.1003418 410.60595703 C24.41874023 409.36716797 24.73713867 408.12837891 25.06518555 406.85205078 C26.17211106 403.13735056 27.62098632 399.7205273 29.1628418 396.16845703 C29.63988844 394.51267609 30.08022735 392.84567753 30.4753418 391.16845703 C31.8222048 386.03223336 33.66005825 381.21058992 35.68066406 376.30395508 C38.22597864 370.10214557 40.52835229 363.81983793 42.80249023 357.51416016 C43.08125 356.74652344 43.36000977 355.97888672 43.6472168 355.18798828 C43.89181641 354.50841064 44.13641602 353.82883301 44.38842773 353.12866211 C45.1628418 351.16845703 45.1628418 351.16845703 46.24584961 349.07739258 C47.91986275 345.59253934 47.35290462 342.7386455 46.1628418 339.16845703 C37.98228251 335.58721658 28.42608957 336.16893783 20.1628418 339.21923828 C12.09909745 343.04636695 10.45977198 347.84898415 7.48950195 356.02099609 C4.68053617 363.99548307 2.75436457 371.69966572 1.75268555 380.11376953 C0.95014941 386.22430786 -0.50980472 392.23708414 -1.89770508 398.23681641 C-6.11947034 417.41342413 -7.36828971 437.11245015 -8.4621582 456.66845703 C-8.58388601 458.71667393 -8.70628167 460.76485124 -8.8293457 462.81298828 C-9.66371007 476.92576159 -10.27843189 491.04216902 -10.8371582 505.16845703 C-25.6871582 505.16845703 -40.5371582 505.16845703 -55.8371582 505.16845703 C-55.85903198 497.28555786 -55.85903198 497.28555786 -55.88134766 489.2434082 C-55.93159274 471.91672716 -55.99801796 454.59013642 -56.07287312 437.26354504 C-56.11787801 426.75423878 -56.15728177 416.24496676 -56.18359375 405.7355957 C-56.20653589 396.57781821 -56.23989132 387.42014866 -56.28585976 378.26245672 C-56.30984318 373.41153398 -56.32853833 368.56071849 -56.33477211 363.70973778 C-56.34079991 359.14691025 -56.36071565 354.58435732 -56.39143372 350.02163124 C-56.40025109 348.34423857 -56.40392892 346.66681006 -56.40216637 344.98939514 C-56.4005229 342.70425387 -56.41713203 340.419959 -56.43843079 338.13493347 C-56.44534423 336.21437779 -56.44534423 336.21437779 -56.45239735 334.255023 C-56.583881 331.20111007 -56.583881 331.20111007 -58.20582867 329.25648975 C-60.55474923 327.689852 -62.07622224 327.75431664 -64.8371582 328.16845703 C-67.48398947 330.33529299 -68.76271686 332.72920185 -70.2121582 335.79345703 C-72.58126484 340.69009081 -75.1524362 345.43877657 -77.8371582 350.16845703 C-78.4971582 350.16845703 -79.1571582 350.16845703 -79.8371582 350.16845703 C-80.08723633 350.84005859 -80.33731445 351.51166016 -80.5949707 352.20361328 C-82.09581763 355.7858234 -83.87830185 359.18707613 -85.7121582 362.60595703 C-86.05118164 363.24855469 -86.39020508 363.89115234 -86.73950195 364.55322266 C-88.89547934 368.59055673 -91.2939895 372.35893683 -93.8371582 376.16845703 C-94.70303435 377.8394924 -95.53578819 379.52804576 -96.3371582 381.23095703 C-99.21508717 387.11098956 -102.431752 392.75451948 -105.7121582 398.41845703 C-110.40879135 406.55179166 -114.78924821 414.76595513 -118.88842773 423.21386719 C-120.58391884 426.70694536 -122.29969274 430.18985073 -124.0246582 433.66845703 C-124.35908936 434.34368408 -124.69352051 435.01891113 -125.03808594 435.71459961 C-127.08390521 439.79858356 -129.31615256 443.64383219 -131.82543945 447.45361328 C-133.26172124 449.88808318 -134.10946307 452.44602708 -135.02856445 455.10986328 C-135.92561319 457.39365402 -137.0468224 459.41993554 -138.2746582 461.54345703 C-139.96292411 464.4916972 -141.38010922 467.36875285 -142.5871582 470.54345703 C-144.56968519 475.70611914 -146.90251728 480.67647006 -149.2746582 485.66845703 C-149.8320166 486.84287354 -149.8320166 486.84287354 -150.40063477 488.04101562 C-153.14414342 493.78755403 -155.98839718 499.47093499 -158.8371582 505.16845703 C-173.0271582 505.16845703 -187.2171582 505.16845703 -201.8371582 505.16845703 C-201.8371582 490.88516404 -199.37591807 480.48562112 -194.1262207 467.44189453 C-192.30010797 462.80467493 -190.72811497 458.08505112 -189.14575195 453.35986328 C-187.74314075 449.9391667 -185.89607481 447.23114489 -183.8371582 444.16845703 C-182.7959666 441.85321093 -181.79785862 439.51824407 -180.8371582 437.16845703 C-179.63693496 434.50900416 -178.39412999 431.86995205 -177.1496582 429.23095703 C-176.80298096 428.49514404 -176.45630371 427.75933105 -176.09912109 427.0012207 C-172.16101416 418.68349111 -168.02143864 410.46943843 -163.87084961 402.25634766 C-159.24007405 393.09527933 -159.24007405 393.09527933 -154.99731445 383.75048828 C-154.02840471 381.5940932 -153.01082877 379.48362771 -151.95825195 377.36767578 C-143.53114501 360.9895509 -143.53114501 360.9895509 -142.8371582 343.16845703 C-143.02793945 342.04052734 -143.2187207 340.91259766 -143.4152832 339.75048828 C-144.87230173 331.57593667 -146.65311884 323.59074039 -148.94750977 315.60717773 C-153.08244328 300.75825315 -154.34952673 286.42619823 -154.28320312 271.05664062 C-154.27464795 268.03984194 -154.30365462 265.02491628 -154.33520508 262.00830078 C-154.38564579 248.08552279 -153.52078696 235.21088561 -145.9699707 223.07080078 C-144.64752452 220.99645075 -144.64752452 220.99645075 -143.6496582 217.73095703 C-140.36699643 211.27882872 -134.59980445 205.71749406 -128.4621582 201.85595703 C-125.522958 199.96647118 -123.97669511 197.90973869 -121.8371582 195.16845703 C-119.85455395 193.48113426 -117.853924 191.81479646 -115.8371582 190.16845703 C-114.7234082 189.05470703 -114.7234082 189.05470703 -113.5871582 187.91845703 C-111.0497805 185.38107932 -108.47179548 182.91682729 -105.8371582 180.48095703 C-104.5996582 179.33046875 -104.5996582 179.33046875 -103.3371582 178.15673828 C-100.8371582 176.16845703 -100.8371582 176.16845703 -98.0871582 175.14892578 C-96.9734082 174.66359375 -96.9734082 174.66359375 -95.8371582 174.16845703 C-95.22303183 172.21721096 -95.22303183 172.21721096 -94.8371582 170.16845703 C-93.20043945 168.71142578 -93.20043945 168.71142578 -91.1496582 167.35595703 C-88.1569796 165.26108201 -85.90819487 163.22618072 -83.6496582 160.35595703 C-81.2093976 157.31061819 -79.74472099 156.71117409 -75.8371582 156.16845703 C-74.69506003 154.38616767 -74.69506003 154.38616767 -73.8371582 152.16845703 C-71.8996582 149.41845703 -71.8996582 149.41845703 -69.8371582 147.16845703 C-68.8471582 147.16845703 -67.8571582 147.16845703 -66.8371582 147.16845703 C-66.52198242 146.34861328 -66.52198242 146.34861328 -66.20043945 145.51220703 C-64.34188002 142.31697591 -61.75930913 140.09558373 -59.0246582 137.66845703 C-58.50323242 137.19537109 -57.98180664 136.72228516 -57.44458008 136.23486328 C-55.02485159 134.05378467 -52.650402 132.03392054 -50.0012207 130.12548828 C-47.68597764 128.35572854 -47.68597764 128.35572854 -47.06762695 125.83642578 C-47.00041365 121.95638481 -47.11372849 119.24408278 -49.3215332 115.96142578 C-52.63064162 112.71188131 -55.73106384 110.70423378 -60.3996582 110.23095703 C-64.28210251 110.55006204 -65.89160292 111.8124927 -68.3996582 114.73095703 C-68.95524414 115.45927734 -69.51083008 116.18759766 -70.08325195 116.93798828 C-73.59011474 121.39771801 -78.16568884 124.83887913 -82.5871582 128.35595703 C-84.82935078 130.09595955 -84.82935078 130.09595955 -86.6496582 131.98095703 C-99.00209345 144.33339228 -112.88552885 151.88775517 -130.6496582 152.35595703 C-141.42332961 152.2097081 -153.92550546 149.38551168 -162.8371582 143.16845703 C-162.8371582 142.50845703 -162.8371582 141.84845703 -162.8371582 141.16845703 C-163.6415332 140.82814453 -163.6415332 140.82814453 -164.4621582 140.48095703 C-171.91715532 136.3610902 -175.45297898 131.35144506 -177.8371582 123.16845703 C-179.09686492 114.12701368 -178.30470246 106.58244704 -172.8371582 99.16845703 C-167.15681737 92.26194607 -161.416386 85.98785732 -153.8371582 81.16845703 C-149.60685886 77.73698269 -145.50913299 74.17163705 -142.0871582 69.91845703 C-139.87172705 67.21070785 -137.60759134 65.28273495 -134.8371582 63.16845703 C-134.3627832 62.67345703 -133.8884082 62.17845703 -133.3996582 61.66845703 C-131.8371582 60.16845703 -131.8371582 60.16845703 -128.8996582 58.29345703 C-125.81522251 56.15323635 -124.12775245 54.10328091 -121.8371582 51.16845703 C-119.8371582 49.50179036 -117.8371582 47.8351237 -115.8371582 46.16845703 C-115.2184082 45.36408203 -114.5996582 44.55970703 -113.9621582 43.73095703 C-111.54537932 40.81660602 -108.92606244 38.86261195 -105.8684082 36.66064453 C-103.98619898 35.27794468 -102.22528652 33.82323013 -100.4621582 32.29345703 C-97.8371582 30.16845703 -97.8371582 30.16845703 -95.8371582 30.16845703 C-95.74305664 29.57548828 -95.64895508 28.98251953 -95.55200195 28.37158203 C-94.67770602 25.67703062 -93.56995503 24.70522947 -91.3996582 22.91845703 C-90.78219727 22.39767578 -90.16473633 21.87689453 -89.52856445 21.34033203 C-87.8371582 20.16845703 -87.8371582 20.16845703 -85.8371582 20.16845703 C-85.4659082 19.30220703 -85.4659082 19.30220703 -85.0871582 18.41845703 C-83.17588682 14.97816855 -80.90765738 12.76004868 -77.4621582 10.85595703 C-74.61181528 9.21506128 -74.61181528 9.21506128 -72.3371582 6.10595703 C-64.51989019 -3.36341402 -53.48074459 -10.92929878 -41.2121582 -12.64404297 C-25.02769567 -13.63648643 -11.99332058 -11.45751011 0 0 Z " fill="#3236D4" transform="translate(201.837158203125,190.83154296875)"/>
<path d="M0 0 C0.99 0.495 0.99 0.495 2 1 C2.11585057 10.05767569 2.20469265 19.11509637 2.25906086 28.17335129 C2.28515511 32.37950559 2.32054887 36.58515305 2.37719727 40.79101562 C2.43152494 44.84997792 2.46142183 48.90845274 2.47438622 52.96775055 C2.48362491 54.51636684 2.50166646 56.06495643 2.52865028 57.61336517 C2.56495412 59.78286879 2.56994531 61.95035869 2.56762695 64.12011719 C2.57873001 65.35477722 2.58983307 66.58943726 2.60127258 67.86151123 C2 71 2 71 -0.39875793 73.39874268 C-3 75 -3 75 -5.1875 75.5 C-5.785625 75.665 -6.38375 75.83 -7 76 C-7.6708843 77.33121617 -8.33685967 78.66490932 -9 80 C-10.46118164 81.7199707 -10.46118164 81.7199707 -12.16015625 83.42578125 C-12.78446533 84.05395752 -13.40877441 84.68213379 -14.05200195 85.3293457 C-14.71546631 85.98378662 -15.37893066 86.63822754 -16.0625 87.3125 C-16.74207764 87.98821045 -17.42165527 88.6639209 -18.12182617 89.36010742 C-22.1752391 93.34400845 -26.2990341 96.97464618 -30.890625 100.33203125 C-34.4133281 103.11757611 -37.45404805 106.37934146 -40.59375 109.58203125 C-46.03401976 115.04879583 -51.94026302 119.81608462 -58.1171875 124.421875 C-60.23342158 126.0453317 -60.23342158 126.0453317 -62 129 C-62.66 129 -63.32 129 -64 129 C-58.96198667 135.18955923 -53.6712723 140.31768637 -47.3359375 145.1796875 C-42.51579548 148.93585169 -37.9253846 152.74568049 -34.0625 157.5 C-31.19453748 160.98197075 -27.90088246 163.54201418 -24.3046875 166.2421875 C-18.8283132 170.41908315 -13.80632297 175.07351896 -9 180 C-7.62816616 181.39894518 -6.25291952 182.79454864 -4.875 184.1875 C-4.21242188 184.86167969 -3.54984375 185.53585938 -2.8671875 186.23046875 C-0.92056683 188.17553358 -0.92056683 188.17553358 2 190 C2.36076355 192.86001587 2.36076355 192.86001587 2.34057617 196.56103516 C2.34123329 197.57096779 2.34123329 197.57096779 2.34190369 198.6013031 C2.33981056 200.83084938 2.3164562 203.05964731 2.29296875 205.2890625 C2.28737463 206.83319691 2.28310366 208.37733664 2.28010559 209.92147827 C2.26864226 213.98883727 2.23916262 218.05587571 2.20599365 222.12310791 C2.17532462 226.27213199 2.16160706 230.42120778 2.14648438 234.5703125 C2.11429405 242.7136889 2.06308008 250.85680459 2 259 C-2 259 -2 259 -3.96484375 257.390625 C-4.61582031 256.68421875 -5.26679688 255.9778125 -5.9375 255.25 C-8.81206921 252.22105577 -11.70982949 249.57878229 -15 247 C-16.66666667 245.33333333 -18.33333333 243.66666667 -20 242 C-21.87851154 240.32352517 -23.78139499 238.67687854 -25.68359375 237.02734375 C-31.04640441 232.33375398 -36.4216612 227.61570603 -41.42578125 222.5390625 C-44.32200305 219.68239456 -47.37856559 217.10367336 -50.5 214.5 C-56.09342165 209.78514179 -61.3373597 204.83654758 -66.38476562 199.54101562 C-69.06024664 196.7738844 -71.76053442 194.37478789 -74.8828125 192.1171875 C-80.15022926 188.27414242 -84.49163687 183.60634607 -89 178.921875 C-92.85171464 174.9798858 -96.76072755 171.51231036 -101.22802734 168.28222656 C-103.3496993 166.74695223 -105.34078198 165.09770187 -107.3125 163.375 C-108.26576172 162.55128906 -108.26576172 162.55128906 -109.23828125 161.7109375 C-111.8408868 159.18335163 -113.79944447 157.25269257 -114.38768005 153.57850647 C-114.39308304 152.67869553 -114.39848602 151.77888458 -114.40405273 150.85180664 C-114.41673691 149.82716812 -114.42942108 148.8025296 -114.44248962 147.74684143 C-114.43955399 146.64573532 -114.43661835 145.54462921 -114.43359375 144.41015625 C-114.4388356 143.27348007 -114.44407745 142.13680389 -114.44947815 140.96568298 C-114.45589989 138.56249813 -114.45455943 136.15928186 -114.44604492 133.75610352 C-114.43753972 130.07967105 -114.46628903 126.40479439 -114.49804688 122.72851562 C-114.49965908 120.39322963 -114.49908099 118.05794089 -114.49609375 115.72265625 C-114.50732773 114.62357437 -114.51856171 113.52449249 -114.53013611 112.3921051 C-114.46043043 104.75504934 -114.46043043 104.75504934 -112.09228516 100.87158203 C-110.09025664 99.08073598 -108.11021489 97.39228709 -105.9375 95.8125 C-99.32990248 90.8213065 -93.22773905 85.23254939 -87.37890625 79.375 C-85.53008311 77.5292127 -83.68582668 75.80101592 -81.6875 74.125 C-81.09582031 73.62355469 -80.50414062 73.12210937 -79.89453125 72.60546875 C-79.26933594 72.07566406 -78.64414062 71.54585938 -78 71 C-74.41035328 67.91632253 -70.84738425 64.84738425 -67.5 61.5 C-64.73007135 58.73007135 -61.81114995 56.19194164 -58.84765625 53.6328125 C-56.90547582 51.95818551 -56.90547582 51.95818551 -54.875 49.8125 C-53 48 -53 48 -50.0625 46.125 C-46.6850926 43.78149282 -44.58278503 41.17881235 -42 38 C-39.5 36 -39.5 36 -37 34 C-36.14862383 32.9730275 -35.31580642 31.93044956 -34.5 30.875 C-32.01478648 28.01700445 -30.57650571 27.02185877 -27 26 C-27 25.34 -27 24.68 -27 24 C-25.3203125 22.4921875 -25.3203125 22.4921875 -23.125 20.875 C-22.04605469 20.06675781 -22.04605469 20.06675781 -20.9453125 19.2421875 C-19 18 -19 18 -17 18 C-16.79375 17.278125 -16.5875 16.55625 -16.375 15.8125 C-14.52471012 12.02781616 -12.39759562 10.47741347 -9 8 C-8.34 8 -7.68 8 -7 8 C-6.773125 7.4225 -6.54625 6.845 -6.3125 6.25 C-4.66961977 3.4336339 -2.60466773 1.91922886 0 0 Z " fill="#3337D3" transform="translate(337,11)"/>
<path d="M0 0 C3.1430331 1.49693524 5.20635255 2.99812823 7.6171875 5.52734375 C8.29998779 6.23197754 8.98278809 6.93661133 9.6862793 7.66259766 C10.40855713 8.41331543 11.13083496 9.1640332 11.875 9.9375 C17.75328605 15.95304937 23.7316505 21.39781108 30.44921875 26.44995117 C34.00937916 29.14775465 36.90681627 31.86620734 39.64453125 35.37890625 C44.35395156 41.01121008 50.72627249 45.46286118 56.5 49.9375 C60.15660605 52.95419999 63.32685152 56.13986584 66.25 59.875 C69.07193928 63.37747126 72.58290375 65.85939521 76.20703125 68.484375 C76.79871094 68.98453125 77.39039062 69.4846875 78 70 C78 70.66 78 71.32 78 72 C79.051875 72.2784375 79.051875 72.2784375 80.125 72.5625 C83.51783746 74.25891873 84.98697858 76.22448113 87.328125 79.1328125 C89.64203614 81.71704037 92.31044692 83.58700377 95.12109375 85.59765625 C97.66476412 87.49615451 99.78787084 89.72965691 102 92 C103.09637145 92.90535685 104.20069418 93.80116529 105.3125 94.6875 C106.199375 95.450625 107.08625 96.21375 108 97 C108 97.66 108 98.32 108 99 C108.86625 99.37125 108.86625 99.37125 109.75 99.75 C112.60618681 101.33677045 114.02775262 102.32788239 116 105 C116.73855272 108.58130468 116.82405177 112.15234396 116.91796875 115.80078125 C116.94788406 116.8693486 116.97779938 117.93791595 117.00862122 119.03886414 C117.05956059 121.30570252 117.09827694 123.57284347 117.12573242 125.84008789 C117.1866944 129.26721132 117.34911703 132.68003245 117.51367188 136.10351562 C117.77372859 146.1670393 117.90431942 154.25604625 110.76863098 161.94682312 C107.66749044 164.8648915 104.4396636 167.49393153 101 170 C100.14100098 170.67272949 99.28200195 171.34545898 98.39697266 172.03857422 C97.09279385 173.04331223 95.77317517 174.02822374 94.44140625 174.99609375 C90.17653769 178.49669786 86.39944758 182.52223938 82.578125 186.49609375 C78.35316484 190.83816368 73.89923615 194.44981913 69 198 C65.10551649 201.14050101 61.46501029 204.30270026 58.375 208.25 C55.38651976 211.91356393 51.80094677 214.5904543 48.0625 217.4375 C43.36510574 221.01716281 39.31672463 224.54908682 35.578125 229.15625 C32.73199851 232.48142748 29.3601933 235.2116043 26 238 C24.576875 239.2065625 24.576875 239.2065625 23.125 240.4375 C21 242 21 242 19 242 C19 242.66 19 243.32 19 244 C17.33333333 245.33333333 15.66666667 246.66666667 14 248 C12.79133309 249.4631231 11.5832897 250.92690615 10.39453125 252.40625 C7.90843359 255.24750447 5.07882858 257.81302353 2 260 C1.34 260 0.68 260 0 260 C0 236.57 0 213.14 0 189 C0.66 189 1.32 189 2 189 C2 188.34 2 187.68 2 187 C7.47619048 182 7.47619048 182 10 182 C10.2578125 181.41734375 10.515625 180.8346875 10.78125 180.234375 C12.09834017 177.8197097 13.55088384 176.18259823 15.5 174.25 C16.1084375 173.63640625 16.716875 173.0228125 17.34375 172.390625 C19 171 19 171 21 171 C21 170.34 21 169.68 21 169 C22.39598704 168.04664299 23.79730583 167.10027675 25.22265625 166.19140625 C29.67526769 163.20668869 33.52462066 159.68755199 36.9375 155.5625 C41.37480061 150.21890722 46.6484536 145.94601235 52.25 141.875 C55.40462945 139.55668557 57.65242078 137.1570893 60 134 C61.64783606 132.31471312 63.31002677 130.64302953 65 129 C64.1028125 128.5978125 64.1028125 128.5978125 63.1875 128.1875 C61.00152146 127.00082594 59.58667406 125.90400887 58 124 C58 123.34 58 122.68 58 122 C56.9790625 121.7215625 56.9790625 121.7215625 55.9375 121.4375 C52.49659512 119.75365293 50.50785443 117.67200367 47.88671875 114.92578125 C46.00302603 113.00308868 44.04337379 111.25089863 42 109.5 C38.64292857 106.61317982 35.51767271 103.56949309 32.4453125 100.3828125 C31.02890223 98.89145515 31.02890223 98.89145515 29 98 C29 97.34 29 96.68 29 96 C27.88625 95.62488281 27.88625 95.62488281 26.75 95.2421875 C23.77445649 93.89812097 22.21769333 92.49471263 20 90.125 C17.7860014 87.81510316 15.69256539 85.75405231 13.1875 83.75 C10.99868281 81.99894624 9.49675464 80.36329679 8 78 C8 77.34 8 76.68 8 76 C7.05125 75.71125 6.1025 75.4225 5.125 75.125 C2 74 2 74 0 72 C-0.24050903 69.02609253 -0.24050903 69.02609253 -0.22705078 65.16357422 C-0.22734283 64.46102509 -0.22763489 63.75847595 -0.22793579 63.03463745 C-0.22654023 60.70786269 -0.21096872 58.38140646 -0.1953125 56.0546875 C-0.19158317 54.44328995 -0.18873582 52.83189013 -0.18673706 51.2204895 C-0.17909431 46.97566486 -0.15944039 42.7309767 -0.1373291 38.48620605 C-0.11688443 34.1561874 -0.1077383 29.82614674 -0.09765625 25.49609375 C-0.07619504 16.99733314 -0.04205145 8.49868354 0 0 Z " fill="#3438D4" transform="translate(0,11)"/>
<path d="M0 0 C3.77088145 1.74846426 6.24042594 3.85715176 9 7 C9 7.99 9 8.98 9 10 C6.69 10.66 4.38 11.32 2 12 C2 31.47 2 50.94 2 71 C3.98 71.66 5.96 72.32 8 73 C6.02 73.99 6.02 73.99 4 75 C2.02838135 73.93437195 2.02838135 73.93437195 0 72 C-0.48101807 68.90583801 -0.48101807 68.90583801 -0.45410156 65.05004883 C-0.45468567 64.34735367 -0.45526978 63.64465851 -0.45587158 62.92066956 C-0.4530857 60.59895351 -0.42197257 58.27852285 -0.390625 55.95703125 C-0.38316434 54.34706829 -0.37747058 52.73709625 -0.37347412 51.12712097 C-0.35820384 46.89033929 -0.31891056 42.6541064 -0.2746582 38.4175415 C-0.23373523 34.09419174 -0.2154695 29.77075326 -0.1953125 25.44726562 C-0.15241717 16.96459194 -0.08414959 8.48236424 0 0 Z " fill="#494DD9" transform="translate(0,11)"/>
<path d="M0 0 C0.99 0 1.98 0 3 0 C2.34 13.2 1.68 26.4 1 40 C0.01 40 -0.98 40 -2 40 C-2.22297226 37.12546578 -2.42878171 34.2513818 -2.625 31.375 C-2.68945312 30.56675781 -2.75390625 29.75851562 -2.8203125 28.92578125 C-3.13910127 24.02440385 -2.68779752 20.66626373 -1 16 C-0.62989305 13.21482366 -0.49676815 10.43074103 -0.375 7.625 C-0.33632812 6.88894531 -0.29765625 6.15289063 -0.2578125 5.39453125 C-0.16442002 3.59672594 -0.0811629 1.79839892 0 0 Z " fill="#5961D0" transform="translate(191,632)"/>
<path d="M0 0 C1.32 0.33 2.64 0.66 4 1 C-3.5664755 9.51228494 -14.85372192 13.0047966 -26 14 C-29.33538723 14.06877087 -32.66458588 14.06039985 -36 14 C-36.33 13.34 -36.66 12.68 -37 12 C-32.71 12 -28.42 12 -24 12 C-23.67 11.01 -23.34 10.02 -23 9 C-22.401875 9.20625 -21.80375 9.4125 -21.1875 9.625 C-18.71549154 10.30671915 -18.71549154 10.30671915 -16 8 C-13.51953125 7.5859375 -13.51953125 7.5859375 -10.8125 7.375 C-9.91144531 7.30023438 -9.01039062 7.22546875 -8.08203125 7.1484375 C-7.39496094 7.09945313 -6.70789063 7.05046875 -6 7 C-6 6.01 -6 5.02 -6 4 C-4.02 3.34 -2.04 2.68 0 2 C0 1.34 0 0.68 0 0 Z " fill="#4A4DC4" transform="translate(102,329)"/>
<path d="M0 0 C-1.54402511 4.01081079 -4.10387171 5.94606664 -7.4375 8.5625 C-11.90250167 12.07827365 -11.90250167 12.07827365 -16 16 C-17.66666667 17.66666667 -19.33333333 19.33333333 -21 21 C-21.721875 21.763125 -22.44375 22.52625 -23.1875 23.3125 C-25 25 -25 25 -27 25 C-26.43999183 21.52794934 -25.4463754 20.19516385 -22.6875 18.0625 C-20.46330931 16.26603829 -18.82969553 14.78025229 -17.0625 12.5 C-14.64700516 9.57212747 -11.96337184 7.6291974 -8.89453125 5.42578125 C-6.83425182 3.95092366 -6.83425182 3.95092366 -4.6875 1.625 C-3 0 -3 0 0 0 Z " fill="#5758C9" transform="translate(105,222)"/>
<path d="M0 0 C0.33 0 0.66 0 1 0 C1.22278071 2.56197812 1.42862563 5.12347556 1.625 7.6875 C1.72167969 8.7693457 1.72167969 8.7693457 1.8203125 9.87304688 C2.13102342 14.12590254 1.97020088 17.18743571 0 21 C-0.66 21 -1.32 21 -2 21 C-2 25.29 -2 29.58 -2 34 C-2.66 34 -3.32 34 -4 34 C-4 37.63 -4 41.26 -4 45 C-4.33 45 -4.66 45 -5 45 C-5.62500186 33.81941111 -3.7581184 23.00533587 -2 12 C-1.88833496 11.30052246 -1.77666992 10.60104492 -1.66162109 9.88037109 C-1.13026343 6.58290271 -0.57888928 3.28945319 0 0 Z " fill="#6066D0" transform="translate(213,649)"/>
<path d="M0 0 C0.66 0.33 1.32 0.66 2 1 C2 1.99 2 2.98 2 4 C2.66 3.67 3.32 3.34 4 3 C4 2.34 4 1.68 4 1 C4.99 1.33 5.98 1.66 7 2 C7 2.66 7 3.32 7 4 C7.99 4 8.98 4 10 4 C10.66 4.33 11.32 4.66 12 5 C11.67 6.98 11.34 8.96 11 11 C11.639375 11.268125 12.27875 11.53625 12.9375 11.8125 C15 13 15 13 16 16 C15.01 16 14.02 16 13 16 C13 15.34 13 14.68 13 14 C12.319375 13.814375 11.63875 13.62875 10.9375 13.4375 C6.79571719 11.41067012 4.12926416 8.32947775 1 5 C0.195625 4.195625 -0.60875 3.39125 -1.4375 2.5625 C-1.953125 2.046875 -2.46875 1.53125 -3 1 C-2.01 0.67 -1.02 0.34 0 0 Z " fill="#565BCD" transform="translate(45,119)"/>
<path d="M0 0 C5.75 1.625 5.75 1.625 8 5 C7.9375 6.9375 7.9375 6.9375 7 9 C5.38263741 10.3927289 3.7074998 11.71937515 2 13 C0.7315625 14.3921875 0.7315625 14.3921875 -0.5625 15.8125 C-1.366875 16.534375 -2.17125 17.25625 -3 18 C-5.15234375 17.63671875 -5.15234375 17.63671875 -7 17 C-3.13635705 12.51282966 0.74790208 8.12324647 5 4 C4.360625 3.71125 3.72125 3.4225 3.0625 3.125 C1 2 1 2 0 0 Z " fill="#4D51CC" transform="translate(60,136)"/>
<path d="M0 0 C0.66 0.33 1.32 0.66 2 1 C-1.75 5.875 -1.75 5.875 -4 7 C-3.34 7.66 -2.68 8.32 -2 9 C-7.75 12 -7.75 12 -10 12 C-10.66 13.32 -11.32 14.64 -12 16 C-12.99 15.67 -13.98 15.34 -15 15 C-15.99 15.495 -15.99 15.495 -17 16 C-15.50958227 12.20620942 -13.30937488 10.31656242 -10 8 C-9.34 8 -8.68 8 -8 8 C-8 7.34 -8 6.68 -8 6 C-6.25 4.4921875 -6.25 4.4921875 -4 2.875 C-3.2575 2.33617187 -2.515 1.79734375 -1.75 1.2421875 C-0.88375 0.62730469 -0.88375 0.62730469 0 0 Z " fill="#535AD0" transform="translate(318,29)"/>
<path d="M0 0 C2 2 2 2 2 4 C1.67 4.66 1.34 5.32 1 6 C0.175 6.268125 -0.65 6.53625 -1.5 6.8125 C-6.41190723 8.47903995 -10.33190595 11.33924214 -14 15 C-15.27839567 17.6139428 -15.27839567 17.6139428 -16 20 C-16.33 19.34 -16.66 18.68 -17 18 C-17.66 17.67 -18.32 17.34 -19 17 C-18.50371094 16.5875 -18.00742188 16.175 -17.49609375 15.75 C-13.10807453 12.01976734 -9.26544059 8.17744966 -5.640625 3.69921875 C-3.88886609 1.88489702 -2.30419655 0.98679722 0 0 Z " fill="#5255CD" transform="translate(261,81)"/>
<path d="M0 0 C0.66 0.66 1.32 1.32 2 2 C1.01 2.33 0.02 2.66 -1 3 C-1.33 3.66 -1.66 4.32 -2 5 C-2.66 5 -3.32 5 -4 5 C-4.33 4.34 -4.66 3.68 -5 3 C-6.98 3.33 -8.96 3.66 -11 4 C-11 4.66 -11 5.32 -11 6 C-11.7425 6.061875 -12.485 6.12375 -13.25 6.1875 C-16.22551399 6.77675599 -16.22551399 6.77675599 -18 9.5625 C-20 12 -20 12 -22.75 12.3125 C-23.86375 12.1578125 -23.86375 12.1578125 -25 12 C-18.84349954 5.28381768 -9.47243345 -1.10144575 0 0 Z " fill="#6467CF" transform="translate(162,179)"/>
<path d="M0 0 C0.33 0.99 0.66 1.98 1 3 C0.01 3.33 -0.98 3.66 -2 4 C-1.67 5.32 -1.34 6.64 -1 8 C-1.99 8.495 -1.99 8.495 -3 9 C-3.99 8.67 -4.98 8.34 -6 8 C-6.268125 8.598125 -6.53625 9.19625 -6.8125 9.8125 C-8.02300334 12.04237457 -8.991379 13.45490692 -11 15 C-12.32 15 -13.64 15 -15 15 C-15 15.66 -15 16.32 -15 17 C-16.32 17.33 -17.64 17.66 -19 18 C-13.53969708 10.97961053 -6.84041967 5.6123918 0 0 Z " fill="#5456C9" transform="translate(154,319)"/>
<path d="M0 0 C0.28875 0.61875 0.5775 1.2375 0.875 1.875 C1.93720042 4.13325765 1.93720042 4.13325765 4 6 C2.25 6.625 2.25 6.625 0 7 C-1.32 6.34 -2.64 5.68 -4 5 C-4 7.97 -4 10.94 -4 14 C-4.99 14.495 -4.99 14.495 -6 15 C-6.33 13.35 -6.66 11.7 -7 10 C-7.66 10 -8.32 10 -9 10 C-9 10.66 -9 11.32 -9 12 C-10.65 12.33 -12.3 12.66 -14 13 C-13.04882866 11.8274869 -12.08882991 10.66212985 -11.125 9.5 C-10.59132813 8.8503125 -10.05765625 8.200625 -9.5078125 7.53125 C-9.01023437 7.0259375 -8.51265625 6.520625 -8 6 C-7.34 6 -6.68 6 -6 6 C-6 5.34 -6 4.68 -6 4 C-4.03852126 2.61061923 -2.03833424 1.2739589 0 0 Z " fill="#585AD0" transform="translate(27,176)"/>
<path d="M0 0 C1.21185102 3.6713126 0.94556795 6.90650043 0.66015625 10.734375 C0.56669922 12.02988281 0.47324219 13.32539062 0.37695312 14.66015625 C0.27227354 16.02344811 0.16745406 17.38672924 0.0625 18.75 C-0.03899651 20.12886331 -0.13991441 21.50776934 -0.24023438 22.88671875 C-0.48779631 26.25827648 -0.7412744 29.62928357 -1 33 C-1.99 33 -2.98 33 -4 33 C-3.84660156 32.10152344 -3.69320312 31.20304688 -3.53515625 30.27734375 C-2.74350665 24.73579656 -2.63978659 19.15025261 -2.4375 13.5625 C-2.39431641 12.44939453 -2.35113281 11.33628906 -2.30664062 10.18945312 C-2.20120112 7.45974156 -2.09907971 4.72994857 -2 2 C-1.34 2 -0.68 2 0 2 C0 1.34 0 0.68 0 0 Z " fill="#5E60C3" transform="translate(253,663)"/>
<path d="M0 0 C3.77088145 1.74846426 6.24042594 3.85715176 9 7 C9 7.99 9 8.98 9 10 C6.36 10.33 3.72 10.66 1 11 C-0.20272819 8.59454362 -0.10071472 7.05003047 -0.0625 4.375 C-0.05347656 3.55773437 -0.04445312 2.74046875 -0.03515625 1.8984375 C-0.02355469 1.27195312 -0.01195312 0.64546875 0 0 Z " fill="#383BCF" transform="translate(0,11)"/>
<path d="M0 0 C0 3.1819944 -0.41086442 4.32356113 -2 7 C-3 8 -4 9 -5 10 C-5.4125 10.845625 -5.825 11.69125 -6.25 12.5625 C-8.65872153 15.917505 -11.05868466 16.18199116 -15 17 C-14.62449315 14.45852609 -14.31242047 13.27812133 -12.36328125 11.54296875 C-11.68652344 11.09566406 -11.00976562 10.64835937 -10.3125 10.1875 C-6.17496027 7.27258462 -3.10379366 3.97379643 0 0 Z " fill="#3B3DCA" transform="translate(121,348)"/>
<path d="M0 0 C2.44959258 3.67438887 2.07735068 5.66836193 2 10 C2.33 10.99 2.66 11.98 3 13 C3.66 13 4.32 13 5 13 C4.67 14.65 4.34 16.3 4 18 C4.99 17.67 5.98 17.34 7 17 C7.79953138 20.28696233 8.09658936 21.71023192 7 25 C6.34 25 5.68 25 5 25 C0.17918537 16.5635744 -0.63267044 9.63065 0 0 Z " fill="#5053CB" transform="translate(24,300)"/>
<path d="M0 0 C3 2 3 2 3.73046875 4.3828125 C3.88128906 5.28773438 4.03210938 6.19265625 4.1875 7.125 C4.34605469 8.03507812 4.50460937 8.94515625 4.66796875 9.8828125 C4.77753906 10.58148438 4.88710938 11.28015625 5 12 C1 12 1 12 -1.140625 10.25 C-1.83671875 9.5075 -2.5328125 8.765 -3.25 8 C-3.95640625 7.2575 -4.6628125 6.515 -5.390625 5.75 C-5.92171875 5.1725 -6.4528125 4.595 -7 4 C-6.34 3.67 -5.68 3.34 -5 3 C-2.375 4.4375 -2.375 4.4375 0 6 C-0.2784375 4.7934375 -0.2784375 4.7934375 -0.5625 3.5625 C-0.706875 2.716875 -0.85125 1.87125 -1 1 C-0.67 0.67 -0.34 0.34 0 0 Z " fill="#4E51CB" transform="translate(334,258)"/>
<path d="M0 0 C2.475 0.99 2.475 0.99 5 2 C3.23570801 6.97209562 0.6060834 11.43438061 -2 16 C-2.5534764 13.92446352 -3 12.15634036 -3 10 C-2.34 10 -1.68 10 -1 10 C-1 9.01 -1 8.02 -1 7 C-1.66 6.67 -2.32 6.34 -3 6 C-2.42655063 3.13275314 -2.1385485 2.1385485 0 0 Z " fill="#5659D1" transform="translate(92,584)"/>
<path d="M0 0 C0.99 1.32 1.98 2.64 3 4 C1.68 4.33 0.36 4.66 -1 5 C-1.03738281 5.73605469 -1.07476562 6.47210937 -1.11328125 7.23046875 C-1.79153812 17.2979286 -1.79153812 17.2979286 -5 21 C-5.99 21.33 -6.98 21.66 -8 22 C-7.30571213 17.51316466 -5.71674868 13.48695256 -4 9.3125 C-3.72671875 8.63638672 -3.4534375 7.96027344 -3.171875 7.26367188 C-2.17508395 4.80834098 -1.18559383 2.37118766 0 0 Z " fill="#666BCE" transform="translate(241,559)"/>
<path d="M0 0 C2.125 0.375 2.125 0.375 4 1 C1.11888568 4.04117622 -1.28972897 6.14486448 -5 8 C-5.845625 8.845625 -6.69125 9.69125 -7.5625 10.5625 C-10 13 -10 13 -13 14 C-13.33 14.66 -13.66 15.32 -14 16 C-13.73965207 12.41227847 -13.18104639 11.17755914 -10.56640625 8.61328125 C-9.07947266 7.47439453 -9.07947266 7.47439453 -7.5625 6.3125 C-6.57378906 5.54550781 -5.58507812 4.77851563 -4.56640625 3.98828125 C-3.71949219 3.33214844 -2.87257813 2.67601562 -2 2 C-1.34 1.34 -0.68 0.68 0 0 Z " fill="#5757CA" transform="translate(101,367)"/>
<path d="M0 0 C-0.75 4.75 -0.75 4.75 -3 7 C-4.33627775 5.85760183 -5.66895388 4.71098945 -7 3.5625 C-7.7425 2.92441406 -8.485 2.28632812 -9.25 1.62890625 C-9.8275 1.09136719 -10.405 0.55382812 -11 0 C-11 -0.33 -11 -0.66 -11 -1 C-6.58937864 -2.0257259 -4.07369424 -2.03684712 0 0 Z " fill="#4F52CC" transform="translate(30,100)"/>
<path d="M0 0 C0.99 0.495 0.99 0.495 2 1 C4.26888559 8.80540067 5.45876305 16.90010908 6 25 C5.34 25 4.68 25 4 25 C3.67 26.32 3.34 27.64 3 29 C1.98369088 26.17691911 2.05700232 24.65798606 2.5625 21.625 C3.052665 17.56363284 2.30065001 15.82969169 1 12 C0.52859637 8.00844098 0.24664162 4.01117164 0 0 Z " fill="#6F71CA" transform="translate(57,518)"/>
<path d="M0 0 C0.28875 0.639375 0.5775 1.27875 0.875 1.9375 C1.82823451 4.15206079 1.82823451 4.15206079 4 5 C3.67 5.99 3.34 6.98 3 8 C2.34 8 1.68 8 1 8 C0.81824219 8.70125 0.63648438 9.4025 0.44921875 10.125 C-1.07999067 15.89678529 -2.80054363 21.44899107 -5 27 C-6.52853643 23.05696016 -5.41176703 20.24486299 -4.1875 16.3125 C-2.55201831 10.89673536 -1.14579051 5.53798746 0 0 Z " fill="#6468CD" transform="translate(226,600)"/>
<path d="M0 0 C0.66 0 1.32 0 2 0 C1.84660156 1.30710937 1.69320312 2.61421875 1.53515625 3.9609375 C0.78152549 11.49724505 0.64333502 19.05867281 0.4375 26.625 C0.39420285 28.12110312 0.35058544 29.61719701 0.30664062 31.11328125 C0.20073818 34.74208861 0.0991582 38.37100135 0 42 C-0.33 42 -0.66 42 -1 42 C-1.02477057 36.82218777 -1.04289347 31.64441025 -1.05493164 26.46655273 C-1.0599517 24.70612995 -1.0667691 22.94571132 -1.07543945 21.18530273 C-1.08760703 18.65086846 -1.09325166 16.11648946 -1.09765625 13.58203125 C-1.10281754 12.79850784 -1.10797882 12.01498444 -1.11329651 11.2077179 C-1.11369066 7.34408861 -0.9444276 3.754835 0 0 Z " fill="#3C40BC" transform="translate(49,431)"/>
<path d="M0 0 C0.66 0.33 1.32 0.66 2 1 C1.47651945 4.97490317 -0.30410893 6.47905691 -3.3125 9 C-6.34037925 11.56243665 -9.22918062 14.1594346 -12 17 C-12.6875 15.1875 -12.6875 15.1875 -13 13 C-11.5625 11.25 -11.5625 11.25 -10 10 C-9.34 10.33 -8.68 10.66 -8 11 C-8.33 10.01 -8.66 9.02 -9 8 C-7.02 7.67 -5.04 7.34 -3 7 C-3 5.35 -3 3.7 -3 2 C-2.34 2 -1.68 2 -1 2 C-0.67 1.34 -0.34 0.68 0 0 Z " fill="#5255C6" transform="translate(69,203)"/>
<path d="M0 0 C0.66 0 1.32 0 2 0 C0.77048326 7.47835477 -0.88829237 14.7216477 -3 22 C-3.33 22 -3.66 22 -4 22 C-4 18.04 -4 14.08 -4 10 C-3.34 10 -2.68 10 -2 10 C-1.855625 9.278125 -1.71125 8.55625 -1.5625 7.8125 C-1.04166667 5.20833333 -0.52083333 2.60416667 0 0 Z " fill="#6063D0" transform="translate(261,630)"/>
<path d="M0 0 C0.66 0 1.32 0 2 0 C1.45318976 5.00600922 -0.24140333 8.97181067 -2.5625 13.375 C-2.89185547 14.01566406 -3.22121094 14.65632813 -3.56054688 15.31640625 C-4.36639482 16.88138632 -5.18218493 18.44124021 -6 20 C-7.09658936 16.71023192 -6.79953138 15.28696233 -6 12 C-5.34 12 -4.68 12 -4 12 C-4.33 10.02 -4.66 8.04 -5 6 C-4.01 6.33 -3.02 6.66 -2 7 C-2 6.01 -2 5.02 -2 4 C-1.34 4 -0.68 4 0 4 C0 2.68 0 1.36 0 0 Z " fill="#6769D1" transform="translate(319,493)"/>
<path d="M0 0 C0 3.61537605 -0.89229241 5.11165997 -3 8 C-3.99 8 -4.98 8 -6 8 C-6 8.66 -6 9.32 -6 10 C-7.32 10.33 -8.64 10.66 -10 11 C-10 12.32 -10 13.64 -10 15 C-11.65 15 -13.3 15 -15 15 C-12.15179379 9.92276285 -8.69504938 6.96113276 -4.0234375 3.515625 C-1.92064409 2.01533287 -1.92064409 2.01533287 0 0 Z " fill="#6D6ED0" transform="translate(238,101)"/>
<path d="M0 0 C1.875 0.25 1.875 0.25 4 1 C4.6837045 2.32467746 5.34964186 3.65863633 6 5 C7.32407669 5.68486725 8.65909241 6.34870203 10 7 C12.75 9.4375 12.75 9.4375 15 12 C15 12.99 15 13.98 15 15 C10.33648834 12.18020225 7.24908888 9.39582613 4 5 C4 4.34 4 3.68 4 3 C2.68 2.67 1.36 2.34 0 2 C0 1.34 0 0.68 0 0 Z " fill="#5C5FC9" transform="translate(266,251)"/>
<path d="M0 0 C0.66 0.33 1.32 0.66 2 1 C1.67 1.99 1.34 2.98 1 4 C0.0409375 4.2165625 0.0409375 4.2165625 -0.9375 4.4375 C-1.9584375 4.7159375 -1.9584375 4.7159375 -3 5 C-4.10836423 6.88316159 -4.10836423 6.88316159 -5 9 C-7.28651069 11.830918 -9.66459912 12.68339439 -13 14 C-13.33 14.66 -13.66 15.32 -14 16 C-14.66 15.67 -15.32 15.34 -16 15 C-11.32345248 8.89450741 -11.32345248 8.89450741 -7 8 C-6.31513275 6.67592331 -5.65129797 5.34090759 -5 4 C-2.375 1.75 -2.375 1.75 0 0 Z " fill="#797AD0" transform="translate(337,11)"/>
<path d="M0 0 C1.25348607 2.95106435 1.01044806 3.97406463 -0.21484375 7.015625 C-1.06755859 8.61664062 -1.06755859 8.61664062 -1.9375 10.25 C-2.50339844 11.32765625 -3.06929688 12.4053125 -3.65234375 13.515625 C-4.09707031 14.33546875 -4.54179688 15.1553125 -5 16 C-5.33 16 -5.66 16 -6 16 C-6 14.02 -6 12.04 -6 10 C-5.34 10 -4.68 10 -4 10 C-4.33 7.03 -4.66 4.06 -5 1 C-3.35 1.33 -1.7 1.66 0 2 C0 1.34 0 0.68 0 0 Z " fill="#5E61CF" transform="translate(77,620)"/>
<path d="M0 0 C1.67542976 0.28604898 3.34385343 0.61781233 5 1 C3.4169423 5.2742558 0.49431596 7.26531794 -3 10 C-3.66 8.35 -4.32 6.7 -5 5 C-3.35 4.67 -1.7 4.34 0 4 C-0.33 3.01 -0.66 2.02 -1 1 C-0.67 0.67 -0.34 0.34 0 0 Z " fill="#5357CF" transform="translate(86,186)"/>
<path d="M0 0 C4.39750672 0.50740462 6.86948922 3.08293314 10 6 C10 6.66 10 7.32 10 8 C11.2065625 8.433125 11.2065625 8.433125 12.4375 8.875 C15 10 15 10 16 12 C14.68 12 13.36 12 12 12 C11.67 11.34 11.34 10.68 11 10 C9.33720673 8.9935725 7.67016516 7.99414593 6 7 C4.1875 5.4375 4.1875 5.4375 3 4 C3 3.34 3 2.68 3 2 C2.01 2 1.02 2 0 2 C0 1.34 0 0.68 0 0 Z " fill="#4849BC" transform="translate(68,75)"/>
<path d="M0 0 C0 0.66 0 1.32 0 2 C-6.6 2 -13.2 2 -20 2 C-20 1.34 -20 0.68 -20 0 C-17.41703983 -0.19522373 -14.83395921 -0.38144403 -12.25 -0.5625 C-11.52039063 -0.61857422 -10.79078125 -0.67464844 -10.0390625 -0.73242188 C-6.45046349 -0.97709908 -3.44972775 -0.99666259 0 0 Z " fill="#3036BB" transform="translate(244,525)"/>
<path d="M0 0 C0.66 0.33 1.32 0.66 2 1 C1.835 1.7425 1.67 2.485 1.5 3.25 C0.88074304 6.19006578 0.88074304 6.19006578 1 10 C0.34 10 -0.32 10 -1 10 C-1.33 10.66 -1.66 11.32 -2 12 C-2.99 12.33 -3.98 12.66 -5 13 C-4.68143549 10.99759451 -4.34578768 8.99788438 -4 7 C-3.87625 6.278125 -3.7525 5.55625 -3.625 4.8125 C-2.86323755 2.60338888 -1.74561817 1.51792885 0 0 Z " fill="#4448D1" transform="translate(62,258)"/>
<path d="M0 0 C0.66 0 1.32 0 2 0 C2 0.66 2 1.32 2 2 C1.21625 2.763125 0.4325 3.52625 -0.375 4.3125 C-3.12679764 6.76045551 -3.12679764 6.76045551 -4 9.75 C-4.33 10.4925 -4.66 11.235 -5 12 C-7.375 12.625 -7.375 12.625 -10 13 C-12.26454073 14.46771271 -12.26454073 14.46771271 -14 16 C-14.66 15.67 -15.32 15.34 -16 15 C-13.64361552 12.50896498 -11.56304253 10.31761373 -8.5625 8.625 C-5.46206683 6.65887165 -3.58275319 4.29411554 -1.33203125 1.42578125 C-0.89246094 0.95527344 -0.45289063 0.48476562 0 0 Z " fill="#8283D7" transform="translate(133,193)"/>
<path d="M0 0 C1.32 0.33 2.64 0.66 4 1 C0.32558309 5.13371903 -3.62501483 8.3543783 -9 10 C-11.24609375 9.6015625 -11.24609375 9.6015625 -13 9 C-10 7 -10 7 -6 7 C-6 6.01 -6 5.02 -6 4 C-4.02 3.34 -2.04 2.68 0 2 C0 1.34 0 0.68 0 0 Z " fill="#6D71CD" transform="translate(102,329)"/>
<path d="M0 0 C10.11764706 8.23529412 10.11764706 8.23529412 12 12 C9.36 11.67 6.72 11.34 4 11 C3.67 9.35 3.34 7.7 3 6 C2.01 6.33 1.02 6.66 0 7 C0 6.34 0 5.68 0 5 C0.66 5 1.32 5 2 5 C1.34 3.35 0.68 1.7 0 0 Z " fill="#6E71D3" transform="translate(247,232)"/>
<path d="M0 0 C0.66 0 1.32 0 2 0 C2.28100502 7.16562789 1.20443195 13.94546999 0 21 C-0.33 21 -0.66 21 -1 21 C-1.19397476 19.02145742 -1.38001321 17.0421352 -1.5625 15.0625 C-1.66691406 13.96035156 -1.77132812 12.85820313 -1.87890625 11.72265625 C-1.91886719 10.82417969 -1.95882812 9.92570313 -2 9 C-1.67 8.67 -1.34 8.34 -1 8 C-0.76924918 6.65252916 -0.58846937 5.29622435 -0.4375 3.9375 C-0.293125 2.638125 -0.14875 1.33875 0 0 Z " fill="#595CC4" transform="translate(197,586)"/>
<path d="M0 0 C0.66 0.33 1.32 0.66 2 1 C0.54257101 3.43804479 -0.91590468 5.87545275 -2.375 8.3125 C-2.7875 9.00279297 -3.2 9.69308594 -3.625 10.40429688 C-4.02460938 11.07138672 -4.42421875 11.73847656 -4.8359375 12.42578125 C-5.20251465 13.03848877 -5.5690918 13.65119629 -5.94677734 14.2824707 C-6.9259667 15.87927115 -7.96097924 17.44146886 -9 19 C-9 17.35 -9 15.7 -9 14 C-8.34 14 -7.68 14 -7 14 C-7 12.02 -7 10.04 -7 8 C-6.01 8 -5.02 8 -4 8 C-4 7.01 -4 6.02 -4 5 C-2.5625 3.4375 -2.5625 3.4375 -1 2 C-0.67 1.34 -0.34 0.68 0 0 Z " fill="#8383DA" transform="translate(338,459)"/>
<path d="M0 0 C0.33 0 0.66 0 1 0 C1.125 7.75 1.125 7.75 0 10 C-0.66 10 -1.32 10 -2 10 C-1.773125 10.7425 -1.54625 11.485 -1.3125 12.25 C-1 15 -1 15 -2.4375 17.3125 C-2.953125 17.869375 -3.46875 18.42625 -4 19 C-5.31933105 15.3843649 -4.66876124 13.51733119 -3.125 10.0625 C-1.63906832 6.70096925 -0.61046173 3.63029899 0 0 Z " fill="#5D61CB" transform="translate(232,582)"/>
<path d="M0 0 C0.66 0.33 1.32 0.66 2 1 C1.52343588 2.79236067 1.04366502 4.58386897 0.5625 6.375 C0.29566406 7.37273438 0.02882813 8.37046875 -0.24609375 9.3984375 C-1 12 -1 12 -2 14 C-2.66 14 -3.32 14 -4 14 C-4 12.68 -4 11.36 -4 10 C-3.34 10 -2.68 10 -2 10 C-2.33 7.03 -2.66 4.06 -3 1 C-2.01 1.33 -1.02 1.66 0 2 C0 1.34 0 0.68 0 0 Z " fill="#4B4ECB" transform="translate(283,570)"/>
<path d="M0 0 C1.66842534 0.32441604 3.33480481 0.65939189 5 1 C5.721875 1.103125 6.44375 1.20625 7.1875 1.3125 C9 2 9 2 10.25 3.9375 C11 6 11 6 11 8 C11.99 9.485 11.99 9.485 13 11 C10.20200015 9.90078577 8.96449982 8.95533848 7.0625 6.5625 C4.91854516 3.89879853 2.95770748 2.64317082 0 1 C0 0.67 0 0.34 0 0 Z " fill="#696DCF" transform="translate(314,250)"/>
<path d="M0 0 C0.33 0.66 0.66 1.32 1 2 C1.66 2.33 2.32 2.66 3 3 C2.40477663 4.44122613 1.79842381 5.87785868 1.1875 7.3125 C0.85105469 8.11300781 0.51460938 8.91351562 0.16796875 9.73828125 C-0.98200704 11.96515745 -2.13626961 13.34987767 -4 15 C-3.649375 13.906875 -3.29875 12.81375 -2.9375 11.6875 C-1.66960546 8.09079627 -1.66960546 8.09079627 -3 5 C-2.6875 2.875 -2.6875 2.875 -2 1 C-1.34 0.67 -0.68 0.34 0 0 Z " fill="#6B6DD6" transform="translate(68,634)"/>
<path d="M0 0 C2 1 4 2 6 3 C5.67 5.97 5.34 8.94 5 12 C4.67 12 4.34 12 4 12 C4 10.02 4 8.04 4 6 C2.68 5.67 1.36 5.34 0 5 C0 3.35 0 1.7 0 0 Z " fill="#383BC8" transform="translate(200,548)"/>
<path d="M0 0 C0.99 0 1.98 0 3 0 C2.67 6.6 2.34 13.2 2 20 C1.67 20 1.34 20 1 20 C0.67 13.4 0.34 6.8 0 0 Z " fill="#8A8EDA" transform="translate(191,632)"/>
<path d="M0 0 C0.33 1.32 0.66 2.64 1 4 C0.34 4 -0.32 4 -1 4 C-1.66 7.63 -2.32 11.26 -3 15 C-3.99 15.33 -4.98 15.66 -6 16 C-4.94513949 9.87903309 -3.34782974 5.24493326 0 0 Z " fill="#7476D3" transform="translate(56,414)"/>
<path d="M0 0 C0.66 0.66 1.32 1.32 2 2 C1.01 2.33 0.02 2.66 -1 3 C-1.33 3.66 -1.66 4.32 -2 5 C-2.66 5 -3.32 5 -4 5 C-4.33 4.34 -4.66 3.68 -5 3 C-6.98 3.33 -8.96 3.66 -11 4 C-11 3.34 -11 2.68 -11 2 C-7.18610442 0.20522561 -4.21354337 -0.37453719 0 0 Z " fill="#4D51CA" transform="translate(162,179)"/>
<path d="M0 0 C2.97 0.495 2.97 0.495 6 1 C3.21000549 4.48749314 0.74764169 7.50157221 -3 10 C-3.66 9.67 -4.32 9.34 -5 9 C-4.67 8.01 -4.34 7.02 -4 6 C-2.68 6 -1.36 6 0 6 C0 4.02 0 2.04 0 0 Z " fill="#6366D3" transform="translate(283,125)"/>
<path d="M0 0 C3.85014448 1.51255676 5.47159227 3.80230787 8 7 C9.93944702 8.75792242 11.94957083 10.36897679 14 12 C13.67 12.66 13.34 13.32 13 14 C12.2575 13.38125 11.515 12.7625 10.75 12.125 C8.23252321 9.98634614 8.23252321 9.98634614 5.875 9.125 C3.03336062 7.42001637 2.29860534 4.96824077 1 2 C0.67 1.34 0.34 0.68 0 0 Z " fill="#878CD8" transform="translate(54,60)"/>
<path d="M0 0 C1.1700097 3.91736581 0.69584017 6.97959015 0 11 C-0.99 11.33 -1.98 11.66 -3 12 C-3 13.98 -3 15.96 -3 18 C-3.66 18 -4.32 18 -5 18 C-3.9007105 11.68878497 -2.41862058 5.93661416 0 0 Z " fill="#7677D3" transform="translate(7,660)"/>
<path d="M0 0 C0.33 0.66 0.66 1.32 1 2 C-0.07674702 4.28258633 -1.19546116 6.4356434 -2.4375 8.625 C-2.77587891 9.23601563 -3.11425781 9.84703125 -3.46289062 10.4765625 C-4.30146192 11.988353 -5.14982577 13.49470399 -6 15 C-6.33 15 -6.66 15 -7 15 C-6.67 12.36 -6.34 9.72 -6 7 C-5.34 7 -4.68 7 -4 7 C-4 6.01 -4 5.02 -4 4 C-3.34 4 -2.68 4 -2 4 C-2 3.01 -2 2.02 -2 1 C-1.34 0.67 -0.68 0.34 0 0 Z " fill="#6C6FCF" transform="translate(121,541)"/>
<path d="M0 0 C0.66 0.33 1.32 0.66 2 1 C3.0283474 6.03890228 3.08970351 10.88689982 3 16 C0.83198169 12.74797253 0.42429207 10.69295049 -0.1875 6.875 C-0.36667969 5.79992187 -0.54585937 4.72484375 -0.73046875 3.6171875 C-0.81941406 2.75351562 -0.90835938 1.88984375 -1 1 C-0.67 0.67 -0.34 0.34 0 0 Z " fill="#5C5ECA" transform="translate(53,499)"/>
<path d="M0 0 C0.66 1.32 1.32 2.64 2 4 C-3.625 9 -3.625 9 -7 9 C-5.44499019 5.18315774 -2.96404505 2.80804268 0 0 Z " fill="#5E5FCF" transform="translate(42,276)"/>
<path d="M0 0 C0.66 0.33 1.32 0.66 2 1 C1.66753345 4.07531556 1.36895244 5.61832506 -0.8125 7.875 C-3 9 -3 9 -7 8 C-4.69 5.36 -2.38 2.72 0 0 Z " fill="#5D60CE" transform="translate(60,145)"/>
<path d="M0 0 C0.66 0.33 1.32 0.66 2 1 C1.67 2.98 1.34 4.96 1 7 C1.639375 7.268125 2.27875 7.53625 2.9375 7.8125 C5 9 5 9 6 12 C5.01 12 4.02 12 3 12 C3 11.34 3 10.68 3 10 C1.68 9.67 0.36 9.34 -1 9 C-1.66 6.69 -2.32 4.38 -3 2 C-2.01 2 -1.02 2 0 2 C0 1.34 0 0.68 0 0 Z " fill="#4A4BCE" transform="translate(55,123)"/>
<path d="M0 0 C1.11346788 2.80033839 1.03510273 3.90143703 0.00390625 6.796875 C-0.47175781 7.77140625 -0.94742188 8.7459375 -1.4375 9.75 C-1.91058594 10.73484375 -2.38367187 11.7196875 -2.87109375 12.734375 C-3.24363281 13.48203125 -3.61617187 14.2296875 -4 15 C-5.046875 13.12109375 -5.046875 13.12109375 -6 11 C-5.25 9.0625 -5.25 9.0625 -4 7 C-3.32033324 5.33859237 -2.65061095 3.67299959 -2 2 C-1.34 2 -0.68 2 0 2 C0 1.34 0 0.68 0 0 Z " fill="#6466C9" transform="translate(59,657)"/>
<path d="M0 0 C0.33 0 0.66 0 1 0 C0.03644647 10.55808656 0.03644647 10.55808656 -1 15 C-1.66 15 -2.32 15 -3 15 C-3 12.36 -3 9.72 -3 7 C-2.34 7 -1.68 7 -1 7 C-1.020625 6.030625 -1.04125 5.06125 -1.0625 4.0625 C-1 1 -1 1 0 0 Z " fill="#6668CA" transform="translate(202,569)"/>
<path d="M0 0 C1.32 0.33 2.64 0.66 4 1 C3.01 3.97 2.02 6.94 1 10 C0.34 10 -0.32 10 -1 10 C-1.33 8.02 -1.66 6.04 -2 4 C-1.01 3.67 -0.02 3.34 1 3 C0.67 2.01 0.34 1.02 0 0 Z " fill="#5A5FCD" transform="translate(84,601)"/>
<path d="M0 0 C0.99 0 1.98 0 3 0 C2.61479436 2.53910197 2.29902057 3.72751123 0.37109375 5.484375 C-0.26699219 5.90203125 -0.90507812 6.3196875 -1.5625 6.75 C-2.20316406 7.17796875 -2.84382813 7.6059375 -3.50390625 8.046875 C-4.24447266 8.51867187 -4.24447266 8.51867187 -5 9 C-5.66 8.01 -6.32 7.02 -7 6 C-6.01 6 -5.02 6 -4 6 C-4 5.34 -4 4.68 -4 4 C-2.68 4 -1.36 4 0 4 C-0.33 3.01 -0.66 2.02 -1 1 C-0.67 0.67 -0.34 0.34 0 0 Z " fill="#5659D0" transform="translate(294,117)"/>
<path d="M0 0 C1.33897583 0.95043374 2.67105427 1.91059147 4 2.875 C5.11375 3.67550781 5.11375 3.67550781 6.25 4.4921875 C6.8275 4.98976563 7.405 5.48734375 8 6 C8 6.66 8 7.32 8 8 C9.32 8.66 10.64 9.32 12 10 C11.01 10.495 11.01 10.495 10 11 C6.21848945 9.73949648 4.63043503 7.96767029 2 5 C0.6875 2.1875 0.6875 2.1875 0 0 Z " fill="#7172D3" transform="translate(100,102)"/>
<path d="M0 0 C1.32 0 2.64 0 4 0 C4.69937202 1.4317616 5.38412718 2.87067032 6.0625 4.3125 C6.63677734 5.51326172 6.63677734 5.51326172 7.22265625 6.73828125 C8 9 8 9 7 12 C7 11.34 7 10.68 7 10 C6.34 10 5.68 10 5 10 C5 8.02 5 6.04 5 4 C3.68 4 2.36 4 1 4 C0.67 2.68 0.34 1.36 0 0 Z " fill="#5E5FD1" transform="translate(347,345)"/>
<path d="M0 0 C0.33 0.99 0.66 1.98 1 3 C0.01 3.33 -0.98 3.66 -2 4 C-1.67 5.32 -1.34 6.64 -1 8 C-3.6666419 9.33332095 -5.16680303 8.67102033 -8 8 C-5.33333333 5.33333333 -2.66666667 2.66666667 0 0 Z " fill="#6162CF" transform="translate(154,319)"/>
<path d="M0 0 C0.99 0.33 1.98 0.66 3 1 C2.01 3.97 1.02 6.94 0 10 C-2 8 -2 8 -2.25 5 C-2 2 -2 2 0 0 Z " fill="#4B4CCE" transform="translate(48,676)"/>
<path d="M0 0 C0.99 0 1.98 0 3 0 C2.01 3.96 1.02 7.92 0 12 C-2.35953094 9.64046906 -2.49141413 8.22104383 -3 5 C-2.01 4.67 -1.02 4.34 0 4 C0 2.68 0 1.36 0 0 Z " fill="#5E60CB" transform="translate(271,600)"/>
<path d="M0 0 C0.33 0.66 0.66 1.32 1 2 C0.06553465 4.03144641 -0.93224776 6.03533587 -2 8 C-2.66 8 -3.32 8 -4 8 C-4 8.99 -4 9.98 -4 11 C-5.32 10.67 -6.64 10.34 -8 10 C-5.36 6.7 -2.72 3.4 0 0 Z " fill="#5F61CF" transform="translate(132,338)"/>
<path d="M0 0 C3.07375376 1.53687688 6.01980715 3.28914855 9 5 C9 5.99 9 6.98 9 8 C5.9168649 6.80100302 2.93720508 5.52299523 0 4 C0 3.34 0 2.68 0 2 C-0.66 1.67 -1.32 1.34 -2 1 C-1.34 0.67 -0.68 0.34 0 0 Z " fill="#6E6FCE" transform="translate(39,330)"/>
<path d="M0 0 C0.99 0.33 1.98 0.66 3 1 C3 1.99 3 2.98 3 4 C3.66 4 4.32 4 5 4 C5.99 5.485 5.99 5.485 7 7 C7.99 7.66 8.98 8.32 10 9 C9.67 9.99 9.34 10.98 9 12 C7.49105554 10.57189185 5.99307655 9.13218981 4.5 7.6875 C3.6646875 6.88699219 2.829375 6.08648437 1.96875 5.26171875 C0 3 0 3 0 0 Z " fill="#5F62C4" transform="translate(249,188)"/>
<path d="M0 0 C0.99 0.33 1.98 0.66 3 1 C2.54917531 2.46067199 2.08906463 3.91848032 1.625 5.375 C1.36976563 6.18710937 1.11453125 6.99921875 0.8515625 7.8359375 C0 10 0 10 -2 12 C-2.33 11.01 -2.66 10.02 -3 9 C-2.34 9 -1.68 9 -1 9 C-0.67 6.03 -0.34 3.06 0 0 Z " fill="#7577D2" transform="translate(298,535)"/>
<path d="M0 0 C0.99 0.33 1.98 0.66 3 1 C2.33501617 5.38889325 0.81242323 8.9811485 -1 13 C-1.33 13 -1.66 13 -2 13 C-2 11.02 -2 9.04 -2 7 C-1.34 7 -0.68 7 0 7 C-0.2784375 5.824375 -0.2784375 5.824375 -0.5625 4.625 C-1 2 -1 2 0 0 Z " fill="#6F70D4" transform="translate(211,532)"/>
<path d="M0 0 C0.66 0 1.32 0 2 0 C2 0.66 2 1.32 2 2 C2.99 2 3.98 2 5 2 C6.90877584 4.58246143 8.56377246 7.12754491 10 10 C7.00779732 8.63629701 4.70973471 7.05091917 2.25 4.875 C1.63640625 4.33617187 1.0228125 3.79734375 0.390625 3.2421875 C-0.06828125 2.83226562 -0.5271875 2.42234375 -1 2 C-0.67 1.34 -0.34 0.68 0 0 Z " fill="#6C71CF" transform="translate(229,171)"/>
<path d="M0 0 C0 0.66 0 1.32 0 2 C-2.31 1.67 -4.62 1.34 -7 1 C-7.33 1.66 -7.66 2.32 -8 3 C-8.99 1.68 -9.98 0.36 -11 -1 C-6.58937864 -2.0257259 -4.07369424 -2.03684712 0 0 Z " fill="#5456DE" transform="translate(30,100)"/>
<path d="M0 0 C2 3 2 3 2.5 5.125 C2.665 5.74375 2.83 6.3625 3 7 C3.66 7.33 4.32 7.66 5 8 C3.125 9.0625 3.125 9.0625 1 10 C0.34 9.67 -0.32 9.34 -1 9 C-0.67 6.03 -0.34 3.06 0 0 Z " fill="#636BD1" transform="translate(1,678)"/>
<path d="M0 0 C0.66 0 1.32 0 2 0 C1.67 4.95 1.34 9.9 1 15 C0.67 15 0.34 15 0 15 C-1.33257403 4.44191344 -1.33257403 4.44191344 0 0 Z " fill="#5558C3" transform="translate(194,608)"/>
<path d="M0 0 C-0.1875 2.375 -0.1875 2.375 -1 5 C-3.5625 6.3125 -3.5625 6.3125 -6 7 C-5.37162381 3.35541809 -4.14650034 0 0 0 Z " fill="#6468D2" transform="translate(112,358)"/>
<path d="M0 0 C3.36591866 1.44253657 5.51047079 3.33264727 8 6 C6.25 6.75 6.25 6.75 4 7 C1.75 5.25 1.75 5.25 0 3 C0 2.01 0 1.02 0 0 Z " fill="#5C5ECC" transform="translate(313,294)"/>
<path d="M0 0 C-1.49097658 3.7952131 -3.75700849 5.61042731 -7 8 C-6.40138258 5.64828869 -5.73075648 3.3140622 -5 1 C-3 0 -3 0 0 0 Z " fill="#5154C7" transform="translate(31,242)"/>
<path d="M0 0 C2.31 0.33 4.62 0.66 7 1 C7 1.66 7 2.32 7 3 C7.66 3 8.32 3 9 3 C9 4.65 9 6.3 9 8 C7.87411986 7.04270084 6.7493285 6.08412105 5.625 5.125 C4.99851562 4.59132812 4.37203125 4.05765625 3.7265625 3.5078125 C2.44163349 2.38567993 1.20628025 1.20628025 0 0 Z " fill="#6968D1" transform="translate(290,228)"/>
<path d="M0 0 C4.74908547 2.80627778 7.19372222 5.25091453 10 10 C9.01 10 8.02 10 7 10 C7 9.01 7 8.02 7 7 C5.68 6.67 4.36 6.34 3 6 C3 5.01 3 4.02 3 3 C2.01 2.67 1.02 2.34 0 2 C0 1.34 0 0.68 0 0 Z " fill="#8486D2" transform="translate(29,37)"/>
<path d="M0 0 C0.33 0 0.66 0 1 0 C3 6.625 3 6.625 3 10 C1.68 10.99 0.36 11.98 -1 13 C-0.67 8.71 -0.34 4.42 0 0 Z " fill="#3236BE" transform="translate(209,683)"/>
<path d="M0 0 C0.99 0 1.98 0 3 0 C2.54738642 1.43931117 2.08767021 2.87638999 1.625 4.3125 C1.36976563 5.11300781 1.11453125 5.91351562 0.8515625 6.73828125 C0 9 0 9 -2 12 C-1.85831863 10.56208484 -1.71148957 9.1246763 -1.5625 7.6875 C-1.48128906 6.88699219 -1.40007812 6.08648438 -1.31640625 5.26171875 C-1 3 -1 3 0 0 Z " fill="#7375D2" transform="translate(267,612)"/>
<path d="M0 0 C1.65 0.33 3.3 0.66 5 1 C4.34 3.31 3.68 5.62 3 8 C2.01 8 1.02 8 0 8 C0.99 6.35 1.98 4.7 3 3 C1.68 2.67 0.36 2.34 -1 2 C-0.67 1.34 -0.34 0.68 0 0 Z " fill="#6E70D7" transform="translate(122,532)"/>
<path d="M0 0 C1 2 1 2 0.22265625 4.6015625 C-0.16019531 5.59929687 -0.54304688 6.59703125 -0.9375 7.625 C-1.50791016 9.12933594 -1.50791016 9.12933594 -2.08984375 10.6640625 C-2.39019531 11.43492187 -2.69054687 12.20578125 -3 13 C-3.66 12.67 -4.32 12.34 -5 12 C-3.85814266 7.52040582 -2.56984833 3.85477249 0 0 Z " fill="#6669C7" transform="translate(352,427)"/>
<path d="M0 0 C0.66 0 1.32 0 2 0 C2 0.66 2 1.32 2 2 C2.66 2.33 3.32 2.66 4 3 C5.36244796 4.64295195 6.69864875 6.30824337 8 8 C5 8 5 8 3.39453125 6.46875 C2.87246094 5.8190625 2.35039062 5.169375 1.8125 4.5 C1.28269531 3.8503125 0.75289063 3.200625 0.20703125 2.53125 C-0.19128906 2.0259375 -0.58960938 1.520625 -1 1 C-0.67 0.67 -0.34 0.34 0 0 Z " fill="#5659CA" transform="translate(307,241)"/>
<path d="M0 0 C-1.28519565 2.86697492 -2.57129254 4.97607712 -5 7 C-5.66 7 -6.32 7 -7 7 C-6.22006468 2.47637516 -4.81844319 0 0 0 Z " fill="#6767CA" transform="translate(105,222)"/>
<path d="M0 0 C2.97 0.495 2.97 0.495 6 1 C4.35 2.98 2.7 4.96 1 7 C0.34 6.67 -0.32 6.34 -1 6 C-0.67 4.02 -0.34 2.04 0 0 Z " fill="#5A5ECD" transform="translate(100,174)"/>
<path d="M0 0 C3.7952131 1.49097658 5.61042731 3.75700849 8 7 C6.68 7 5.36 7 4 7 C4 6.34 4 5.68 4 5 C3.01 5 2.02 5 1 5 C0.67 3.35 0.34 1.7 0 0 Z " fill="#7878CF" transform="translate(0,11)"/>
<path d="M0 0 C0.99 0.495 0.99 0.495 2 1 C2 1.66 2 2.32 2 3 C2.99 3.33 3.98 3.66 5 4 C4.01 6.31 3.02 8.62 2 11 C1.67 11 1.34 11 1 11 C1.020625 10.113125 1.04125 9.22625 1.0625 8.3125 C1.00713781 5.37830369 0.6694266 2.84506304 0 0 Z " fill="#454BCD" transform="translate(96,575)"/>
<path d="M0 0 C3.63 0 7.26 0 11 0 C11.33 0.99 11.66 1.98 12 3 C12.66 3.33 13.32 3.66 14 4 C13.01 4.495 13.01 4.495 12 5 C11.505 4.525625 11.01 4.05125 10.5 3.5625 C7.00531349 1.37832093 4.09033064 1.34086089 0 1 C0 0.67 0 0.34 0 0 Z " fill="#5455BB" transform="translate(138,300)"/>
<path d="M0 0 C0.66 0.99 1.32 1.98 2 3 C1.34 3 0.68 3 0 3 C0 3.99 0 4.98 0 6 C-2.76264289 6.59732819 -5.16032769 7 -8 7 C-2.25 2 -2.25 2 0 2 C0 1.34 0 0.68 0 0 Z " fill="#7575D3" transform="translate(116,209)"/>
<path d="M0 0 C0.66 0 1.32 0 2 0 C1.34 3.63 0.68 7.26 0 11 C-0.66 11 -1.32 11 -2 11 C-2.24042276 6.91281305 -1.42258812 3.82320557 0 0 Z " fill="#6969C4" transform="translate(261,630)"/>
<path d="M0 0 C0.66 0.33 1.32 0.66 2 1 C-0.23407889 4.35111834 -1.26215824 5.81553956 -5.25 6.8125 C-6.61125 6.9053125 -6.61125 6.9053125 -8 7 C-5.42215154 4.35247996 -3.08351902 2.05567935 0 0 Z " fill="#7A7BD4" transform="translate(318,29)"/>
<path d="M0 0 C1.17539996 0.92652701 2.34010577 1.86663387 3.5 2.8125 C4.1496875 3.33457031 4.799375 3.85664063 5.46875 4.39453125 C7 6 7 6 7 9 C6.67 8.34 6.34 7.68 6 7 C4.7625 6.5978125 4.7625 6.5978125 3.5 6.1875 C2.675 5.795625 1.85 5.40375 1 5 C0.1875 2.375 0.1875 2.375 0 0 Z " fill="#7173CF" transform="translate(12,22)"/>
<path d="M0 0 C0.66 0 1.32 0 2 0 C1.44894091 3.9492568 0.61064629 7.34920174 -1 11 C-1.33 11 -1.66 11 -2 11 C-2 8.69 -2 6.38 -2 4 C-1.34 4 -0.68 4 0 4 C0 2.68 0 1.36 0 0 Z " fill="#4F50C0" transform="translate(293,547)"/>
<path d="M0 0 C1.32 0.33 2.64 0.66 4 1 C2.37660195 2.70884005 0.70680947 4.37446717 -1 6 C-1.66 6 -2.32 6 -3 6 C-3 4.68 -3 3.36 -3 2 C-2.01 2 -1.02 2 0 2 C0 1.34 0 0.68 0 0 Z " fill="#7575D2" transform="translate(3,265)"/>
<path d="M0 0 C0.99 0.33 1.98 0.66 3 1 C1.625 2.5 1.625 2.5 0 4 C-0.66 4 -1.32 4 -2 4 C-2 4.66 -2 5.32 -2 6 C-2.99 6.33 -3.98 6.66 -5 7 C-5 5.35 -5 3.7 -5 2 C-3.35 1.67 -1.7 1.34 0 1 C0 0.67 0 0.34 0 0 Z " fill="#6063C7" transform="translate(21,249)"/>
<path d="M0 0 C0.33 0.66 0.66 1.32 1 2 C-0.22934015 5.68802044 -1.93859378 6.72356973 -5 9 C-5.66 8.34 -6.32 7.68 -7 7 C-5.625 5.5 -5.625 5.5 -4 4 C-3.34 4 -2.68 4 -2 4 C-1.34 2.68 -0.68 1.36 0 0 Z " fill="#7A7BD0" transform="translate(12,189)"/>
<path d="M0 0 C3.81684226 1.55500981 6.19195732 4.03595495 9 7 C8.01 7 7.02 7 6 7 C5.67 6.01 5.34 5.02 5 4 C3.35 3.67 1.7 3.34 0 3 C0 2.01 0 1.02 0 0 Z " fill="#565BC5" transform="translate(302,170)"/>
<path d="M0 0 C4.37859255 0.50522222 6.81651224 3.17827222 10 6 C9.67 6.66 9.34 7.32 9 8 C8.38125 7.525625 7.7625 7.05125 7.125 6.5625 C5.09294454 4.97582559 5.09294454 4.97582559 3 4 C3 3.34 3 2.68 3 2 C2.01 2 1.02 2 0 2 C0 1.34 0 0.68 0 0 Z " fill="#7F81D8" transform="translate(68,75)"/>
<path d="M0 0 C0.33 0 0.66 0 1 0 C1 2.64 1 5.28 1 8 C-0.32 8.33 -1.64 8.66 -3 9 C-2.01 6.03 -1.02 3.06 0 0 Z " fill="#6D73D2" transform="translate(248,540)"/>
<path d="M0 0 C2.0625 0.4375 2.0625 0.4375 4 1 C2.1875 3 2.1875 3 0 5 C-0.99 5 -1.98 5 -3 5 C-1.125 1.125 -1.125 1.125 0 0 Z " fill="#6667CB" transform="translate(101,367)"/>
<path d="M0 0 C1.67542976 0.28604898 3.34385343 0.61781233 5 1 C4.34 2.32 3.68 3.64 3 5 C2.01 4.67 1.02 4.34 0 4 C-0.33 3.01 -0.66 2.02 -1 1 C-0.67 0.67 -0.34 0.34 0 0 Z " fill="#484CD0" transform="translate(86,186)"/>
<path d="M0 0 C1.24546405 2.49092811 0.7767578 3.41080733 0 6 C-2.31 6.33 -4.62 6.66 -7 7 C-4.66666667 4.66666667 -2.33333333 2.33333333 0 0 Z " fill="#6066CB" transform="translate(46,158)"/>
<path d="M0 0 C3.53372712 1.96318174 6.24479785 4.04070881 9 7 C7.68 7 6.36 7 5 7 C5 6.34 5 5.68 5 5 C3.68 4.67 2.36 4.34 1 4 C0.67 2.68 0.34 1.36 0 0 Z " fill="#7579CE" transform="translate(20,30)"/>
<path d="M0 0 C1 2 2 4 3 6 C2.01 6 1.02 6 0 6 C0 7.65 0 9.3 0 11 C-0.99 11.495 -0.99 11.495 -2 12 C-1.34 8.04 -0.68 4.08 0 0 Z " fill="#4E50C5" transform="translate(9,655)"/>
<path d="M0 0 C0.66 0 1.32 0 2 0 C1.67 2.31 1.34 4.62 1 7 C0.01 6.67 -0.98 6.34 -2 6 C-2.33 6.66 -2.66 7.32 -3 8 C-2.45276317 4.62537285 -1.9451 2.91765 0 0 Z " fill="#7D7CD7" transform="translate(22,626)"/>
<path d="M0 0 C0.33 0 0.66 0 1 0 C1 2.64 1 5.28 1 8 C0.01 8.33 -0.98 8.66 -2 9 C-1.125 2.25 -1.125 2.25 0 0 Z " fill="#696CCD" transform="translate(244,550)"/>
<path d="M0 0 C-1.12451727 2.9719385 -2.22293791 5.33440687 -4 8 C-4.33 5.69 -4.66 3.38 -5 1 C-3 0 -3 0 0 0 Z " fill="#3E41C9" transform="translate(343,451)"/>
<path d="M0 0 C0.66 0 1.32 0 2 0 C2.66 2.31 3.32 4.62 4 7 C1.525 6.01 1.525 6.01 -1 5 C-0.67 3.35 -0.34 1.7 0 0 Z " fill="#5A5FC9" transform="translate(345,333)"/>
<path d="M0 0 C2.72426311 2.35277269 3.8141763 4.62496331 5 8 C4.34 8.66 3.68 9.32 3 10 C0.96564469 6.27034861 0 4.33094958 0 0 Z " fill="#696DCB" transform="translate(338,320)"/>
<path d="M0 0 C2.625 0.375 2.625 0.375 5 1 C3.35 2.65 1.7 4.3 0 6 C-0.66 4.68 -1.32 3.36 -2 2 C-1.34 1.34 -0.68 0.68 0 0 Z " fill="#6263D1" transform="translate(109,322)"/>
<path d="M0 0 C0.33 0.66 0.66 1.32 1 2 C1.66 2 2.32 2 3 2 C2.67 4.64 2.34 7.28 2 10 C0 8 0 8 -0.1953125 6.0546875 C-0.13020833 4.03645833 -0.06510417 2.01822917 0 0 Z " fill="#3B40C0" transform="translate(26,311)"/>
<path d="M0 0 C0.99 0.33 1.98 0.66 3 1 C1.35 2.98 -0.3 4.96 -2 7 C-2.99 6.34 -3.98 5.68 -5 5 C-3.35 3.35 -1.7 1.7 0 0 Z " fill="#3F44C1" transform="translate(34,285)"/>
<path d="M0 0 C0.66 0.33 1.32 0.66 2 1 C2 1.99 2 2.98 2 4 C-0.31 4 -2.62 4 -5 4 C-3.35 2.68 -1.7 1.36 0 0 Z " fill="#5F65CF" transform="translate(73,249)"/>
<path d="M0 0 C2.64 0.33 5.28 0.66 8 1 C8 1.66 8 2.32 8 3 C7.34 3 6.68 3 6 3 C6.33 3.99 6.66 4.98 7 6 C3.63279613 4.60667426 2.0140476 3.0210714 0 0 Z " fill="#6A6AD4" transform="translate(278,217)"/>
<path d="M0 0 C2.475 0.495 2.475 0.495 5 1 C5.33 2.65 5.66 4.3 6 6 C3.96166576 4.7260411 1.96147874 3.38938077 0 2 C0 1.34 0 0.68 0 0 Z " fill="#5658CA" transform="translate(264,203)"/>
<path d="M0 0 C1.32 1.32 2.64 2.64 4 4 C3.01 4.33 2.02 4.66 1 5 C0.67 5.66 0.34 6.32 0 7 C-0.66 5.68 -1.32 4.36 -2 3 C-1.34 2.67 -0.68 2.34 0 2 C0 1.34 0 0.68 0 0 Z " fill="#4F51DB" transform="translate(90,93)"/>
<path d="M0 0 C0.99 0 1.98 0 3 0 C1.9024777 2.99324263 1.32317108 3.84610901 -1.625 5.25 C-2.40875 5.4975 -3.1925 5.745 -4 6 C-4 5.01 -4 4.02 -4 3 C-2.68 3 -1.36 3 0 3 C0 2.01 0 1.02 0 0 Z " fill="#8080D2" transform="translate(336,80)"/>
<path d="M0 0 C1.88343932 3.76687864 2.22057835 5.02958963 2 9 C1.01 9.33 0.02 9.66 -1 10 C-0.67 6.7 -0.34 3.4 0 0 Z " fill="#4B4CC9" transform="translate(211,661)"/>
<path d="M0 0 C2 2 2 2 2.125 4.625 C2.08375 5.40875 2.0425 6.1925 2 7 C0.68 6.67 -0.64 6.34 -2 6 C-2 4.68 -2 3.36 -2 2 C-1.34 2 -0.68 2 0 2 C0 1.34 0 0.68 0 0 Z " fill="#3032C8" transform="translate(12,653)"/>
<path d="M0 0 C2.1519437 3.22791555 2.20086443 4.28400809 2 8 C1.01 8.33 0.02 8.66 -1 9 C-0.67 6.03 -0.34 3.06 0 0 Z " fill="#7D7ED6" transform="translate(215,640)"/>
<path d="M0 0 C0.66 0 1.32 0 2 0 C1.46930939 3.82097239 0.50298434 6.06171403 -2 9 C-2.33 7.35 -2.66 5.7 -3 4 C-2.01 4 -1.02 4 0 4 C0 2.68 0 1.36 0 0 Z " fill="#7F81D6" transform="translate(105,567)"/>
<path d="M0 0 C0.66 0 1.32 0 2 0 C2.66 1.98 3.32 3.96 4 6 C1.03 5.505 1.03 5.505 -2 5 C-1.125 1.125 -1.125 1.125 0 0 Z " fill="#4F52D3" transform="translate(140,513)"/>
<path d="M0 0 C0.66 0.66 1.32 1.32 2 2 C2.99 2 3.98 2 5 2 C4.67 2.99 4.34 3.98 4 5 C2.35 5.33 0.7 5.66 -1 6 C-0.67 4.02 -0.34 2.04 0 0 Z " fill="#5258D5" transform="translate(58,408)"/>
<path d="M0 0 C0 3.15081975 -0.27898465 4.41847698 -2 7 C-4.125 7.75 -4.125 7.75 -6 8 C-4.26440562 4.942048 -2.61527381 2.36620011 0 0 Z " fill="#7475CC" transform="translate(121,348)"/>
<path d="M0 0 C3.79588866 0.54226981 5.47211993 2.20127563 8 5 C5.36 4.67 2.72 4.34 0 4 C0 2.68 0 1.36 0 0 Z " fill="#6468CE" transform="translate(251,239)"/>
<path d="M0 0 C1.98 0 3.96 0 6 0 C5.67 0.99 5.34 1.98 5 3 C2.9375 3.6875 2.9375 3.6875 1 4 C0.67 2.68 0.34 1.36 0 0 Z " fill="#5759C9" transform="translate(50,220)"/>
<path d="M0 0 C1 2 1 2 0.75 4.0625 C0.5025 4.701875 0.255 5.34125 0 6 C-0.99 6.33 -1.98 6.66 -3 7 C-3.33 5.68 -3.66 4.36 -4 3 C-2.68 2.01 -1.36 1.02 0 0 Z " fill="#4B4ECB" transform="translate(34,170)"/>
<path d="M0 0 C1.4540625 0.0309375 1.4540625 0.0309375 2.9375 0.0625 C1.2875 1.7125 -0.3625 3.3625 -2.0625 5.0625 C-2.0625 4.0725 -2.0625 3.0825 -2.0625 2.0625 C-2.7225 1.7325 -3.3825 1.4025 -4.0625 1.0625 C-3.0625 0.0625 -3.0625 0.0625 0 0 Z " fill="#6A6CD4" transform="translate(318.0625,96.9375)"/>
<path d="M0 0 C0.66 0.33 1.32 0.66 2 1 C1.67 1.99 1.34 2.98 1 4 C-0.8125 4.5625 -0.8125 4.5625 -3 5 C-4.3479743 5.63654342 -5.68596724 6.29605388 -7 7 C-4.78071806 4.09197539 -3.07030857 2.04687238 0 0 Z " fill="#8A8ED3" transform="translate(337,11)"/>
<path d="M0 0 C0.99 0 1.98 0 3 0 C3 1.98 3 3.96 3 6 C1.68 5.01 0.36 4.02 -1 3 C-0.67 2.01 -0.34 1.02 0 0 Z " fill="#363BC5" transform="translate(252,656)"/>
<path d="M0 0 C0.66 0.33 1.32 0.66 2 1 C1.34 3.64 0.68 6.28 0 9 C-0.66 9 -1.32 9 -2 9 C-2 7.68 -2 6.36 -2 5 C-1.34 5 -0.68 5 0 5 C0 3.35 0 1.7 0 0 Z " fill="#6667C5" transform="translate(281,575)"/>
<path d="M0 0 C0.33 0 0.66 0 1 0 C1.33 2.64 1.66 5.28 2 8 C1.01 8 0.02 8 -1 8 C-1.04241723 5.66705225 -1.04092937 3.33297433 -1 1 C-0.67 0.67 -0.34 0.34 0 0 Z " fill="#3236C2" transform="translate(246,548)"/>
<path d="M0 0 C0.99 0.33 1.98 0.66 3 1 C2.67 2.65 2.34 4.3 2 6 C1.01 6.33 0.02 6.66 -1 7 C-0.67 4.69 -0.34 2.38 0 0 Z " fill="#4B4CCB" transform="translate(250,533)"/>
<path d="M0 0 C0.99 0 1.98 0 3 0 C2.40072174 3.35595828 1.15377564 5.37801226 -1 8 C-0.67 5.36 -0.34 2.72 0 0 Z " fill="#6466CE" transform="translate(345,441)"/>
<path d="M0 0 C0.66 0 1.32 0 2 0 C2.1875 2.8125 2.1875 2.8125 2 6 C1.01 6.99 0.02 7.98 -1 9 C-0.67 6.03 -0.34 3.06 0 0 Z " fill="#8B90CF" transform="translate(49,431)"/>
<path d="M0 0 C-0.3125 1.9375 -0.3125 1.9375 -1 4 C-1.99 4.33 -2.98 4.66 -4 5 C-4.33 3.68 -4.66 2.36 -5 1 C-3 0 -3 0 0 0 Z " fill="#5F5FCD" transform="translate(122,314)"/>
<path d="M0 0 C0.66 0.99 1.32 1.98 2 3 C1.01 4.98 0.02 6.96 -1 9 C-1.66 9 -2.32 9 -3 9 C-2.44271087 5.65626525 -1.64826111 2.96687001 0 0 Z " fill="#686AC7" transform="translate(28,291)"/>
<path d="M0 0 C2.0625 0.4375 2.0625 0.4375 4 1 C2.71034824 2.37562854 1.37310707 3.70766393 0 5 C-0.66 5 -1.32 5 -2 5 C-1.125 1.125 -1.125 1.125 0 0 Z " fill="#6565CD" transform="translate(80,242)"/>
<path d="M0 0 C1.65 1.65 3.3 3.3 5 5 C4.01 5.33 3.02 5.66 2 6 C1.67 6.66 1.34 7.32 1 8 C0.67 5.36 0.34 2.72 0 0 Z " fill="#4344C2" transform="translate(243,229)"/>
<path d="M0 0 C1.65 0 3.3 0 5 0 C3.35 1.98 1.7 3.96 0 6 C-1 3 -1 3 0 0 Z " fill="#686AD2" transform="translate(78,196)"/>
<path d="M0 0 C2.5 2.3125 2.5 2.3125 5 5 C5 5.99 5 6.98 5 8 C2.5 6.25 2.5 6.25 0 4 C0 2.68 0 1.36 0 0 Z " fill="#4E51BE" transform="translate(272,140)"/>
<path d="M0 0 C0.66 0.33 1.32 0.66 2 1 C0.47793991 3.62901288 -0.84365964 5.84365964 -3 8 C-3 7.34 -3 6.68 -3 6 C-3.66 5.67 -4.32 5.34 -5 5 C-3.35 3.35 -1.7 1.7 0 0 Z " fill="#6667D0" transform="translate(247,93)"/>
</svg>
